<?xml version="1.0" encoding="utf-8"?>
<!-- Generator: Adobe Illustrator 28.0.0, SVG Export Plug-In . SVG Version: 6.00 Build 0)  -->
<svg version="1.1"
	 id="Layer_1" xmlns:sodipodi="http://sodipodi.sourceforge.net/DTD/sodipodi-0.dtd" xmlns:svg="http://www.w3.org/2000/svg" xmlns:inkscape="http://www.inkscape.org/namespaces/inkscape" inkscape:version="1.1 (c68e22c387, 2021-05-23)" sodipodi:docname="newddb.svg"
	 xmlns="http://www.w3.org/2000/svg" xmlns:xlink="http://www.w3.org/1999/xlink" x="0px" y="0px" viewBox="0 0 1783.6 1646.2"
	 style="enable-background:new 0 0 1783.6 1646.2;" xml:space="preserve">
<style type="text/css">
	.st0{fill:#F8D57E;stroke:#000000;stroke-width:100;stroke-linecap:round;stroke-linejoin:round;}
	.st1{fill:#F8D57E;stroke:#000000;stroke-width:70;stroke-linecap:round;stroke-linejoin:round;}
	.st2{stroke:#000000;stroke-width:4.766;stroke-linecap:round;stroke-linejoin:round;}
</style>
<defs>
	
		<inkscape:path-effect  apply_no_weight="true" apply_with_weight="true" effect="bspline" helper_size="0" id="path-effect33552" is_visible="true" lpeversion="1" only_selected="false" steps="2" weight="33.333333">
		</inkscape:path-effect>
	
		<inkscape:path-effect  apply_no_weight="true" apply_with_weight="true" effect="bspline" helper_size="0" id="path-effect32473" is_visible="true" lpeversion="1" only_selected="false" steps="2" weight="33.333333">
		</inkscape:path-effect>
</defs>
<sodipodi:namedview  bordercolor="#666666" borderopacity="1.0" id="namedview292" inkscape:current-layer="Layer_1" inkscape:cx="-165.625" inkscape:cy="1018.75" inkscape:pagecheckerboard="0" inkscape:pageopacity="0.0" inkscape:pageshadow="2" inkscape:window-height="2066" inkscape:window-maximized="1" inkscape:window-width="3840" inkscape:window-x="2869" inkscape:window-y="-11" inkscape:zoom="0.32" pagecolor="#ffffff" showgrid="false">
	</sodipodi:namedview>
<path id="path8839" sodipodi:nodetypes="cccssssssccsssssssscc" class="st0" d="M993.1,728c60.2,65.5,126.9,107.5,220.5,116.7
	c31.1,5.6,79.8,1.3,111.3,3.9 M201.1,836.9c12.3,88.4-33.8,166.7-69.2,250.3c-62.4,147.1-41.8,240.2,21.2,343.8
	c56.5,93,186.8,109.1,265.5,121.4c309,48.3,626.3,37.8,934.3-14.4c97.7-14.2,197.6-46.7,251.3-138
	c72.8-120.2,106.1-259.6,118.2-397.8c4.6-126.4-42.7-254-125.1-349.3c-57.3,12.6-87.5,123.2-152.9,161.5
	c-37.4,21.8-75.8,31.5-119.4,34.2 M909.5,1010.7c-14.7-77-27.3-169.3,39.1-226.6c98.7-105,94.9-272.3,22.7-390.7
	c-42.7-81.9-123.4-191.9-210.4-239.3c-74.6-40.6-105.1-93.8-191.2-91.8c-75.2,1.8-107.7,32.3-162.8,72.4
	c-127.2,77.7-253.6,180.9-292.5,327.4c-39.3,125.8-9.5,283.8,86.8,374.8"/>
<path id="path34404" sodipodi:nodetypes="csc" class="st1" d="M1120.2,1000c-150.7,162.7-40.9,400.3,140.1,414.8
	c233.7,18.7,355.2-89.1,424.1-238"/>
<path id="path39644" class="st2" d="M298.6,769.5c145.2,111.3,384.2,101.1,493.7-7.8c13.4-13.3,44.5-56.1,29.8-44.3
	c-33.3,26.5-84.1,33.5-126.4,34.3c-57,1-104.6-44.4-161.6-45.2c-61.3-0.9-106.9,47.6-168.1,44c-34.5-2-78.9-16.8-97.2-32.1
	C252.6,705,262,741.5,298.6,769.5L298.6,769.5z M318.7,635.1c-54.5,15.2-107.4,100.1,12.5,136.6c40.9,12.4,92.2-8.1,131-26.1
	c47.1-21.9,100.7-25.3,144.8-1c29.8,16.4,62.9,30.9,108.9,30.1c80.6-1.4,170.6-81.1,69-131.4c-24.5-12.1-49.9-9.2-103.2-26.1
	c-106.4-52.9-171.9-49.5-258,1.3C393.5,636.3,363.3,622.7,318.7,635.1L318.7,635.1z"/>
<ellipse id="path40859" cx="372.5" cy="425.1" rx="76.8" ry="134.3"/>
<ellipse id="ellipse40941" cx="756.6" cy="425.1" rx="76.8" ry="134.3"/>
<circle class="st0" cx="1003.5" cy="804.5" r="5.4"/>
</svg>
