<?xml version="1.0" encoding="utf-8"?>
<svg version="1.1" id="Layer_1" x="0px" y="0px" viewBox="0 0 1783.6 1646.2" style="enable-background:new 0 0 1783.6 1646.2;" xmlns="http://www.w3.org/2000/svg">
  <style type="text/css">
	.st0{fill:#4B3B14;}
	.st1{fill:#4C3C14;}
	.st2{fill:#4F3E15;}
	.st3{fill:#4D3C14;}
	.st4{fill:#FED46F;}
	.st5{fill:#ECA23B;}
	.st6{fill:#EDA43D;}
	.st7{fill:#4D3D15;}
	.st8{fill:#5F2B10;}
	.st9{fill:#21120E;}
	.st10{fill:#50401A;}
	.st11{fill:#ECA33C;}
	.st12{fill:#FCCE69;}
	.st13{fill:#FAC661;}
	.st14{fill:#EEA942;}
	.st15{fill:#EDA53E;}
	.st16{fill:#FDCE69;}
	.st17{fill:#EEA842;}
	.st18{fill:#FBCB66;}
	.st19{fill:#4D3C13;}
	.st20{fill:#F7C05B;}
	.st21{fill:#F5BB55;}
	.st22{fill:#F2B34D;}
	.st23{fill:#FAC863;}
	.st24{fill:#F9C660;}
	.st25{fill:#FCCC67;}
	.st26{fill:#F3B650;}
	.st27{fill:#F8C45E;}
	.st28{fill:#FCCD68;}
	.st29{fill:#FCCE68;}
	.st30{fill:#4D3D14;}
	.st31{fill:#FBCB65;}
	.st32{fill:#F3B54E;}
	.st33{fill:#F1B049;}
	.st34{fill:#F7C05A;}
	.st35{fill:#F5BA54;}
	.st36{fill:#F8C15B;}
	.st37{fill:#F6C15B;}
	.st38{fill:#F6BD57;}
	.st39{fill:#F0AC46;}
	.st40{fill:#FBCA65;}
	.st41{fill:#F7BE58;}
	.st42{fill:#F4B852;}
	.st43{fill:#F4B751;}
	.st44{fill:#F9C964;}
	.st45{fill:#EFAB44;}
	.st46{fill:#F2B44D;}
	.st47{fill:#ECA943;}
	.st48{fill:#F9C661;}
	.st49{fill:#322517;}
	.st50{fill:#4A310E;}
	.st51{fill:#4D3813;}
	.st52{fill:#EEA740;}
	.st53{fill:#F7BF59;}
	.st54{fill:#EEA741;}
	.st55{fill:#F2B24C;}
	.st56{fill:#EFAA44;}
	.st57{fill:#FAC964;}
	.st58{fill:#F7C15B;}
	.st59{fill:#EEA841;}
	.st60{fill:#F3B54F;}
	.st61{fill:#F3B751;}
	.st62{fill:#FF9050;}
	.st63{fill:#C46F3B;}
	.st64{fill:#225E82;}
	.st65{fill:#F6FBFF;}
	.st66{fill:#F4FAFE;}
	.st67{fill:#9BA5A6;}
	.st68{fill:#F3F9FE;}
	.st69{fill:#FFD570;}
	.st70{fill:#F0AE47;}
	.st71{fill:#F9C761;}
	.st72{fill:#4C3612;}
	.st73{fill:#F2B44E;}
	.st74{fill:#F1AF48;}
	.st75{fill:#F3B44E;}
	.st76{fill:#F0AD47;}
	.st77{fill:#EAA13C;}
	.st78{fill:#EFAB45;}
	.st79{fill:#F1AF49;}
	.st80{fill:#5F2A10;}
	.st81{fill:#EB6D2A;}
	.st82{fill:#F57E3D;}
	.st83{fill:#FC8A4A;}
	.st84{fill:#F17735;}
	.st85{fill:#FB8948;}
	.st86{fill:#FB8848;}
	.st87{fill:#FA8646;}
	.st88{fill:#F78241;}
	.st89{fill:#F88443;}
	.st90{fill:#F27937;}
	.st91{fill:#F98746;}
	.st92{fill:#ED7537;}
	.st93{fill:#F78341;}
	.st94{fill:#EF7532;}
	.st95{fill:#F37C3A;}
	.st96{fill:#EE7230;}
</style>
  <path id="path8" class="st0" d="M115.2,413.9c0-0.3,0-0.7,0-1c0.4-0.4,0.7-0.7,1-1c0-0.3,0-0.7,0-1c0.7-0.6,0.4-1.5,1-2.1l0,0 c0.7-0.6,0.4-1.5,1-2.1c0-0.4,0-0.7,0-1c0.4-0.3,0.7-0.8,1-1c0-0.3,0-0.7,0-1c0.4-0.4,0.7-0.7,1-1c0-0.3,0-0.7,0-1 c0.7-0.6,0.4-1.5,1-2.1l0,0c0.7-0.6,0.4-1.5,1-2.1c0.1-0.4,0.2-0.8,0.3-1.1c0.4-0.3,0.7-0.7,1-1c0-0.3,0-0.7,0-1 c0.7-0.6,0.4-1.5,1-2.1l0,0c0.7-0.6,0.4-1.5,1-2.1c0-0.3,0-0.7,0-1c0.6-0.6,0.4-1.5,1-2.1l0,0c5.9-4.8,9.3-11.2,12.4-18 c10.4-21.8,23.3-42.1,36.8-61.9c7.4-10.9,16.3-20.8,25.2-30.7c16.6-18.6,32.3-38,50.4-55.2c14.9-14.4,30.8-27.9,47.3-40.5 c19.8-14.6,39.7-29,59.9-43c10.5-7.2,21.8-13.1,32.3-20.2c12.1-8.2,24.9-15.1,37-23.6c9.2-6.5,19.2-12.1,29.1-17.7 c13.9-8,27-17,41.1-24.5c11.7-6.2,23.8-8.2,36.5-9.9c7.5-1,15.1,0.8,22.4-1.5h10.4c5.4,2.4,11.1,1,16.7,1.2 c10.1,0.5,19.5,3.3,28.7,7l0,0c0.4,0.4,0.7,0.7,1,1l0,0c0.3,0.4,0.7,0.8,1,1c0.3,0,0.7,0,1,0c0.3,0.4,0.8,0.7,1,1c0.4,0,0.7,0,1,0 c0.4,0.4,0.7,0.7,1,1c2.5,0,4.7,1,6.8,2c18.2,8.2,35.3,18.5,50.9,30.9c16.9,13.7,34.3,26.8,51.5,40.1c17.2,13.3,35.2,25.7,52.3,39 c13.4,10.5,27,20.5,40.5,30.8c12.2,9.2,23.9,18.9,35.6,28.6c10,8.2,18.7,17.7,27.8,26.7c6.4,6.3,12.9,12.4,18.9,19 c11.6,12.7,23.2,25.3,34,38.6c9,11.1,17,22.8,25.2,34.5c1.6,2.3,2.9,4.7,4.1,7.1c-4.3,1.6-5.4-2.2-6.8-4.5 c-8.2-12.5-18.5-23.6-30.7-32.3c-1-0.8-2-1.4-2.9-2c-2.5-1.4-5-2.7-7.6-0.4s-1.5,5-0.4,7.6s2.9,5,4.1,7.7c1,2,1.8,4.1,2.5,6.3 c0.4,1.3,0.8,2.8-1.1,3.4c-0.5,0-1-0.1-1.3-0.3c-0.4-0.2-0.8-0.5-1.1-0.8l-0.5-0.5c-0.3-0.3-0.6-0.6-0.9-1c-0.3-0.3-0.5-0.7-0.8-1 c-0.5-0.9-1.1-1.6-1.8-2.4c-0.3-0.3-0.6-0.6-0.8-0.9c-0.3-0.3-0.6-0.6-0.8-0.9c-0.1-0.1-0.3-0.3-0.4-0.5c-0.3-0.3-0.6-0.6-0.8-0.9 c-0.3-0.3-0.5-0.7-0.7-1c-0.5-0.9-1.1-1.6-1.8-2.3c-0.3-0.3-0.6-0.6-0.9-0.9c-0.3-0.3-0.6-0.6-0.8-1c-0.3-0.3-0.5-0.6-0.7-1 c-0.5-0.9-1.1-1.6-1.8-2.3c-0.3-0.3-0.6-0.6-0.8-0.9c-0.3-0.3-0.6-0.6-0.8-0.9c-0.1-0.1-0.3-0.3-0.4-0.5c-0.3-0.3-0.6-0.7-0.8-0.9 c-0.3-0.3-0.5-0.7-0.8-1c-0.9-1.2-1.9-2.3-3.2-2.9c-8.9-7.4-16-16.6-23.9-24.9c-14.2-14.7-28.6-29.2-44.3-42.4 c-35.1-29.5-72.3-56-108.9-83.3c-21.5-16.1-42.8-32.3-63.6-49.3c-14.3-11.7-29.9-21.5-46.6-29.3c-0.8-0.5-1.3-1.1-2.1-1.6 c-0.4-0.2-0.7-0.4-1-0.6c-0.6-0.2-1-0.5-1.6-0.7c-0.4-0.1-0.8-0.2-1-0.4c-0.7-0.3-1.4-0.5-2.1-0.8c-0.4-0.1-0.7-0.2-1-0.4 c-0.7-0.3-1.4-0.5-2.1-0.7c-0.4-0.1-0.8-0.2-1-0.4c-0.8-0.3-1.5-0.5-2.2-0.7c-0.4-0.1-0.8-0.2-1.1-0.3c-0.8-0.3-1.6-0.4-2.4-0.6 c-0.4-0.1-0.8-0.2-1.2-0.4c-0.8-0.3-1.5-0.5-2.3-0.8c-0.4-0.1-0.8-0.2-1.1-0.4c-1-0.3-2-0.5-2.9-0.7c-0.4-0.1-0.9-0.2-1.2-0.3 c-1.7-0.6-3.5-0.3-5.2-0.7c-0.5-0.1-1-0.2-1.4-0.3c-3.4-0.9-6.9-0.1-10.4-0.6c-0.5-0.1-1-0.2-1.5-0.3c-3.2-1.1-6.6-0.3-9.8-0.8 c-0.5-0.1-1-0.2-1.5-0.3c-2.9-1-6-0.3-8.9-0.8c-0.5-0.1-1-0.2-1.5-0.3c-3.2-1.1-6.6-0.3-9.8-0.8c-0.5-0.1-1-0.2-1.5-0.3 c-3.9-0.9-7.9-0.9-11.8-0.2c-0.5,0.2-1,0.3-1.5,0.3c-1.2,0.2-2.6,0.1-3.8-0.2c-5.2-2.2-9.8-0.2-14.2,2.3c-8.6,4.6-16.1,10.6-24,15.9 c-16.9,11.1-34.6,21.2-51.9,31.8c-14.3,8.7-29.4,16.6-43,26.3c-23.2,16.5-47.9,31.1-69.6,49.5c-17.2,14.5-35.5,27.6-51.8,43.2 c-10.1,9.6-19.5,19.9-27.3,31.5c-0.5,0.6-1,1.1-1.6,1.5c-4.7,2.6-8.6,6.3-11.4,10.8c-4.6,6.9-10.2,12.9-15.7,19 c-6.6,7.3-11.2,16-17.3,23.7c-14.2,18.1-25.8,38.1-34.7,59.4c-1.2,2.9-2.7,5.7,0,8.6c0.7,4.1-1.3,7.7-2.8,11.3 c-2.9,7.6-5.8,15.3-11.3,21.5c-1.8,0.1-3.6-0.6-5.3,0.4c-3.1,1.6-6.5,3.1-9.3,5.3c-3.2,2.5-7.1,1.6-11.2,2.3 c1.6,2.7,3.5,2.9,5.8,2.8c1.8-0.2,3.8-1.1,5.1,0.9c0.7,2.9-0.6,5.4-1.3,8c-1.8,6.4-3.3,12.8-4.7,19.3c-0.5,2.3-0.7,4.8-3.7,5.5 c-1.3-1-1.4-2.4-1.2-3.7c0.8-4.2-0.2-8.1-1.3-12.1c0.1-0.5,0.3-1,0.6-1.3c-0.2,0.3-0.4,0.6-0.6,0.9c-8.6,7.6-9.7,18.1-10.9,28.5 c-0.1,1.1-0.3,2.6,1,3.1c1.4,0.6,2.2-0.6,3-1.4c1.4-1.6,1.8-3.7,2.7-5.5c1-2,2-4.3,4.9-2.3c0.7,1.4,0.7,3.1-0.1,4.5 c-5.6,12.4-8.1,25.5-10.9,38.5c-0.7,2.9-1,6.2-3.5,8.4c-2.9,0.5-2.4-1.8-2.4-3.3c0-2.1,0.8-4.1,0.8-6.1c0-1.6-0.3-3.2-2.1-3.6 c-1.8-0.4-3,0.9-3.3,2.6c-1.2,5.7-4.4,10.7-5,16.7c-1.2,11.4-3.8,22.5-4.6,33.8c-0.9,12.1-2.3,24.2-1.9,36.4c0.2,2.6,0,5.1-0.6,7.7 c-0.5,2.1-0.8,4.2,0.2,6.1c3,5.7,2.8,12,3.7,18c0.2,1.9,0.6,3.7,1.2,5.5c2.5,5.2,3.2,10.7,3.4,16.4c0.1,4.9,2.9,9.1,4.5,13.6 c1.7,4.5,3,9.1,4.2,13.8c0.6,2.4,0.9,4.7,3.5,5.8c1.5,0.7,1.4,2.2,1.2,3.6c-0.2,1.1-1,2.8-0.3,3.5c5.5,6.1,1.9,15.1,7,21.3 c0.5,0.5-0.1-0.1,0.3,0.5c1,1.6,2.1,3.6,4.4,2.5c2.1-1,1.7-3,1-4.9c-1.1-3.1-3.4-6.1-1.7-9.8c3.2-0.9,3.6,1.9,4.5,3.6 c4.3,7.8,7.1,16.2,11.5,24c2,3.6,3.9,7.2,6.7,10.3c1.4,1.6,2.9,3.5,1.9,6c-1.6,1.2-3,0.4-4.1-0.7c-3.9-3.8-8.5-7.1-9.6-12.9 c-0.6-2.4-1.7-4.6-3.1-6.5c-0.7-1-1.8-1.8-3-1.1c-1.5,0.9-1,2.1-0.2,3c2.3,2.7,2.8,6.7,6.6,8.3c1.4,0.6,1.4,2.2,1.7,3.5 c1.7,6.9,4.1,13.5,10,18.1c1.8,1.4,2.7,3.6,3.6,5.6c3.6,7.3,10.8,11.9,14.3,19.3c0.7,1.3,1.9,2.1,3.4,1c1.4-0.8,1.9-2.6,1.1-4 c0,0,0,0,0-0.1c-1-2.4-3.4-4.6-1.7-7.6c2.9-1,4.3,1,5.3,2.8c7.8,13.2,17,25.3,26.6,37.2c0.6,0.7,0.7,1.6,0.2,2.4 c-6.6,2.4-6.6,2.4-6,10c0.1,1.7,0.5,3.4-1.2,4.6c-1.8-0.1-2.8-1.3-3.6-2.7c-8-11.4-18.1-21.1-26.4-32.3 c-16.1-21.7-33.6-42.3-45.3-66.8c-6.2-12.7-12.3-25.7-15.4-39.8c-1.7-7.6-4.6-14.7-6.8-22.1c-4.3-14-7.1-28.3-8.6-42.9 c-1.2-12.2-3.3-24.5-0.4-37c1.8-7.4-0.3-15,0.4-22.6c3.6-39.8,14.1-78,27.4-115.5c2.7-7.5,5.8-15,4.5-23.3c0-0.4,0-0.7,0-1 c0.4-0.3,0.7-0.8,1-1c0-0.3,0-0.7,0-0.9c0.7-0.6,0.4-1.5,1-2.1l0.1-1l1-1c0-0.3,0-0.7,0-1c0.4-0.4,0.7-0.7,1-1c0-0.3,0-0.7,0-0.9 c0.7-0.6,0.4-1.5,1-2.1l0,0C114.8,415.4,114.6,414.4,115.2,413.9z" style=""/>
  <path id="path12" class="st0" d="M556.8,40.3c-1.8,2.1-4.2,2.1-6.7,2.1c-13.4-0.1-26.6,2-39.6,5.1c-1.1,0.2-2.3,0.6-3.4,1.1 c-10.2,6.1-21.3,10.5-30.9,17.5c-7.8,5.7-16.7,9.4-24.6,15c-7,5-15,8.4-22,13.2c-5.9,4.1-11.6,8.6-17.9,12 c-7.8,4.2-14.6,9.5-22.2,13.8c-6.6,3.7-12.3,8.8-19.1,12.2c-9.8,4.8-18.1,11.8-26.9,17.9c-7.8,5.3-14.9,11.5-22.9,16.4 c-8.7,5.5-16.6,12.2-24.7,18.4c-9.7,7.5-20.1,14.3-28.5,23.5c-5.1,5.6-11.2,10.2-16.5,15.4c-8.5,8.3-16.2,17.3-24.4,25.7 c-4.5,4.7-8.3,10-12.4,15c-1.4,1.7-2.9,3.3-4.6,4.9c-5.7,5.5-11,11.3-15.2,18.1c-3.5,5.8-8.7,10.1-13.1,15.1 c-4.2,4.8-7.4,10.4-10.7,15.7c-3.9,6.3-7.9,12.4-12.3,18.3c-2.6,3.5-4.7,7.2-6.3,11.2c-4.6,10.7-11.8,20.1-15.8,31.2 c-1.5,4.2-5.6,6.3-9.5,8c1.7-4.1,3.3-8.3,5.1-12.4c8.7-19.4,19.2-38,31.1-55.7c8.8-13.1,18.5-25.5,28.5-37.7 c8.3-10.1,16.8-19.9,25.5-29.5c6.7-7.6,13.7-14.9,20.4-22.4c12.9-14.5,27.7-26.9,42.9-39c11.3-8.9,22.3-18.2,34-26.6 c8.6-6.2,17.2-12.5,25.9-18.5c13.8-9.4,27.6-18.6,41.5-27.6c9.5-6.2,19.3-11.8,29-17.7c8.7-5.3,17.3-11.1,26.2-16.2 c13.2-7.7,26.2-15.7,39-24c4.8-3.2,9.3-7,14.3-10.1c4.8-2.9,10-5.4,15.3-7.2c1.8-0.6,3.7-0.8,5.1-2.2L556.8,40.3z" style=""/>
  <path id="path14" class="st0" d="M612.5,48.6c-4.3,0-8.3-1.6-12.4-2.7c-8.9-2.2-18-3.6-27.2-3.6c-2.2,0-4.6,0.5-5.8-2.1H597 c2.7,1.8,5.5,3.1,8.6,4.1C608.3,45.3,610.6,46.7,612.5,48.6z" style=""/>
  <path id="path16" class="st1" d="M183.3,832.9c0.4-2.7-1-4.9-1-7.6c-0.1-6.4,2.3-8.4,8.3-6.9h0.7c0.5,0,1,0.2,1.3,0.4 c1.6,1,3,2.3,4.1,3.8c0.5,0.6,0.9,1.1,1.2,1.6c3,4.1,5.8,8.5,8.3,13c0.4,0.7,0.7,1.3,1,2c0.2,0.5,0.4,0.9,0.6,1.4 c4.5,10.1,7.5,20.7,9,31.6c1.2,6.4,1.9,12.8,2.7,19.2c-1,10.1-1.1,20.2-2.3,30.3c-4,34.5-14.4,67.1-28.6,98.6 c-12.9,28.7-29.9,54.8-47.8,80.6c-20.9,30.4-34.1,64.3-42.2,100.2c-6.2,26.3-8.9,53.3-8.4,80.3c1.1,44.8,10.1,88.1,30.6,128.3 c14.5,28.4,33.6,53.1,59.9,71.8c16.9,12,35.5,21.1,55.3,27.1c60.9,19,123.4,30.7,186.7,38.3c21.7,2.6,43.4,4.5,65.2,5.8 c11.3,0.7,22.7-0.2,33.9,1.8c1.5,0.3,3-0.7,4.6-0.7c8.5,0.5,16.8,0.7,25.2-0.4c4.7-0.5,9.3-0.1,13.8,1c6,1.4,12.2,2.2,18.3,2.2 c11-0.2,21.9,1.2,32.9,1.3c15.8,0,31.5,0.9,47.3,1.2c8.1,0.2,16.1-0.1,24.1,0.2c29.9,1.2,59.9,0.3,89.7,1.3 c25.7,1,51.6,0.1,77.3,0.9c15.9,0.5,31.6,0.2,47.4,0.4c2.4,0.1,4.8-0.1,7.1-0.7c3.4-0.6,6.8-0.8,10.3-0.6 c32.2,0.7,64.3-0.7,96.4-1.2c20.9-0.4,41.9-1,62.8-2c28.8-1.3,57.7-2.4,86.5-4.2c68.8-4.4,137.5-9.3,205.7-19.4 c26-3.9,51.9-9.1,77.3-15.6c19.4-4.9,36.1-14.4,52.2-26.2c43-31.6,77.1-71.3,105.3-116.3c20.2-32.6,36.8-67.4,49.2-103.6 c11.9-33.9,19.9-69.2,23.7-105c0.4-3.9,1.4-7.5,3.8-10.5c2.4-3.2,3.8-6.9,4.3-10.9c4.9-32.5,9.4-65,11.9-97.8 c2.7-34.8,3.8-69.6,4-104.5c0.2-28.5-3.3-56.6-8.2-84.6c-3.3-18.8-7.6-37.4-13-55.8c-9.9-34.2-27.4-63.9-52.1-89.6 c-16-16.6-32.1-33.1-45-52.3c-0.9-1.2-1.5-2.7-3.1-3.6c-6.1,26.9-20.1,49.5-36.7,70.9c-8.2,10.6-15.8,21.8-23.8,32.4 c-25.7,33.3-56.4,60.4-94.5,78.9c-18.4,8.9-37.3,16.7-56.3,24.3c-0.6,0.2-1.3,0.2-1.7,1.1c28.8,9.8,57.5,19.9,87.6,24.8 c1.5,0.2,3,0.7,4.4,1.4c2.8,1.8,2.9,4.2,0.5,6.4c-2,1.7-4.5,2.5-6.9,3.3c-14.7,5.1-29.7,3.8-44.9,2.1c-40.7-4.5-79.8-16-118.9-27.6 c-30.7-9.1-61.2-18.6-90.9-30.4c-22.9-9-45.6-18.4-67.7-29.2c-0.7-0.4-1.3-0.9-2-1.3c-0.5-0.3-0.9-0.7-1.2-1 c-0.4-0.4-0.7-0.9-0.9-1.3c-0.1-0.5-0.1-1,0-1.5c1.6-2.8,4.5-4.3,7.1-5.5c5.7-2.8,9.9-6.7,11.3-12.9c0.2-0.9,0.7-1.6,1.4-2 c8.8,2.9,17,7.2,25.6,10.8c15.5,6.6,31,13.3,46.7,18.9c13.4,4.8,26.8,9.8,40.4,14.1c16.8,5.4,33.8,10.2,50.7,15.3 c2.3,0.7,4.4,1,6.5-0.2c6.7-4.1,14.2-5.9,21.8-7.7c14.2-3.4,27.7-9,41.2-14.6c12.1-4.9,24-10.2,35.7-16.1 c14.5-7.3,27.6-16.5,40.4-26.5c6.9-5.3,13.5-11.2,19.5-17.6c10.4-11.4,20.2-23.3,29.4-35.7c14.6-20.1,29.5-40,43.8-60.3 c6.7-9.6,12.4-19.8,17.6-30.3c0.9-2.2,1.7-4.5,2.2-6.8c1-4.4,3.2-8.4,6.6-11.5c2.9-2.9,5.9-2.8,8.1,0.8c3.3,5.4,8.1,9.4,12.7,13.4 c3.9,3.4,7.6,6.9,11.3,10.5c15.6,15.5,31.2,31.1,46.6,46.7c11.1,11.3,20.2,24.2,28.9,37.4c14.5,22.2,24.5,46.4,31.2,72 c3.5,13.8,7.2,27.6,9.7,41.5c2.3,12.4,4.5,24.9,6.1,37.4c1.4,11,2.2,22.1,3.8,33.2c0.1,1.2,0.1,2.4,0.1,3.6 c0,24.4,0.6,48.8-0.3,73.2c-0.4,9.7,0.1,19.5-1.6,29.2c-0.8,4.6-0.6,9.2-0.9,13.8c-0.4,6-1.1,12-1.3,18c-0.3,7.2-1.1,14.3-1.7,21.5 c-0.6,7.3-1.4,14.6-2.4,21.9c-1.2,8.9-2.7,18-3.8,26.9c-1,9.2-2.7,18.2-4.2,27.4c-1.6,9.7-4.2,19.1-6,28.7c-4,21.4-9.9,42.4-15,63.6 c-5.8,23.4-13.4,46.2-22.8,68.3c-5.8,13.8-11.7,27.5-18.5,40.8c-8.2,15.9-17,31.4-26.7,46.4c-11,17.2-23,33.7-36,49.5 c-11.8,14.3-24.6,27.8-38.2,40.4c-11.8,10.9-24.2,21.3-37.7,30.2c-12.4,8.1-25.2,15.5-39,20.7c-15.7,6-31.4,12-48,15.4 c-13.9,2.8-27.8,5.7-41.9,7.8c-13.3,2.1-26.7,4.1-40.1,6c-7.1,0.9-14.3,1.5-21.4,2.4c-8,0.9-16,1.9-23.9,2.8 c-3.8,0.5-7.5,0.6-11.2,1c-9.1,1.1-18.4,1.2-27.6,2.4c-10.4,1.3-20.8,1.6-31.2,2.8c-6.1,0.7-12.3,0.9-18.4,1.3 c-8.6,0.7-17.1,0.7-25.6,1.9c-0.4,0.1-0.7,0.1-1,0.1c-9.5-0.6-18.9,0.7-28.2,1.4c-8.8,0.7-17.9-0.3-26.6,1.7c-0.4,0.1-0.7,0.1-1,0.1 c-11.5-0.7-23,0.9-34.5,1.2c-11.4,0.4-22.7,0.1-33.9,1c-10,0.9-19.9,0-29.8,0.9c-14.4,1.2-28.9,0.1-43.2,1 c-21.1,1.5-42.3,0-63.4,0.9c-47.9,2-95.9,1-143.8,0.7c-23.8-0.2-47.8,0.1-71.6-1c-14.4-0.7-28.9,0.2-43.2-0.9c-11.9-1-23.8,0-35.5-1 c-10-0.9-20,0-29.8-1c-9.1-1-18.2-0.1-27.3-1c-7.9-0.9-15.9-0.1-23.7-1c-10.5-1.2-21-0.1-31.4-1c-9.3-0.9-18.5-0.3-27.7-0.9 c-10.3-0.8-20.5-1.1-30.8-2.1c-12.3-1-24.4-2.8-36.7-3.9c-15.3-1.5-30.5-3.8-45.8-6.1c-30.5-4.6-60.7-10.4-90.7-17.3 c-20.2-4.8-40.2-10.3-60-16.2c-13.2-4-26-8.7-39-13.5c-4.3-1.5-8.1-3.9-11.4-7c-4.8-4.7-10.3-8.1-15.6-11.8 c-11.5-8.2-22-17.6-31.4-28c-12.9-14.4-24.2-30.3-33.4-47.3c-8.8-16.3-16.2-33.4-21.8-51.1c-5.6-17.1-9.6-34.7-12.1-52.5 c-1.4-10.7-2.3-21.4-3.2-32.2c-0.9-10.6-1-21.3-0.6-31.9c0.5-10.5,1.3-21.2,2.7-31.7c1.9-15.7,4.8-31.2,8.6-46.5 c4.7-18.5,10.8-36.6,18.5-54c4.1-9.4,8.7-18.7,13.8-27.6c2.9-4.8,4.4-10.5,8-14.9c12.4-15.6,23.6-32.1,33.4-49.4 c9.3-16.2,17.5-33.2,24.2-50.6c6.6-16.8,11.7-34.1,15.1-51.8c2-10.1,3.3-20.3,3.8-30.6c0.2-5.8,1.2-11.7,0.8-17.5 c-1.1-14.3-0.6-28.8-3.1-43c-0.3-1.5-0.7-3-0.9-4.5C183.2,838.5,180.9,836,183.3,832.9z" style=""/>
  <path id="path18" class="st0" d="M970.6,357.2c4.2,5.4,7.1,11.7,10.4,17.8c13.7,25.5,24.7,52.2,33,79.9c5.2,17.6,9.5,35.4,12.5,53.5 c1.9,10.8,3.5,21.7,4.7,32.5c0.7,5.9,1,12,1.4,18c1,13.7,1.2,27.5,0.7,41.1c-0.4,8-0.7,16.1-1.5,24c-0.8,6.9-1.3,14-2.3,20.9 c-1.3,9.7-2.9,19.3-4.9,28.8c-2.6,12.6-5.9,25.1-10,37.2c-1,2.8-0.7,4.8,1.9,6.7c3.4,2.5,6.7,5.3,9.9,8.1c-0.3,1.8-1.5,2.7-3,3.1 c-7.6-0.4-11.8-3.8-13.6-11.1c-0.9-3.5-10.1-11.2-13.8-11.5c-3.2-0.3-5.3,1.8-4.7,5.1c1.6,7.9,6.7,13.9,11.5,19.9 c0.6,0.7,1.4,1,2.3,1c5.8,0.6,6.5,1.5,4.9,7.3c-0.3,0.4-0.6,0.8-0.9,1c-0.6,0.4-1.2,0.5-1.9,0.4c-0.6-0.1-1.1-0.3-1.7-0.5 c-0.6-0.1-1,0.1-1.5,0.5c-0.7,1-1.2,2.2-1.5,3.4c-0.3,0.9-0.7,1.7-1,2.5c-0.5,1-0.8,2.2-1.3,3.2c-1,2-2.6,3.6-4.5,4.9 c-6.7,4.4-8.1,4-11.4-3.1c-2-4.4-5.8-5.4-9-2c-5.9,6.3-9.9,14-14.2,21.4c-1.2,2.1-0.4,4.4,1,6.3c2.7,3.7,2.1,6.3-1.1,9.8 c-30.9,32.7-63.5,64-87.9,102c-8,12.5-17.6,24.1-28.4,34.3c-10.4,9.8-20,20.2-29,31.4c-1.2,1.5-2.3,4.1-5.2,2.7 c-0.2-0.4-0.4-0.9-0.4-1.3c0.1-0.7,0.2-1.3,0.5-1.9c0.1-0.4,0.3-0.8,0.5-1.1c0.2-0.6,0.5-1.1,0.7-1.6c0.1-0.4,0.3-0.8,0.5-1 c0.2-0.5,0.5-1,0.8-1.5c0.1-0.4,0.3-0.7,0.5-1c0.2-0.3,0.3-0.7,0.5-1c0.2-0.3,0.3-0.7,0.5-1c0.2-0.3,0.3-0.7,0.5-1s0.3-0.7,0.5-1 c0.2-0.4,0.3-0.7,0.5-1c0.2-0.3,0.4-0.7,0.5-1c0.3-0.6,0.5-1,0.8-1.5c0.2-0.4,0.4-0.7,0.6-1c0.5-0.7,0.8-1.3,1-2.1 c0.2-0.4,0.3-0.7,0.5-1c0.2-0.3,0.4-0.7,0.7-1c0.1-0.2,0.2-0.3,0.3-0.5c0.3-0.5,0.6-0.9,0.9-1.3c0.3-0.5,0.3-0.7,0.5-0.9 c0.2-0.3,0.3-0.7,0.5-1c0.2-0.3,0.4-0.7,0.6-1c0.2-0.3,0.4-0.6,0.7-0.9c0.1-0.2,0.2-0.3,0.3-0.5c0.2-0.3,0.4-0.6,0.6-1 c0.2-0.3,0.4-0.7,0.5-1c0.3-0.5,0.5-1,0.8-1.5c0.2-0.3,0.4-0.7,0.6-1c0.3-0.5,0.7-1,1-1.4c0.2-0.3,0.4-0.7,0.6-0.9 c0.3-0.5,0.6-1,0.9-1.4c0.2-0.3,0.4-0.7,0.6-1c0.2-0.3,0.4-0.6,0.6-0.9c0.2-0.3,0.2-0.3,0.3-0.5c0.2-0.3,0.4-0.7,0.6-1 c0.2-0.3,0.3-0.7,0.5-1c0.2-0.3,0.3-0.7,0.5-0.9c0.2-0.3,0.4-0.7,0.6-1c0.2-0.3,0.4-0.6,0.7-0.9c0.2-0.3,0.2-0.3,0.3-0.5 c0.3-0.5,0.6-1,0.9-1.4c0.2-0.3,0.4-0.7,0.6-1c0.5-0.7,0.9-1.3,1.2-2c0.2-0.4,0.4-0.7,0.7-1c0.5-0.7,1-1.3,1.3-2.1 c0.2-0.4,0.5-0.7,0.8-1c0.9-1,1.6-1.9,2.3-3c0.2-0.4,0.5-0.7,0.8-1c0.9-1,1.6-1.9,2.3-3c0.2-0.4,0.5-0.7,0.8-1 c0.9-0.9,1.6-1.9,2.3-2.9c0.2-0.4,0.5-0.7,0.7-1c0.5-0.7,1-1.2,1.4-2c0.2-0.3,0.5-0.7,0.7-1s0.5-0.7,0.8-1c0.1-0.2,0.3-0.3,0.4-0.5 c0.5-0.6,1-1.2,1.4-1.9c0.2-0.4,0.5-0.7,0.8-1c0.3-0.4,0.5-0.7,0.8-1c0.1-0.2,0.3-0.3,0.4-0.5c0.8-0.8,1.4-1.6,2-2.5 c0.2-0.4,0.5-0.8,0.8-1c0.3-0.4,0.6-0.7,0.9-1l0.5-0.5c1-1,2.1-2.1,2.9-3.2c0.2-0.3,0.5-0.7,0.7-1c0.3-0.3,0.5-0.6,0.8-0.9l0.4-0.4 c0.3-0.3,0.5-0.6,0.8-0.8l0.4-0.4c0.3-0.3,0.5-0.6,0.8-0.9c0.3-0.3,0.3-0.3,0.4-0.4c0.3-0.3,0.6-0.6,0.8-0.9 c0.3-0.3,0.3-0.3,0.4-0.5c0.3-0.3,0.6-0.7,0.9-1c0.2-0.2,0.3-0.3,0.5-0.5c1.6-1.5,3.1-3.1,4.5-4.8c0.2-0.4,0.5-0.7,0.7-1 c0.3-0.3,0.5-0.6,0.8-0.9l0.4-0.4c0.3-0.3,0.6-0.6,0.9-0.8c0.1-0.1,0.3-0.3,0.4-0.4c0.3-0.3,0.5-0.6,0.8-0.8 c0.1-0.1,0.3-0.3,0.4-0.4c0.1-0.1,0.5-0.6,0.8-0.8c0.1-0.1,0.3-0.3,0.4-0.4c0.3-0.3,0.5-0.6,0.8-0.9c0.3-0.3,0.3-0.3,0.4-0.5 c0.3-0.3,0.6-0.7,0.9-1l0.5-0.5c2.6-2.6,5.2-5,7.5-7.8c0.2-0.4,0.5-0.8,0.7-1c0.3-0.4,0.5-0.7,0.8-1l0.4-0.4 c0.3-0.3,0.6-0.6,0.9-0.8l0.4-0.4c0.3-0.3,0.5-0.5,0.8-0.8c0.3-0.3,0.3-0.2,0.4-0.4c0.1-0.1,0.5-0.5,0.8-0.8l0.4-0.4 c0.2-0.3,0.5-0.6,0.8-0.8l0.4-0.4c0.3-0.3,0.5-0.6,0.8-0.9c0.3-0.3,0.3-0.3,0.4-0.5c0.3-0.3,0.6-0.7,0.9-1c0.1-0.2,0.3-0.3,0.5-0.5 c2.6-2.6,5.2-5,7.5-7.8c0.2-0.4,0.5-0.8,0.7-1c0.3-0.4,0.5-0.7,0.8-1l0.4-0.4c0.3-0.3,0.6-0.6,0.8-0.8c0.1-0.1,0.3-0.3,0.4-0.4 c0.1-0.1,0.5-0.5,0.8-0.8c0.1-0.1,0.3-0.2,0.4-0.4c0.1-0.1,0.5-0.5,0.8-0.7l0.4-0.4c0.2-0.3,0.5-0.5,0.7-0.7c0,0,0.4-0.3,0.4-0.4 c0.2-0.3,0.5-0.5,0.7-0.7c0,0,0.4-0.3,0.4-0.4c0.2-0.3,0.5-0.5,0.7-0.7l0.4-0.4c0.2-0.3,0.5-0.5,0.7-0.7l0.4-0.4 c0.2-0.3,0.5-0.5,0.7-0.7c0,0,0.4-0.3,0.4-0.4c0.2-0.3,0.5-0.5,0.7-0.7c0,0,0.4-0.3,0.4-0.4c0.2-0.3,0.5-0.5,0.7-0.7 c0,0,0.4-0.3,0.4-0.4c0.2-0.3,0.5-0.5,0.7-0.7c0,0,0.4-0.3,0.4-0.4c0.2-0.3,0.5-0.5,0.7-0.7c0,0,0.4-0.3,0.4-0.4 c0.2-0.3,0.5-0.5,0.7-0.7c0,0,0.4-0.3,0.4-0.4c0.2-0.3,0.5-0.5,0.7-0.7c0,0,0.4-0.3,0.4-0.4c0.2-0.3,0.5-0.5,0.7-0.7 c0,0,0.4-0.3,0.4-0.4c0.2-0.3,0.5-0.5,0.7-0.7c0,0,0.4-0.3,0.4-0.4c0.2-0.3,0.5-0.5,0.7-0.7l0.4-0.4c0.2-0.3,0.5-0.5,0.7-0.8 l0.4-0.4c0.2-0.3,0.5-0.5,0.8-0.8l0.4-0.4c0.3-0.3,0.5-0.6,0.8-0.9c0.3-0.3,0.3-0.3,0.4-0.5c0.3-0.3,0.6-0.7,0.9-1 c0.1-0.2,0.3-0.3,0.5-0.5c1.6-1.5,3-3.1,4.5-4.8c0.2-0.4,0.5-0.7,0.7-1c0.3-0.3,0.5-0.7,0.8-1l0.4-0.4c0.3-0.3,0.6-0.6,0.9-0.9 c0.1-0.1,0.3-0.3,0.4-0.4c0.3-0.3,0.6-0.6,0.8-0.9c0.1-0.1,0.3-0.3,0.4-0.4c0.3-0.3,0.6-0.6,0.8-0.9c0.3-0.3,0.3-0.3,0.4-0.5 c0.3-0.3,0.6-0.6,0.9-1c0.1-0.2,0.3-0.3,0.4-0.5c1-1,2-2.1,2.8-3.3c0.2-0.4,0.4-0.7,0.7-1c0.5-0.7,1-1.2,1.4-1.9 c0.2-0.3,0.4-0.7,0.7-1c0.2-0.3,0.5-0.6,0.7-0.9c0.1-0.1,0.2-0.3,0.3-0.4c0.3-0.4,0.6-0.9,0.9-1.3c0.2-0.3,0.4-0.6,0.6-0.9 c0.2-0.3,0.4-0.6,0.6-0.9c0.2-0.3,0.2-0.3,0.3-0.5c0.2-0.3,0.4-0.6,0.6-1c0.2-0.3,0.4-0.6,0.6-0.9c0.2-0.3,0.4-0.6,0.7-1 c0.3-0.4,0.2-0.3,0.3-0.5c0.3-0.5,0.7-1,1-1.4c0.3-0.3,0.6-0.6,1-0.9c1-0.5,1.6-1.5,1.6-2.7c0-0.4,0.1-0.9,0.2-1.2 c0.2-0.6,0.4-1.1,0.7-1.6c0.2-0.3,0.4-0.7,0.6-1s0.4-0.6,0.7-0.9l0.3-0.4c0.3-0.5,0.6-0.9,0.8-1.3c0.1-0.3,0.3-0.7,0.4-1 c0.2-0.5,0.4-1,0.5-1.5c0.1-0.4,0.3-0.7,0.4-1c0.2-0.5,0.5-1,0.7-1.5c0.1-0.4,0.3-0.7,0.5-1s0.3-0.7,0.5-1c0.2-0.3,0.3-0.7,0.5-1 c0.2-0.3,0.3-0.7,0.5-1c0.2-0.3,0.4-0.6,0.6-0.9c0.2-0.3,0.4-0.6,0.7-0.9c0.1-0.1,0.2-0.3,0.3-0.4c0.3-0.5,0.6-0.9,0.8-1.3 c0.2-0.3,0.4-0.6,0.6-0.9c0.2-0.3,0.5-0.6,0.7-0.9c0.1-0.1,0.3-0.3,0.4-0.4c0.4-0.4,0.8-0.8,1-1.1c0.2-0.3,0.5-0.6,0.7-0.9 c0.2-0.3,0.4-0.6,0.6-1c0.2-0.3,0.4-0.7,0.6-1c0.2-0.4,0.3-0.7,0.5-1s0.3-0.7,0.5-1c0.2-0.3,0.3-0.7,0.5-1c0.2-0.4,0.3-0.7,0.5-1 c0.2-0.4,0.3-0.7,0.5-1c0.2-0.4,0.4-0.7,0.5-1c0.1-0.4,0.3-0.7,0.5-1c0.2-0.3,0.3-0.7,0.5-1c0.2-0.3,0.3-0.7,0.5-1 c0.2-0.4,0.3-0.7,0.5-0.9c0.2-0.3,0.3-0.7,0.5-1c0.2-0.3,0.3-0.7,0.5-1c0.2-0.5,0.5-1,0.7-1.4c0.1-0.4,0.3-0.7,0.4-1 c0.2-0.5,0.4-1,0.6-1.5c0.1-0.4,0.3-0.7,0.4-1c0.2-0.5,0.5-1,0.7-1.5c0.1-0.4,0.3-0.7,0.4-1c0.2-0.6,0.4-1,0.6-1.6 c0.1-0.4,0.3-0.7,0.4-1c0.2-0.5,0.5-1,0.7-1.5c0.1-0.4,0.3-0.7,0.4-1c0.2-0.6,0.4-1,0.6-1.6c0.1-0.4,0.3-0.7,0.4-1 c0.2-0.6,0.5-1,0.7-1.5c0.1-0.4,0.3-0.8,0.4-1c0.2-0.6,0.4-1.1,0.6-1.7c0.1-0.4,0.2-0.8,0.4-1.1c0.2-0.6,0.4-1.1,0.6-1.6 c0.1-0.4,0.3-0.8,0.4-1c0.2-0.5,0.5-1,0.8-1.5c0.1-0.4,0.3-0.7,0.5-1c0.3-0.8,0.5-1.4,0.7-2.2c0.1-0.4,0.2-0.8,0.3-1.1 c0.3-1,0.3-2.1,0.6-3c0.1-0.4,0.2-0.9,0.4-1.2c0.2-0.6,0.5-1.2,0.7-1.8c0.1-0.5,0.3-0.9,0.4-1.2c0.4-1.1,0.1-2.4,0.4-3.6 c4.5-17.9,8.8-35.7,11.2-54c2.9-22.1,4.7-44.5,3.7-66.8c-2.5-57.9-14.7-113.3-39.4-166c-3.6-7.8-8.4-15-11.4-23.1 c-0.3-1-0.5-1.9-0.7-2.9c-0.2-0.4-0.3-0.8-0.5-1.2c-0.3-0.8-0.7-1.4-1.1-2.1c-0.2-0.3-0.4-0.7-0.6-1c-0.3-0.5-0.6-1-0.9-1.5 c-0.2-0.3-0.4-0.7-0.6-0.9c-0.4-0.7-0.9-1.3-1.3-2c-0.3-0.4-0.5-0.7-0.7-1c-0.4-0.6-0.7-1.2-1-1.8c-0.2-0.5-0.3-1-0.4-1.4 c0.9-4,3.2-2.7,5.2-1.3c3.1,2.1,6.2,4.3,9.8,5.3c6.7,2.1,9.6-0.3,9.5-7.3C968.9,362.9,966.6,359.4,970.6,357.2z" style=""/>
  <path id="path20" class="st2" d="M1023.2,727.7l3.1-2.1c4.8,1.4,8.6,4.8,13,7.1c9.4,5,18.6,10.4,27.9,15.4 c16.2,8.9,32.5,17.9,48.9,26.5c8.2,4.3,16.1,9.3,24.8,12.5c1.5,0.4,2.8,1.2,3.9,2.4c0.6,0.7,1.5,0.5,2.1,1l0,0 c-0.2,7.4-3.9,12.4-10.6,15.5c-3.3,1.6-6.7,3.3-9.1,6.3c-2.4,1.5-4.3-0.1-6.2-1c-21.5-10.6-42.5-22.2-63.3-34 c-16.1-9.4-31.9-19-46.5-30.6c-1.7-1.4-3.7-2.7-4-5.1c0-0.9,0.9-1.1,1.4-1.6C1012.5,734.5,1016.9,730,1023.2,727.7z" style=""/>
  <path id="path22" class="st0" d="M183.3,832.9c0.1,2.9,1.5,5.4,1,8.3c-5.2-4.3-9.2-9.7-13.7-14.6c-10.1-11.4-18.8-23.9-28.1-36.1 c-8.4-10.9-16.4-21.9-24.3-33.2c-9.7-13.7-16.8-28.8-22.4-44.5c-6.9-19.4-13.4-39-18.1-59.1c-1.9-8.8-3.2-17.9-4-26.9 c-1.2-12.7-0.7-25.4-0.8-38.1c0-13.2,1.2-26.3,2.9-39.4c1.8-14.4,4.5-28.8,8.1-42.8c5.3-21.3,12.4-42.2,19.6-62.9 c1.8-5.1,2.6-10.6,5.6-15.4c3.2,4.6,2.2,9.1,0.4,14c-6.7,17.7-12.1,35.7-17.2,53.9c-2.2,7.7-3.6,15.7-5.8,23.5 c-2.9,9.6-3.6,19.5-5.2,29.3c-1.2,7.8-1.1,15.7-2.9,23.4c-0.2,1-0.1,2.1,0.2,3c1.3,5.6,0.8,11.2-0.3,16.7c-1.3,5.9-1.4,12-0.3,17.9 c0.3,1.5,0.4,3,0.2,4.7c-0.6,8.2,1.3,16,2.5,23.9c1.8,11.5,4.4,22.9,7.7,34c1.5,5.3,4,10.3,5.1,15.7c2.6,12.2,8.3,23.2,12.5,34.8 c4.9,13.2,13.1,24.4,20.1,36.3c3.5,6,8.6,11.1,12.7,16.7c4.6,6.2,8.9,12.6,13.6,18.7c4.2,5.4,8.7,10.5,13.1,15.8 C171.6,817.8,178.2,824.7,183.3,832.9z" style=""/>
  <path id="path24" class="st3" d="M970.6,357.2c-0.9,1.6-1.3,3.1-0.6,4.9c0.9,2.2,0.4,4.4,0.6,6.7c0.5,5.3-2.9,7.5-8.4,6.8 c-4.5-0.5-8.5-2.7-12.1-5.4c-0.7-0.5-1.2-1.1-1.9-1.7c-0.7-0.6-1.5-1.1-2.3-0.7c-1,0.8,0,1.9-0.3,2.9c-2.2,0.4-3-1.3-3.9-2.7 c-6.3-9.8-12.4-19.7-19.1-29.2c-0.9-1.2-1.8-2.6-0.8-4.2c1,0.1,2.5,0.7,1.6-1.2c-1.8-4.1-3-8.5-5.8-12.1c-1.1-1.7-2-3.6-2.5-5.7 c-1.4-5.2,2.8-9.3,7.9-7.9c1.3,0.5,2.5,1,3.6,1.9c7.9,5.5,15.1,11.8,21.6,18.8c3.1,3.5,5.4,7.7,9.4,10.6c2.2,1.6,2.5,5.4,4.6,7.7 c1.1,1.3,2.1,2.8,4,2.9C968.1,352.1,969.5,354.6,970.6,357.2z" style=""/>
  <path id="path26" class="st0" d="M111.1,423.2c0.1,0.9-0.4,1.6-1,2.1C110.1,424.4,110.4,423.7,111.1,423.2z" style=""/>
  <path id="path28" class="st0" d="M114.1,416c0.1,0.9-0.4,1.6-1,2.1C113.1,417.2,113.5,416.4,114.1,416z" style=""/>
  <path id="path30" class="st0" d="M115.2,413.9c0.1,0.9-0.3,1.6-1,2.1C114.1,415.1,114.5,414.3,115.2,413.9z" style=""/>
  <path id="path32" class="st0" d="M117.3,408.7c0.1,0.9-0.3,1.6-1,2.1C116.2,410,116.6,409.2,117.3,408.7z" style=""/>
  <path id="path34" class="st0" d="M118.3,406.6c0.1,0.9-0.4,1.6-1,2.1C117.3,407.9,117.7,407.1,118.3,406.6z" style=""/>
  <path id="path36" class="st0" d="M121.4,399.4c0,0.9-0.4,1.6-1,2.1C120.3,400.7,120.7,399.9,121.4,399.4z" style=""/>
  <path id="path38" class="st0" d="M122.4,397.3c0.1,0.9-0.3,1.6-1,2.1C121.4,398.7,121.7,397.8,122.4,397.3z" style=""/>
  <path id="path40" class="st0" d="M124.5,392.2c0,0.9-0.4,1.6-1,2.1C123.4,393.4,123.8,392.7,124.5,392.2z" style=""/>
  <path id="path42" class="st0" d="M125.5,390.1c0.1,0.9-0.3,1.6-1,2.1C124.5,391.4,124.9,390.6,125.5,390.1z" style=""/>
  <path id="path44" class="st0" d="M126.6,387.1c0,0.9-0.4,1.6-1,2.1C125.5,388.3,125.9,387.6,126.6,387.1z" style=""/>
  <path id="path46" class="st1" d="M1147.1,790.5c-0.9,0.1-1.6-0.4-2.1-1C1145.8,789.5,1146.6,789.9,1147.1,790.5z" style=""/>
  <path id="path48" class="st0" d="M613.7,49.6l-1-1L613.7,49.6z" style=""/>
  <path id="path50" class="st0" d="M614.7,50.6l-1-1L614.7,50.6z" style=""/>
  <path id="path52" class="st0" d="M616.7,51.7l-1-1L616.7,51.7z" style=""/>
  <path id="path54" class="st0" d="M618.8,52.7c-0.4-0.3-0.8-0.7-1-1C618.1,52,618.4,52.4,618.8,52.7z" style=""/>
  <path id="path56" class="st0" d="M123.5,395.3l-1,1L123.5,395.3z" style=""/>
  <path id="path58" class="st0" d="M120.3,402.5l-1,1L120.3,402.5z" style=""/>
  <path id="path60" class="st0" d="M119.4,404.6l-1,1L119.4,404.6z" style=""/>
  <path id="path62" class="st0" d="M116.2,411.8l-1,1L116.2,411.8z" style=""/>
  <path id="path64" class="st0" d="M113.1,419l-1,1L113.1,419z" style=""/>
  <path id="path66" class="st0" d="M112.1,421.1l-0.9,1L112.1,421.1z" style=""/>
  <path id="path68" class="st0" d="M110.1,426.2l-1,1L110.1,426.2z" style=""/>
  <path id="path72" class="st0" d="M108.7,659.4l0.3,1.1c-0.3,0.4-0.2,0.8,0.2,1l-0.1-0.1c0.5,2.8,1.4,5.7,2.7,8.4l0.3,1.1 c-0.3,0.4-0.2,0.8,0.3,1l-0.1-0.1l0.6,1.1l0.3,1.1c1.6,7,2.5,14.3,6.5,20.5l-0.1-0.1c0.2,0.4,0.4,0.8,0.7,1.1l0.3,1.1 c-0.3,0.4-0.2,0.8,0.3,1l-0.1-0.1c0.2,0.4,0.4,0.8,0.7,1.1l0.3,1.1c-0.3,0.4-0.2,0.8,0.3,0.9l0,0c1,5.8,3.7,10.7,6.7,15.6l0.4,1 c0.4,1,0.1,2.3,1.2,3l-0.1-0.1c0.4,0.7,0.2,1.7,1.1,2.2l-0.1-0.1c0.4,1.2,0.5,2.6,1.8,3.2c0.3,0.1,0.4,0.5,0.3,0.7 c0.4,0.8,0.2,1.9,1.3,2.3c0.5,0.2,0.8,0.7,0.7,1.1c0,1.8,1,2.9,2.3,4.1l-0.1-0.1c0.4,0.8,0.2,1.8,1.2,2.1c0.5,0.2,0.8,0.6,0.8,1.1 c-0.2,0.7,0.6,0.7,0.8,1c0.3,0.1,0.4,0.4,0.4,0.7c0.4,1.3,1.1,2.5,2.3,3.3c0.5,0.2,0.8,0.6,0.8,1.1c0.6,2.7,2.7,4.3,4.5,6.1 c0.5,0.1,0.8,0.5,0.8,0.9c0.6,1.2,1,2.5,2.4,3.2c0.5,0,0.8,0.4,0.8,0.9c0.2,0.5,0.6,1,1,1.3l0,0c0.4,0.3,0.7,0.7,0.9,1l0.1,0.1 c0.4,0.6,0,1.7,1.2,1.7c0.6,0.2,0.9,0.7,0.9,1.2l0.9,1.1l0.1,0.1c0.3,0.2,0.6,0.5,0.7,0.9c0.7,0.5,1.2,1.2,1.4,2.1 c0.6,0.6,0.4,1.7,1.3,2c0.5,0.1,0.8,0.5,0.8,1c0.4,0.9,1,1.7,1.7,2.3c0.7,0.5,1.2,1.2,1.4,2c-0.2,0.7,0.6,0.7,0.8,1l1.3,1.8 c0.2,0.5,0.6,1,0.9,1.3l0,0c0.6,0.6,0.4,1.6,1.4,1.9c0.9,0.4,1.5,1.1,1.7,2.1c3.5,5.4,6.7,11.1,11.7,15.5c0.5,0.1,0.9,0.6,0.9,1 c-0.3,0.8,0.5,0.8,0.8,1.1l0,0c0.4,0.3,0.7,0.7,1,1l0.1,0.1c0.4,2.9,3,4.3,4.9,6.1c0.9,0.9,2,1.6,2.5,2.8c0.2,0.5,0.6,1,0.9,1.3l0,0 c4.5,6.7,9.2,13.4,15.6,18.6c0.4,0.3,0.8,0.6,1.1,0.8h-0.1c0.2,0.6,0.6,1,1,1.1v-0.1c0.3,0.7,0.6,1.3,0.9,1.9 c1.7,4.9,6.2,8,8.9,12.3c0.3,0.4,0.6,0.7,0.9,1c0.3,0.4,0.6,0.8,0.9,1c0.3,0.4,0.5,0.8,0.8,1.1c0.7,1.3,1.1,2.8,2.3,3.9 c0.3,0.2,0.6,0.5,0.9,0.8c0.3,0,0.2,1,0.9,0.4l0.5,0.2c7.1,9.9,13.6,20.1,18.5,31.4c4.3,9.6,7.5,19.5,9.9,29.6 c2.4,10.2,5.4,20.1,6.8,30.5c1,8.1,0.7,16.1,0.7,24.1c0,5.8-0.3,11.7-2.1,17.3c-0.4,1.3-0.8,2.7-1.3,3.9c-1.8,4-3.8,4.2-7.2,0.7 c-1.9-1-2.1-2.9-2.4-4.8c-0.6-3.4-1.3-6.7-1.6-10.2c-1.2-18.1-7.1-34.8-14.9-51c-3.8-7.9-8.3-15.4-12.5-23c-1.3-2.5-3.1-4.8-2.3-8 c-2.2-6.4-2.1-13-3.1-19.6c4.6-2.2,6.6,1.5,8.6,4.2c2,2.4,2.9,5.5,4.6,8.1c1,1.5,1.8,3.3,4.9,4.8c-6.4-18.6-17.2-33.5-27.5-48.9v-1 c-0.4-0.3-0.7-0.8-1-1c-2.8-4.5-5.5-8.9-8.3-13.4c-0.4-0.3-0.7-0.8-1-1c-1-1.7-2.4-3.1-4.1-4.2c-0.3-0.4-0.7-0.7-1-1 c-9.6-10.5-18.1-21.9-25.4-34.1c-1.8-3.1-3.4-6.4-6.7-8.3c-0.4,0-0.8,0-1-0.3c-6.8-8.1-14.1-15.8-18.6-25.6 c-0.4-2.2-1.4-4.2-3.1-5.7c-2.5-2.4-4-5.4-5.7-8.5c-4.9-9-8.5-18.7-13.2-27.7c-0.6-0.9-1.1-1.7-1.7-2.5c-1.2-0.8-2.1-1.9-2.4-3.2 c-4.8-14.5-10.3-28.8-14-43.6c-2.4-9.5-4.1-19.1-5-28.8c-0.5-3.4-0.6-6.8-0.3-10.3c1-8.7-1.1-17.5-0.9-26.2 c0.7-20.8,1.2-41.5,5.7-61.9c0.4-2,0.6-4.1,2.5-5.5c3.2-10.3,4.7-21,7.6-31.4c1.6-5.5,3.6-11,5.9-16.2c0.6-1.2,1-2.6,1-4 c-0.5-2.5,0-4.6,2.1-6.2c1.1-1,1.9-2.5,2-4c1.4-10,4.3-19.5,7.2-29.1c-0.2-3.1,1.9-4.9,3.9-6.7c2-1.8,4.3-3.8,6.4-5.7 c1.8-0.9,3.6-1.8,4.4,1.2v-0.1c-8.3,12.6-11.6,27.2-15.9,41.3c-2.9,10-6.9,19.6-10,29.5c-3.4,11.5-6.7,23.1-8.6,34.9 c-2.3,15.6-5.9,31.2-4.9,47.1l0.1-0.1c-1.3,4.8-1.7,10-1.2,15c0.7,10.3,0.3,20.5,0.7,30.8c0.3,7.3,2.1,14.5,2.7,21.9 c0.1,1,1,1.7,1.6,2.6l0.2,1c-0.7,1.2,0.7,2,0.8,3l0.2,1.1C106.4,655,107.6,657.3,108.7,659.4z" style=""/>
  <path id="path74" class="st0" d="M100.7,526.3c-0.7,5.4-0.7,10.9-2.5,16.2c-0.5,1.5-0.7,3-0.7,4.6c0,1.3,0.3,2.9-0.3,4.1 c-2.4,5.4-1.9,11.1-1.7,16.8c0.3,10-1.5,19.9-1.2,29.8c0.1,5,1.7,9.9,1,14.8c-1.2,10.3,1.1,20.4,1.1,30.6c0.1,1.2,0.3,2.4,0.7,3.5 c2.2,8.1,4.8,16.1,6.7,24.2c2.3,10.1,7.3,19.1,9.8,29.1c0.5,2,1.6,3.8,1.4,6c0.2,3.2,1.2,6.5,2.9,9.1c1.1,1.3,1.4,3.2,0.8,4.9 c-0.7,1.6-1.3,3.2-3.4,3.4c-1.8,0.2-3.6-0.1-4.6-1.8c-2.5-4.1-4.5-8.5-6-13c-0.7-1.9,0.1-3.7,2.4-5.2c-2.6-1.1-5-2-5.4-4.9 c-0.4-2.3,0.1-4.7,1.2-6.7c-0.8-1.8-2.2-1-3.2-1.4c-1.2-0.3-2.1-1.4-2-2.7c0-5.9-1.7-11.4-4.2-16.6c-1.7-3.7-2.9-7.7-4.3-11.5 c-1-3-1.3-6.3-0.8-9.4c0.2-1.4,0-2.9-0.7-4.3c-1.5-3.8-3.1-7.6-3.7-11.9c-0.7-5.4,0.3-11.3-3.2-16.2c-1.4-2-1.7-4.7-0.7-6.9 c0.9-2.1,1.1-4.4,0.8-6.7c-1-7,0.1-14,1.1-20.8c0.4-2.2,0.4-4.4,0.1-6.6c-0.9-6.2,0.8-12.4,1.1-18.4c0.1-1,0.6-2,1.2-2.8 c1.4-1.4,1.5-3.6,0.3-5.1c-0.8-1.2-0.8-2.7-0.1-3.9c2.9-6.2,1.8-13,3.4-19.5c0.4-1.4,0-3.1,1.5-4.2s1.5-2.6,1.6-4.1 c0.1-1.3,0.5-2.7,0.9-4c1.1-3.3,3.5-4.8,6.2-3.8c2.1,0.8,3.4,3.5,2.9,6.5c-0.4,2-0.9,4-1.3,6C99.7,524.5,100,525.7,100.7,526.3z" style=""/>
  <path id="path76" class="st3" d="M605.1,71.3c-3.3,0.3-6.4-1.1-9.3-2.4c-7.1-2.9-14.7-2.7-22.1-4c-9.7-1.7-19.5-0.1-29.2-1.7 c-5.8-1-11.7-0.8-17.4,0.5c-4.5,1-8.6-0.9-12.2-3.1c-3.4-2.2-3.2-5.4-0.1-8.1c3.1-2.7,6.8-3.9,10.6-5c6.5-1.9,13.1-2.2,19.8-3 c8.6-1.2,17.3-1.5,25.9-1c9.3,0.7,18.7,1.1,27.6,5.1c3.9,1.6,8,3,12.1,4.1c3.2,0.9,5.9,2.3,7.9,5.3c2.1,3.2,2.3,3.8,0,6.7 C615.4,68.8,610.3,71.2,605.1,71.3z" style=""/>
  <path id="path78" class="st0" d="M514.6,69.3c-9.6,3.7-17,10.7-25.5,16.2c-16.1,10.3-32.5,19.8-48.7,29.8 c-29.7,18.4-59.7,36.6-88.4,56.7c-24.1,17-47.5,35.1-70,54.2c-10.7,8.9-20.6,18.7-29.6,29.3c-3.8,4.6-8.1,8.8-12.2,13.2 c-1.2-0.2-2.5,0.7-3.8,0.2l-0.5-0.4c0.3-3.1,2.9-4.9,4.6-7.3c6.3-8.8,13.9-16.5,21.5-24c8.6-8.5,17.7-16.2,27.5-23.3 c3.2-2.3,6.1-4.9,9.1-7.4c6.8-5.7,13.5-11.6,20.5-17c7.6-5.9,15.4-11.5,23-17.2c6-4.5,12.7-8.1,18.9-12.4c3.6-2.6,7.5-4.8,11-7.5 c9.3-7,19-13.5,29-19.4c10.5-6.3,20.9-12.9,31.6-18.9c12.4-7,24.3-14.8,36.6-22c6.9-4.1,13.4-8.9,20.2-13.1 c4.3-2.6,8.2-6.2,12.6-8.8c3.2-1.9,6.5-3.7,10.5-4.2c2.4-0.3,4.4-0.2,6.2,1.3c-0.1,0.6-0.8,0.8-0.9,1.2l0,0 C516.8,69,515.4,68.3,514.6,69.3z" style=""/>
  <path id="path80" class="st0" d="M233.9,275.6l-19.9,23.5c-18.1,21.3-33.9,44.5-47.2,69.1c-3,5.7-5.5,11.8-8.3,17.7 c-0.9,1.9-1.4,3.8-2.9,5.3c-1.5,0.6-2.8,0.6-3.1-1.3c-0.3-1.5,0-3.1,0.7-4.5c6-12.7,11.4-25.7,18.9-37.6 c6.8-10.8,13.9-21.5,22.2-31.3c3.2-4,6.1-8.3,8.6-12.7c2.6-4.2,6.3-7.3,9.5-10.7c6.3-6.6,10.1-15.1,17.2-21c1.6-1.3,2.9-2.9,5.3-2.7 l0.5,0.5C236.3,272.2,234.1,273.6,233.9,275.6z" style=""/>
  <path id="path82" class="st0" d="M138.9,750.3c0.8,0.7,1.8,1.1,2.3,2c5,8.6,12.3,15.4,17.3,23.8c-0.1,2.6,1.2,4.5,2.8,6.5 c1.7,2.1,1.3,5.1-0.8,6.7c-0.6,0.5-1.2,0.8-1.9,0.9c-1.5,0.7-3.2,0-4-1.4c-0.9-1.5-1.6-3-2.4-4.6c-0.7-1.2-0.9-2.7-2.2-3.4 c-6.3-4-8.9-10.5-12.4-16.6c-0.3-0.4-0.5-1-0.9-1.2c-4.8-2-6.6-6.6-8.2-10.7c-1.2-3.3-4.7-6.3-2.4-10.7c-3.3-0.5-6-1.4-6.2-5.1 c-0.1-1.7-1.5-2.6-2.7-3.6c-1.7-1.6-1.7-4.2-0.3-5.4c1.6-1.4,5.6-1.1,6.3,0.9c1.3,3.5,4.5,6.3,4.1,10.5c0,0.5,0.1,1.2,0.4,1.4 C132.4,742.8,134,748.3,138.9,750.3z" style=""/>
  <path id="path84" class="st0" d="M117.3,468.6c0,2.3-0.7,4.5-2.1,6.2c-2.1,0.2-2.9,1.4-3.1,3.3c-0.4,2.9-1.8,5.6-4.1,7.5 c-1.1,0.9-2.1,1.9-3.6,1.1c-1.6-0.9-2.9-2.3-2.5-4.1c2.4-8.4,1.1-17.7,6.8-25.4c1.9-2.5,3.6-4.4,6.5-5.2c3.6,4.2,3.8,8.9,2.4,14 C117.5,466.9,117.3,467.7,117.3,468.6z" style=""/>
  <path id="path86" class="st0" d="M276.7,215.6c-0.9,0-1.7-0.6-2.2-1.4c-0.6-1.1-0.8-2.6,0.5-3.2c3.2-1.9,4.3-5.2,6-8.1 c3.8-6.1,9.7-9,16.3-10.6c2.4-0.6,3.7-1.1,3.6-3.8c-0.1-1.6,0.8-2.7,2.6-2.4c2,0.2,3.4,1.8,3.5,3.8c0.2,1.4,0,3.2-1.8,3 c-4.4-0.5-5.1,3-6.3,5.6c-2.8,5.7-6.5,10.1-13,11.2c-2,0.4-3,2.1-4.5,3.3C280.2,214.4,278.6,215.2,276.7,215.6z" style=""/>
  <path id="path88" class="st0" d="M435.5,104.6c-0.4-0.1-0.8-0.1-1.1-0.1c-1.7,0.1-3.9,2.1-5-0.3c-1.1-2.4,2.1-2.8,2.8-4.4 c1-2.5,2.6-4,5.4-3.9c1.8,0.1,2.5-1.6,3.3-2.9c1.3-2.2,3.5-3.8,6-4.4c2.8-0.7,5.1-2.7,7.8-3.9c4.4-2,7.6,0.2,7.2,4.9 c0.1,1.2-0.6,2.4-1.7,2.9c-6,2.9-10.8,8-17.8,8.8c-0.9,0.1-1.8,1-2.5,1.7C438.6,104.4,437.4,105.7,435.5,104.6z" style=""/>
  <path id="path90" class="st0" d="M192.5,307.1c0.1,1.7-0.4,2.9-1.5,3.4c-2.2,1.1-2.4,3-2.5,5.1c-0.3,3.8-3.5,6.6-7.3,6.4 c-0.3,0-0.6-0.1-0.9-0.1c-1-0.2-1.9-0.9-2.4-1.8c-0.9-1.7,1.9-8.8,3.8-9.1c2.5-0.5,3.4-1.7,3.8-4c0.4-2.3,2.5-2.5,4.5-2.3 C191.4,304.7,192.3,305.8,192.5,307.1z" style=""/>
  <path id="path92" class="st0" d="M136.8,423.2c-0.7,1.9-1.9,3.6-3.4,4.9c-2.8,2.1-4.8,4.8-6.8,7.4c-1.1,0.2-2.3,0.6-3.4,1 c-3.9,1.8-6.4-0.8-9-2.9c-0.6-0.5-0.9-1.1-0.7-1.8c0.2-0.9,1-1.4,1.9-1.4c1.2-0.1,2.4-0.1,3.6,0c3.5,0.2,6.5-0.3,9.4-2.9 C130.6,425.4,134,424.6,136.8,423.2z" style=""/>
  <path id="path94" class="st0" d="M100.7,501.1c0.6,0.6,1.1,1.2,1.5,1.9c0.8,1.8,1,3.7-1,4.9c-1.2,1-3.1,0.9-4.2-0.3 c-1.6-1.5-2.2-4.3-0.7-5.4c1.6-1.2,2-1.9,1.5-3.7c-0.5-1.8,0.9-2.9,2.7-2.9c1.8-0.3,3.5,1,3.8,2.8c0.3,1.8-1.3,2.1-2.8,2.4 C101.3,500.7,101,500.9,100.7,501.1z" style=""/>
  <path id="path96" class="st3" d="M914.7,304c0.1,1.7-1.3,4.4-2.6,4.4c-0.9,0.1-1.6-0.6-1.7-1.4c0,0,0,0,0-0.1 c-0.1-1.5,1.9-4.3,3-4.2C914.1,302.7,914.7,303.3,914.7,304z" style=""/>
  <path id="path98" class="st0" d="M115.8,448.1c1.3-0.1,2.3,0.3,2.4,1.5c0.2,1.4-0.5,2.2-1.9,2.4c-1.6,0.3-1.5-1-1.7-1.8 c-0.3-0.8,0-1.7,0.9-2C115.5,448.2,115.6,448.2,115.8,448.1z" style=""/>
  <path id="path100" class="st3" d="M536.1,67.2c-4.5,0-8.9-0.6-13.3,0C527.1,65.7,531.9,65.7,536.1,67.2z" style=""/>
  <path id="path102" class="st3" d="M581.6,71.3c-4.1-0.1-8.3,0.1-12.4-1c2.9,0,5.7,0,8.6,0C579.2,70.3,580.6,70.1,581.6,71.3z" style=""/>
  <path id="path104" class="st0" d="M164.2,791.8c-0.1,0.9-0.9,1.6-1.7,1.6c-1,0.1-1.7-0.4-1.6-1.4c0.1-1,0.9-1.3,1.9-1.3 C163.4,790.7,164.1,790.9,164.2,791.8z" style=""/>
  <path id="path106" class="st3" d="M547.5,68.2c-3.8,0.1-7.6,0.1-11.4-1C539.9,67.6,543.9,66.2,547.5,68.2z" style=""/>
  <path id="path108" class="st3" d="M569.2,70.3c-3.8,0.1-7.7,0.1-11.4-1C561.6,69.6,565.5,68.3,569.2,70.3z" style=""/>
  <path id="path110" class="st3" d="M557.8,69.3c-3.4-0.1-6.9,0.1-10.3-1.1C551,68.6,554.7,67,557.8,69.3z" style=""/>
  <path id="path112" class="st3" d="M587.7,72.3c-2.1-0.1-4.2,0-6.2-1C583.6,71.6,586,70.5,587.7,72.3z" style=""/>
  <path id="path114" class="st3" d="M914.9,326.1c-1.3-1.1-2.8-2.2-3.2-4C913.5,322.7,914.7,324.3,914.9,326.1z" style=""/>
  <path id="path116" class="st3" d="M910.7,321.1c-1.4-1-2.6-2.5-3.2-4.1C909.4,317.7,910.6,319,910.7,321.1z" style=""/>
  <path id="path118" class="st3" d="M905.6,314.9c-1.4-1-2.7-2.5-3.5-4C904.1,311.2,905.5,312.9,905.6,314.9z" style=""/>
  <path id="path120" class="st3" d="M920,332.3c-1.3-1.1-2.8-2.2-3.2-4C918.6,328.9,919.8,330.5,920,332.3z" style=""/>
  <path id="path122" class="st3" d="M517.7,68.4l0.9-1.2l4.2,0.1C521.3,68.4,519.5,68.3,517.7,68.4z" style=""/>
  <path id="path124" class="st3" d="M591.9,73.4c-1.4,0-2.9,0-4.1-1C589.2,72.4,590.8,72,591.9,73.4z" style=""/>
  <path id="path126" class="st3" d="M599.1,75.6c-1.4,0.1-2.8-0.4-4-1.1C596.5,74.5,598.1,74,599.1,75.6z" style=""/>
  <path id="path128" class="st3" d="M602.2,76.6c-1.1,0.2-2.4-0.2-3.1-1C600.3,75.4,601.5,75.4,602.2,76.6z" style=""/>
  <path id="path130" class="st3" d="M605.3,77.5c-1.1,0.2-2.3-0.2-3.1-1C603.4,76.4,604.5,76.3,605.3,77.5z" style=""/>
  <path id="path132" class="st3" d="M608.4,78.5c-1.1,0.2-2.3-0.2-3-1C606.4,77.5,607.7,77.4,608.4,78.5z" style=""/>
  <path id="path134" class="st3" d="M611.5,79.7c-1.1,0.2-2.3-0.3-3-1C609.6,78.5,610.7,78.4,611.5,79.7z" style=""/>
  <path id="path136" class="st3" d="M594.9,74.4c-1.1,0.2-2.3-0.2-3-1C593,73.4,594.2,73.3,594.9,74.4z" style=""/>
  <path id="path138" class="st3" d="M613.6,80.6c-0.9,0.1-1.6-0.3-2.1-0.9C612.3,79.6,613.1,79.9,613.6,80.6z" style=""/>
  <path id="path140" class="st0" d="M234.9,269.4l1-1l0,0C236.2,269.3,235.8,269.7,234.9,269.4L234.9,269.4z" style=""/>
  <path id="path142" class="st3" d="M906.6,315.9c-0.6-0.1-1-0.6-1-1.1L906.6,315.9z" style=""/>
  <path id="path144" class="st3" d="M907.6,317.1c-0.6-0.2-1-0.6-1-1.1C906.9,316.3,907.2,316.7,907.6,317.1z" style=""/>
  <path id="path146" class="st3" d="M911.8,322.1c-0.6-0.1-1-0.6-1-1L911.8,322.1z" style=""/>
  <path id="path148" class="st3" d="M915.8,327.3c-0.6-0.1-0.9-0.6-0.9-1.1L915.8,327.3z" style=""/>
  <path id="path150" class="st3" d="M916.9,328.4c-0.6-0.1-0.9-0.6-1-1L916.9,328.4z" style=""/>
  <path id="path152" class="st3" d="M921.1,333.5c-0.6-0.1-1-0.6-1-1.1L921.1,333.5z" style=""/>
  <path id="path154" class="st3" d="M922,334.6c-0.6-0.2-1-0.6-1-1.1L922,334.6z" style=""/>
  <path id="path160" class="st0" d="M206,840.1c4.3,4.2,8.4,8.6,11.1,14c1.5,3.2,3.6,6.3,6.1,8.9c1.4,1.5,2.5,3.3,3,5.3 c1.7,5.7,4.8,10.5,7.4,15.8c1,2.2,2.2,4.5,0.4,6.7c-0.9,1.1-3.2-0.4-5.5-3.5c-2.1-2.8-3.3-6-4.9-9c-1.8-3.2-4.1-5.9-8.2-6.1 c-1.4-8.4-4.1-16.3-6.3-24.5C208.3,845,206.6,842.8,206,840.1z" style=""/>
  <path id="path162" class="st0" d="M205,838l1,1L205,838z" style=""/>
  <path id="path164" class="st0" d="M195.7,823.6c0.4,0.4,0.7,0.7,1,1C196.4,824.3,196,824,195.7,823.6z" style=""/>
  <path id="path166" class="st0" d="M190.5,818.5l1,1L190.5,818.5z" style=""/>
  <path id="path168" class="st2" d="M1130.5,814c-0.5,0.1-1-0.3-1.1-0.7L1130.5,814z" style=""/>
  <path id="path170" class="st2" d="M1128.5,813.1c-0.5,0.1-1-0.2-1-0.7L1128.5,813.1z" style=""/>
  <path id="path172" class="st7" d="M819.2,1045.6c-6-6-9-13.7-11.2-21.7c-3-11.4-6.1-22.9-5.2-34.8c0.8-11.6,2.6-23.1,7.9-33.6 c0.2,0.6,0.3,1.6,1.1,1.3c0.8-0.4,1.3-1,1.8-1.7c5.9-7.1,11.6-14.4,18.1-20.9c7.7-7.6,14.9-15.8,23.1-22.8c5.8-5,9.3-11.2,13.1-17.5 c6.3-10,13.1-19.7,20.5-28.9c5.5-6.9,11.1-13.9,16.8-20.7c2.8-3.3,5.7-6.5,8.6-9.6c7.6-8.2,14.9-16.5,23-24.3 c6.9-6.7,12.8-14.2,19.8-20.8c1.6-1.5,2.5-3.8,4.8-4.9c2.3-1.1,2.2-3.1,0.9-5.2c-4.3-6.7-4.1-8.3,0.5-14.5c2.7-3.7,5.1-7.7,7.5-11.6 c1-1.8,2.3-3.4,3.8-4.8c1.7-1.6,3.3-3.9,6.1-2.9c2.9,1.1,5.9,2.4,6.4,6.6c0.5,4.6,2.3,4.9,6.2,2.6c2.7-1.4,5-3.4,6.9-5.8l0.6,0.6 c0.9,2.5-0.6,4.4-1.5,6.3c-13.8,27.9-31,53.4-53.3,75.4c-23.3,23.1-46.3,46.6-67,72.1c-15.2,18.5-29.4,37.6-41.7,58 c-11.4,18.8-15,39.2-12.4,61c0.7,6,1.1,12,1.3,18C825.7,1045.1,824.3,1046,819.2,1045.6z" style=""/>
  <path id="path174" class="st7" d="M1023.2,727.7l-14.4,12.4c0.5-1.3,0.8-2.7,1-4c0.1-2.8-1.2-3.5-3.8-2c-1,0.8-2.3,0.6-3-0.4 c-0.1-0.1-0.1-0.1-0.1-0.2c-5.4-6.8-11.2-13.5-13.1-22.4c-1-4.5,3-8.4,7.3-6.7c5.7,2.2,10.1,6.5,14.2,10.8c0.8,0.8,0.9,1.9,0.6,2.9 c-1.3,3,0.5,4.4,2.7,5.7C1017.2,725.5,1019.8,727.7,1023.2,727.7z" style=""/>
  <path id="path182" class="st7" d="M928.1,805.9c1.3-3,4.1-4.9,6.5-7.1C933.6,802.3,931,804.2,928.1,805.9z" style=""/>
  <path id="path184" class="st7" d="M951.9,776.1c0.5-2,1.5-3.8,3-5.2C956.2,774.7,955.8,775.3,951.9,776.1z" style=""/>
  <path id="path188" class="st7" d="M939.4,793.6c0.8-2.2,2.5-3.7,4.2-5.2C943.6,791.1,941.7,792.5,939.4,793.6z" style=""/>
  <path id="path190" class="st7" d="M1001.5,744.1c-0.1-2,0.7-3.9,2.1-5.1l0.6,0.5c0.8,2.2,0.2,3.8-1.9,4.8L1001.5,744.1z" style=""/>
  <path id="path202" class="st7" d="M985.9,706.9c0.3-1.8-0.1-3.7,1.1-5.2C986.9,703.5,987.9,705.5,985.9,706.9z" style=""/>
  <path id="path206" class="st3" d="M951.9,381.1c-1-0.9-1.7-2-1.9-3.3C951.4,378.2,952.1,379.7,951.9,381.1z" style=""/>
  <path id="path208" class="st3" d="M948.9,375.9c-1-0.8-1.7-1.9-1.9-3.2C948.2,373.1,949,374.4,948.9,375.9z" style=""/>
  <path id="path218" class="st7" d="M943.6,788.4c0.3-1.2,1-2.4,2.2-3.1C946,786.7,945,788.1,943.6,788.4z" style=""/>
  <path id="path222" class="st7" d="M988,699.7c0.2-1.1,0.1-2.3,1-3.1C989.2,697.7,989.3,699,988,699.7z" style=""/>
  <path id="path224" class="st7" d="M984.8,710c-0.2-1.1,0.3-2.4,1.1-3.2C986.1,708.1,986.2,709.3,984.8,710z" style=""/>
  <path id="path226" class="st7" d="M982.9,715.3c0.1-1.1,0.1-2.3,1-3.1C984.1,713.3,984.2,714.4,982.9,715.3z" style=""/>
  <path id="path228" class="st7" d="M981.8,718.2c0.1-1.1,0.2-2.3,1.1-3.1C982.9,716.3,983.1,717.6,981.8,718.2z" style=""/>
  <path id="path230" class="st7" d="M979.8,723.5c-0.1-1.1,0.4-2.3,1.1-3C980.9,721.6,981,722.8,979.8,723.5z" style=""/>
  <path id="path232" class="st7" d="M977.7,728.6c-0.1-1.1,0.4-2.3,1.1-3C978.8,726.7,978.9,727.9,977.7,728.6z" style=""/>
  <path id="path234" class="st7" d="M975.5,733.7c-0.1-1.1,0.4-2.3,1.2-3C976.7,731.8,976.9,733.1,975.5,733.7z" style=""/>
  <path id="path236" class="st7" d="M958,765.8c0-1.1,0.5-2.2,1.2-3C959.3,763.9,959.4,765.1,958,765.8z" style=""/>
  <path id="path238" class="st7" d="M999.4,749.1c0.2-1,0.1-2.3,1.1-3l0.6,0.6c0.3,1.3,0.6,2.7-1.5,2.6L999.4,749.1z" style=""/>
  <path id="path240" class="st7" d="M965.2,752.3c0.1-1.1,1-2.1,2.1-2.2C967.2,751.2,966.4,752.1,965.2,752.3z" style=""/>
  <path id="path242" class="st7" d="M972.6,740c-0.1-0.9,0.2-1.7,1-2.2C973.7,738.7,973.3,739.5,972.6,740z" style=""/>
  <path id="path244" class="st7" d="M967.2,750.2c0.1-0.9,0.6-1.5,1.2-2C968.6,749.1,968.1,749.9,967.2,750.2z" style=""/>
  <path id="path246" class="st7" d="M976.7,730.7c-0.1-0.9,0.3-1.7,0.9-2.2C977.9,729.4,977.5,730.2,976.7,730.7z" style=""/>
  <path id="path248" class="st7" d="M963.2,755.4c0-0.9,0.5-1.6,1.1-2.1C964.5,754.2,964,755.1,963.2,755.4z" style=""/>
  <path id="path252" class="st7" d="M978.8,725.6c-0.1-0.9,0.3-1.7,1-2.2C979.9,724.2,979.6,725.1,978.8,725.6z" style=""/>
  <path id="path258" class="st7" d="M980.9,720.4c-0.1-0.9,0.3-1.7,1-2.2C982.1,719,981.7,719.9,980.9,720.4z" style=""/>
  <path id="path260" class="st7" d="M961.3,758.5c0-0.9,0.4-1.6,1-2.1C962.4,757.3,962,758.2,961.3,758.5z" style=""/>
  <path id="path262" class="st7" d="M960.2,760.6c-0.1-0.9,0.4-1.6,1-2.1C961.4,759.4,961,760.1,960.2,760.6z" style=""/>
  <path id="path266" class="st7" d="M984,712.2c-0.1-0.9,0.3-1.7,1-2.2C985.1,710.7,984.7,711.7,984,712.2z" style=""/>
  <path id="path268" class="st7" d="M959.3,762.7c-0.1-0.9,0.3-1.6,1-2.1C960.4,761.5,960,762.2,959.3,762.7z" style=""/>
  <path id="path270" class="st7" d="M1003.6,739c0.7-1,1.4-0.9,2.1,0l-0.6,0.5c-0.5,0.1-1,0.1-1.3-0.2L1003.6,739z" style=""/>
  <path id="path272" class="st7" d="M956.9,767.7c0-0.9,0.5-1.7,1.1-2.2C958.3,766.5,957.8,767.5,956.9,767.7z" style=""/>
  <path id="path274" class="st7" d="M973.5,737.9c-0.1-0.9,0.4-1.7,1-2.2C974.7,736.6,974.4,737.5,973.5,737.9z" style=""/>
  <path id="path278" class="st7" d="M955,770.9c0-0.9,0.5-1.6,1.1-2C956.2,769.7,955.7,770.6,955,770.9z" style=""/>
  <path id="path280" class="st7" d="M987,701.8c-0.1-0.9,0.4-1.6,1.1-2.1C988.2,700.6,987.8,701.4,987,701.8z" style=""/>
  <path id="path292" class="st7" d="M971.6,742.1c-0.1-0.9,0.4-1.6,1-2.1C972.8,740.8,972.3,741.6,971.6,742.1z" style=""/>
  <path id="path294" class="st7" d="M1008.8,740c-0.3,0.4-0.6,0.7-0.9,1c-0.8,0.6-1,0.1-1.3-0.5l0.3-0.6H1008.8z" style=""/>
  <path id="path296" class="st7" d="M970.6,744.1c0-0.9,0.4-1.6,1-2.1C971.7,742.9,971.3,743.7,970.6,744.1z" style=""/>
  <path id="path298" class="st7" d="M974.6,735.8c-0.1-0.9,0.4-1.7,1-2.2C975.8,734.5,975.3,735.4,974.6,735.8z" style=""/>
  <path id="path300" class="st7" d="M969.5,746.2c-0.1-0.9,0.4-1.6,1-2.1C970.7,744.9,970.3,745.7,969.5,746.2z" style=""/>
  <path id="path302" class="st3" d="M953,383.1c-0.8-0.5-1.1-1.2-1.2-2.2C952.6,381.3,953.2,382.2,953,383.1z" style=""/>
  <path id="path306" class="st3" d="M950,377.8c-0.8-0.4-1.1-1.2-1.1-2.1C949.6,376.2,950,376.9,950,377.8z" style=""/>
  <path id="path308" class="st3" d="M946.9,372.5c-0.7-0.4-1.1-1.1-1.1-2C946.4,371,946.9,371.8,946.9,372.5z" style=""/>
  <path id="path314" class="st7" d="M946.6,784.3c0-0.9,0.5-1.6,1.2-2C948,783.1,947.5,784,946.6,784.3z" style=""/>
  <path id="path318" class="st7" d="M948.7,781.2c0.1-0.9,0.5-1.6,1.2-2C950,780.1,949.6,780.9,948.7,781.2z" style=""/>
  <path id="path320" class="st7" d="M950.8,778.1c0-0.9,0.5-1.6,1.2-2C952.1,777,951.6,777.8,950.8,778.1z" style=""/>
  <path id="path322" class="st7" d="M1000.5,746.2c0-0.8,0.4-1.5,1-2l0.2,0.1c0.6,1.1,0.4,1.9-1,2.1L1000.5,746.2z" style=""/>
  <path id="path324" class="st7" d="M968.5,748.3c0-0.9,0.4-1.6,1-2.1C969.6,747,969.2,747.8,968.5,748.3z" style=""/>
  <path id="path352" class="st7" d="M1005.7,739l1,1l-0.1,0.2c-0.8,0.2-1.1-0.2-1-1L1005.7,739z" style=""/>
  <path id="path354" class="st7" d="M964.3,753.4c0-0.6,0.5-1,1-1.2L964.3,753.4z" style=""/>
  <path id="path356" class="st7" d="M962.3,756.5c0-0.6,0.4-1.1,0.9-1.2L962.3,756.5z" style=""/>
  <path id="path358" class="st7" d="M956.1,768.9c0-0.6,0.4-1.1,1-1.2L956.1,768.9z" style=""/>
  <path id="path360" class="st7" d="M950,779.2c0-0.6,0.4-1,1-1.2L950,779.2z" style=""/>
  <path id="path362" class="st7" d="M947.9,782.3c0-0.6,0.4-1,1-1.2L947.9,782.3z" style=""/>
  <path id="path364" class="st7" d="M945.7,785.3c0-0.6,0.5-1,1-1.2C946.6,784.7,946.2,785.1,945.7,785.3z" style=""/>
  <path id="path366" class="st7" d="M938.5,794.6c0.1-0.6,0.6-1,1.1-1.1C939.4,794.1,939,794.4,938.5,794.6z" style=""/>
  <path id="path368" class="st7" d="M937.4,795.7c0.1-0.6,0.6-1,1.1-1.1C938.4,795,938,795.5,937.4,795.7z" style=""/>
  <path id="path370" class="st7" d="M936.4,796.6c0.1-0.6,0.6-1,1.1-1.1C937.3,796.1,936.9,796.5,936.4,796.6z" style=""/>
  <path id="path372" class="st7" d="M935.3,797.7c0.1-0.6,0.6-1,1.1-1.1C936.3,797.1,935.9,797.6,935.3,797.7z" style=""/>
  <path id="path374" class="st7" d="M934.5,798.8c0-0.6,0.4-1,1-1.1L934.5,798.8z" style=""/>
  <path id="path382" class="st7" d="M927.2,807c0.1-0.6,0.5-1,1-1.2C928.1,806.3,927.6,806.8,927.2,807z" style=""/>
  <path id="path390" class="st7" d="M926,808c0.1-0.6,0.6-1,1.1-1.1C927.1,807.5,926.6,807.9,926,808z" style=""/>
  <path id="path392" class="st7" d="M925,809.1c0.1-0.6,0.6-1,1.1-1.1C926,808.5,925.5,808.9,925,809.1z" style=""/>
  <path id="path394" class="st7" d="M924,810.1c0.1-0.6,0.6-1,1.1-1.1C925,809.5,924.5,809.9,924,810.1z" style=""/>
  <path id="path396" class="st7" d="M923,811.1c0.1-0.6,0.6-1,1.1-1.1C923.9,810.5,923.5,811,923,811.1z" style=""/>
  <path id="path436" class="st7" d="M918.8,815.2c0.1-0.6,0.6-1,1.1-1.1C919.8,814.7,919.4,815.1,918.8,815.2z" style=""/>
  <path id="path438" class="st7" d="M919.8,814.2c0.1-0.6,0.6-1,1.1-1.1C920.8,813.6,920.4,814.1,919.8,814.2z" style=""/>
  <path id="path440" class="st7" d="M920.9,813.2c0.1-0.6,0.6-1,1.1-1.1C921.8,812.6,921.5,813.1,920.9,813.2z" style=""/>
  <path id="path442" class="st7" d="M921.9,812.1c0.1-0.6,0.6-1,1.1-1.1C922.9,811.5,922.5,812,921.9,812.1z" style=""/>
  <path id="path446" class="st8" d="M 336.3 826.6 C 325.7 820.4 314.9 814.2 304.9 806.8 C 287.1 793.5 271.6 778.2 260 759.2 C 248.3 739.9 243.4 719.2 245.9 696.7 C 247.7 680.7 251.1 665.3 257.9 650.6 C 262.4 641.1 267.9 632.2 274.4 623.9 C 274.8 623.3 275.3 622.9 275.8 622.4 C 293.5 606.4 312.8 593.3 336 587 C 345.5 584.5 355.2 583.3 365 583.3 C 377.2 583.1 389.4 582.6 401.6 583.2 C 412.7 583.7 423.5 582 434.2 579.2 C 436.9 578.5 439.2 577.2 441.3 575.3 C 449.3 568.5 457.1 561.4 465.6 555.4 C 479.7 545.6 495.5 539.3 512.3 535.8 C 528.5 532.4 545 532.2 561.5 532.6 C 574.5 532.9 587.5 534.2 600.4 536.6 C 619.7 540.2 638.3 546.9 655.5 556.4 C 663.5 560.8 672 564.6 678.3 571.2 C 686.3 579.7 696.5 581.1 707 581.3 C 720.8 581.5 734.5 581.6 747.9 584.5 C 772.6 589.9 796 598.8 816.4 614 C 829.1 623.5 839.1 636.2 845.3 651 C 849.7 661.3 853.5 671.7 854.7 682.9 C 855.6 692.7 855.6 702.5 854.7 712.2 C 854.4 716.3 853.7 720.4 853.3 724.5 C 852.3 733.3 848.9 741.4 844.7 749.1 C 842.5 752.9 839.5 755.8 836.6 759.1 C 814 784.5 788.4 806 758.1 821.7 C 757.7 822 757.2 822.3 756.9 822.7 C 755.6 825.6 752.7 826.7 750.2 827.9 C 714.2 845.9 676.2 857.4 636.8 864.8 C 608 870 578.9 873 549.7 873.4 C 502.1 874.4 455.4 869.3 409.4 857 C 387.6 851.1 366.4 843.7 346.2 833.3 C 345.7 833 345.2 832.8 344.8 832.6 C 344.1 832.3 343.5 831.9 342.8 831.6 C 340.1 830.1 338 828.5 336.3 826.6 Z M 411 603.9 C 401.4 604.6 391.9 605.3 382.3 605.9 C 374.4 606.3 366.5 606.5 358.6 606.8 C 350.9 607.2 343.2 608.7 336 611.4 C 320 617.2 306.9 627.6 294 638.1 C 293 638.9 292.2 639.8 291.5 640.8 C 286.9 646.6 283.1 652.9 279.9 659.6 C 274.4 671.4 271.2 683.8 268.8 696.5 C 267.3 705.1 266.9 713.9 267.5 722.6 C 267.7 728.5 269.2 734.2 272 739.4 C 274.9 744.6 278.2 749.7 281.6 754.6 C 292.7 770.6 307.1 783.1 323.2 794 C 347.9 810.8 375.2 822 403.6 830.6 C 443 842.4 483.4 847.7 524.3 849.1 C 536.3 849.5 548.2 849.4 560.3 848.6 C 570.9 847.9 581.5 847.4 592.1 846.4 C 611.7 844.5 631.2 841.6 650.5 837.4 C 679.3 831.4 707.3 822.4 734.2 810.5 C 747.9 804.4 761.8 798.2 773.5 788.3 C 788.6 775.6 805.1 764.5 817.8 749 C 822 744 825.8 738.9 827.9 732.5 C 830.5 724.9 832 716.9 832.3 708.8 C 832.8 693.7 832.6 678.7 826.3 664.3 C 819.4 648.3 809.1 636 793.8 627.7 C 772.1 615.9 749.2 608 724.7 605.1 C 720.4 604.7 716 603.7 710.5 604.1 C 718.3 612.1 724.7 620.5 734 625.7 C 737 627.3 739.9 629.2 742.7 631.2 C 743.8 632 744.9 632.9 744.7 634.5 C 744.4 636.4 742.9 636.8 741.4 637.3 C 740.7 637.6 740.1 637.7 739.4 637.7 C 731.2 637.5 723 636.1 715.2 633.5 C 714 632.9 712.8 632.3 711.7 631.4 C 705.1 627.2 699.8 621.5 693.9 616.6 C 679.9 604.9 664.7 594.9 648.9 585.8 C 632.4 576.2 615 569 596.4 565.3 C 584.4 562.9 572.3 561.7 560.1 561.5 C 545.5 561.2 530.9 561.3 516.6 564.6 C 502.7 567.9 489.7 573 478.4 581.9 C 465.7 591.9 453.8 602.8 441.7 613.5 C 430.7 623.1 418.7 630.7 404.1 633.6 C 398.2 634.8 392.1 634.8 386.2 633.8 C 384.5 633.6 383.3 632.7 382.8 631.1 C 382.3 629 383.6 627.8 385.2 627 C 390.9 624.3 396 620.3 401.4 617 C 406.6 613.9 411.1 609.8 414.5 604.8 C 414.2 602.3 412.5 603.5 411 603.9 Z" style=""/>
  <path id="path448" class="st1" d="M979.9,1115.5c-0.1-0.4,0-0.7,0.2-0.9c0.5-0.7,0.3-1.5,0.8-2.2c-0.1-0.4,0-0.7,0.2-1 c0.5-0.7,0.3-1.5,0.8-2.1l0,0c0.8-0.7,0.7-1.6,1-2.5c-0.1-0.2-0.1-0.5,0.2-0.7c0.7-0.7,0.5-1.6,0.9-2.5c-0.1-0.3,0-0.6,0.3-0.7 c0.5-0.6,0.4-1.5,0.9-2.1l0,0c0.8-0.7,0.6-1.6,1-2.4c-0.1-0.3,0-0.6,0.3-0.7c0.5-0.6,0.4-1.5,0.9-2.1l0,0c0.8-0.6,0.5-1.5,1-2.2 c-0.1-0.4,0-0.7,0.2-0.9c0.4-0.4,0.6-0.9,0.8-1.4c-0.1-0.3,0-0.6,0.3-0.7c0.4-0.4,0.7-0.9,0.8-1.4c-0.1-0.2-0.1-0.5,0.2-0.7l0,0 c0.6-0.6,0.4-1.5,1-2.1l0,0c0.7-0.5,0.6-1.5,1-2.1l0,0c0.7-0.5,0.5-1.5,1-2.1l0,0c0.7-0.5,0.5-1.5,1-2.1l0,0c0.7-0.5,0.5-1.5,1-2.1 l0,0c0.7-0.5,0.5-1.5,1-2.1l0,0c0.5-0.3,0.9-0.9,1-1.4c-0.1-0.3,0-0.6,0.3-0.7c0.4-0.4,0.7-0.9,0.8-1.4c-0.1-0.3,0-0.6,0.3-0.7l0,0 c0.3-0.4,0.7-0.7,0.8-1.2l-0.1,0.1c1-0.4,0.7-1.4,1.2-2.1l0,0c0.8-0.5,0.5-1.5,1.1-2l0,0c0.5-0.4,0.8-0.9,0.9-1.4 c-0.1-0.3,0-0.6,0.3-0.7c0.3-0.4,0.6-0.8,0.8-1v0.1c0.8-0.5,0.5-1.5,1.1-2l0,0c0.3-0.4,0.8-0.7,1-1.2l-0.1,0.1 c0.9-0.4,0.7-1.4,1.2-2.1l0,0c0.5-0.3,0.9-0.9,1-1.4c-0.1-0.3,0-0.6,0.3-0.7l0.8-1v0.1c0.6-0.3,0.9-0.9,1-1.4 c-0.1-0.3,0-0.6,0.3-0.7c0.3-0.4,0.6-0.7,0.9-1l0,0c0.5-0.3,0.8-0.7,1-1.2l-0.1,0.1c0.9-0.4,0.7-1.4,1.2-1.9l0,0 c0.4-0.3,0.8-0.8,0.9-1.2l-0.1,0.1c0.6-0.3,1-0.8,1-1.4c-0.1-0.3,0-0.6,0.3-0.7c0.3-0.4,0.6-0.7,0.9-0.9l0,0c0.4-0.3,0.8-0.8,1-1.2 l-0.1,0.1c0.6-0.3,1-0.8,1.1-1.4c-0.1-0.3,0-0.6,0.3-0.7l0,0c0.3-0.4,0.5-0.7,0.9-1l0,0c0.4-0.3,0.7-0.7,1-1.1v0.1 c0.5-0.3,0.8-0.7,1-1.2l-0.1,0.1c0.6-0.2,1-0.8,1.1-1.4c-0.1-0.3,0-0.6,0.3-0.7l0,0c0.3-0.4,0.6-0.7,0.9-0.9h0.1l1-1l0,0 c0.4-0.3,0.8-0.7,0.9-1.2l-0.1,0.1c0.6-0.2,1-0.7,1-1.1l-0.1,0.1c0.6-0.2,0.9-0.6,1.1-1.1l-0.1,0.1c0.9-0.3,0.7-1.4,1.3-1.9l0.1-0.1 c0.3-0.4,0.6-0.7,0.9-1v-0.1l1-0.9l0,0c0.3-0.3,0.7-0.7,0.9-0.9l0,0c0.4-0.3,0.7-0.7,1-1l0,0c0.5-0.3,0.8-0.7,0.9-1.2l-0.1,0.1 c0.6-0.2,0.9-0.6,1.1-1.1l-0.1,0.1c0.6-0.1,1-0.6,1.1-1.1l-0.1,0.1c0.6-0.2,0.9-0.6,1.1-1.1l-0.1,0.1c0.6-0.2,1-0.6,1.1-1.1 l-0.1,0.1c0.6-0.2,0.9-0.6,1.1-1.1l-0.1,0.1c0.6-0.2,1-0.6,1.1-1.1l-0.1,0.1c0.6-0.2,0.9-0.6,1.1-1.1l-0.1,0.1 c0.6-0.2,1-0.6,1.1-1.1l-0.1,0.1c0.6-0.2,0.9-0.6,1.1-1.1l-0.1,0.1c0.6-0.2,1-0.6,1.1-1.1l-0.1,0.1c0.6-0.2,0.9-0.6,1.1-1.1 l-0.1,0.1c0.6-0.2,1-0.6,1.1-1.1l-0.1,0.1c0.5-0.2,0.9-0.5,1.1-1l0,0c0.4-0.3,0.8-0.6,1-1l0,0c0.3-0.3,0.7-0.7,0.9-1l0,0l1-1l0,0 c0.3-0.4,0.6-0.7,0.9-1l0.1-0.1c0.5-0.7,1.5-0.4,1.9-1.3l-0.1,0.1c0.6-0.2,0.9-0.6,1.1-1.1l-0.1,0.1c0.6-0.2,1-0.5,1.2-1l0,0 c0.4-0.3,0.8-0.6,1.1-1l0,0c0.3-0.3,0.7-0.7,1-0.9l0.1-0.1c0.5-0.7,1.6-0.4,1.9-1.2l-0.1,0.1c0.6-0.1,0.9-0.6,1.1-1.1l-0.1,0.1 c0.5-0.2,0.9-0.5,1.1-0.9l0,0c0.3-0.3,0.7-0.6,1-1l0.1-0.1c0.5-0.7,1.5-0.4,1.9-1.3l-0.1,0.1c0.6-0.2,0.9-0.6,1.2-1l0,0 c0.4-0.3,0.8-0.6,1.1-1l0.1-0.1c0.5-0.7,1.5-0.4,1.9-1.2l-0.1,0.1c0.5-0.2,0.9-0.5,1.1-1l0,0c0.6-0.6,1.6-0.3,1.9-1.3l-0.1,0.1 c0.6-0.1,1-0.5,1.2-1l0,0c0.4-0.3,0.8-0.6,1.1-0.9c0.1-0.2,0.3-0.4,0.5-0.3c0,0,0,0,0.1,0c0.7-0.1,1.2-0.5,1.5-1h-0.1l1.1-0.9 c0-0.2,0.3-0.4,0.5-0.3h0.1c0.7-0.1,1.2-0.5,1.5-1h-0.1c0.4-0.3,0.8-0.6,1.1-0.9c0-0.2,0.3-0.4,0.5-0.3h0.1c0.7-0.1,1.1-0.4,1.5-1 l0,0c0.6-0.5,1.6-0.3,2-1.1l-0.1,0.1c0.5-0.1,0.9-0.5,1.2-0.9c0.1-0.2,0.3-0.3,0.5-0.3c0,0,0.1,0,0.1,0.1c0.7-0.1,1.2-0.5,1.5-1l0,0 c0.6-0.5,1.6-0.3,2.1-1.1h-0.1c3.8-0.8,3.4,2,3,4.1c-1.2,6.8-3,13.6-8,19l0.1-0.1c-0.6,0.2-0.9,0.5-1.2,1l0.1-0.1 c-0.5,0.3-0.9,0.6-1.1,1l0,0c-0.4,0.3-0.7,0.6-1,0.9l-0.2,0.1c-0.2,0.4-0.5,0.7-0.9,0.9l-0.2,0.2c-0.1,0.4-0.4,0.6-0.8,0.8 c0,0.3-0.3,0.5-0.6,0.5l0,0c-0.7,0.1-1.2,0.5-1.5,1l0.1-0.1c-0.5,0.3-0.9,0.7-1.1,1l0.1-0.1c-0.5,0.3-0.9,0.7-1,1l0.1-0.1 c-0.4,0.3-0.7,0.7-0.9,1l0,0c-0.4,0.3-0.7,0.6-1,0.9l-0.2,0.1c-0.2,0.4-0.5,0.7-0.9,0.9l-0.2,0.2c-0.2,0.4-0.5,0.7-0.9,0.9l-0.2,0.2 c-0.2,0.4-0.5,0.7-0.9,0.9l-0.2,0.2c-0.2,0.4-0.5,0.7-0.9,0.9l-0.2,0.2c-0.2,0.4-0.5,0.7-0.9,0.9l-0.2,0.2c-0.2,0.4-0.5,0.7-0.9,0.9 l-0.2,0.2c-0.1,0.4-0.5,0.7-0.9,0.9l-0.2,0.2c-2.2,1.8-4.2,3.9-6,6.1l-0.2,0.2c-0.2,0.4-0.5,0.7-0.9,0.9l-0.2,0.2 c-0.2,0.4-0.5,0.7-0.9,0.9l-0.2,0.2c-0.2,0.4-0.5,0.7-0.9,0.9l-0.2,0.2c-0.2,0.4-0.5,0.7-0.9,0.9l-0.1,0.1c-0.3,0.4-0.6,0.8-0.9,1.1 l0,0c-0.4,0.3-0.8,0.7-1,1.1l0.1-0.1c-0.5,0.3-0.9,0.7-1,1.1l0.1-0.1c-0.5,0.3-0.9,0.7-1,1.1l0.1-0.1c-0.8,0.3-0.6,1.4-1.2,1.8 l-0.2,0.2c-0.2,0.4-0.5,0.7-0.9,0.9l-0.2,0.2c-0.2,0.4-0.5,0.8-0.8,1l0,0c-0.4,0.3-0.7,0.8-0.9,1.1l0.1-0.1c-0.5,0.3-0.9,0.8-1,1.2 c0,0.4-0.2,0.7-0.5,0.9c-0.1,0.4-0.4,0.7-0.7,0.8l-0.2,0.2c-0.2,0.4-0.5,0.8-0.8,1l0,0c-0.4,0.3-0.7,0.8-0.9,1.1l0.1-0.1 c-0.8,0.4-0.5,1.4-1.2,1.8l-0.2,0.2c-0.2,0.4-0.5,0.8-0.8,1l0,0c-0.4,0.4-0.7,0.8-1,1.1l0.1-0.1c-0.8,0.4-0.5,1.4-1.2,1.9l-0.1,0.2 c-0.3,0.4-0.6,0.8-0.9,1l0,0c-1.9,1-4,2-5.5-0.3c-1.4-2.1,0.1-3.9,1.3-5.5c9.4-12.4,19.6-24.4,30.3-35.7c1-1.1,2.4-2.1,2.7-4.2 c-5.6,1.7-9.6,5.5-13.6,9c-12.8,11.2-24.3,23.7-33.3,38.4c-3.6,6-8.2,11.5-12.3,17.2c-5.7,7.8-9.1,16.8-13,25.6 c-6.9,15.7-12,32.1-16.6,48.5c-0.8,2.8-0.8,5,2,6.7c3,4.6,6.5,8.4,12.2,10.1c4.8,1.4,2.7,5.7,2.4,9.1c0,4.5,0,8.9,0.1,13.4 c0.7,40,12.4,76.3,36.5,108.4c3.9,5.1,8.8,9.1,13.7,13.2c32.4,26.9,69.2,45.8,109.1,58.8c24.3,7.9,49.4,13.5,74.8,16.7 c24.3,3.2,48.9,4.6,73.4,4c59.5-1.3,116.9-12.4,171.6-36.4c24.6-10.9,47.6-24.7,67.9-42.4c22.9-19.9,41.1-43.3,51.5-72.2 c2.9-8.4,5-17.1,6.2-25.9c0.6-4.6,2.7-6.7,6.2-6.9c4.1-0.2,6.8,2.2,6.7,6.7c-0.2,3.8-0.7,7.5-1.3,11.2c-2.4,13.4-6.5,26.4-12.1,38.8 c-0.4,0.8-0.6,1.6-0.9,2.4c-0.5,0.7-0.3,1.5-1,2.1l0,0c-5.8,16.8-16.4,30.4-28,43.3c-37.1,41.1-83.6,67.5-135.3,85.6 c-34.7,12.2-70.5,19.3-107.2,22.6c-19.3,1.9-38.8,2.5-58.1,1.7c-57.5-2.7-113.1-14.1-165.8-38.1c-18.6-8.5-36.2-19-52.7-31.2 c-9.1-6.7-18.8-12.6-27.3-20.2c-3.7-3.3-7.8-6.3-9.4-11.4c-8-8.6-12.9-18.9-18.5-29c-11.5-20.6-19.3-43-23.1-66.3 c-2.7-15.8-3.6-31.7-2.7-47.7c0.7-11.6,1.8-23.2,4.9-34.5c0.8-1,0.2-2.4,0.9-3.4l0.3-1.7c0.3-0.8,0.6-1.6,0.8-2.4 c0.1-0.6,0.2-1.1,0.3-1.7c0.3-0.8,0.6-1.6,0.8-2.4c0.1-0.6,0.2-1.1,0.3-1.7c0.5-0.7,0.3-1.5,0.8-2.2c-0.1-0.3,0-0.7,0.1-0.9 c0.6-0.7,0.5-1.6,0.9-2.4c-0.2-0.2-0.1-0.5,0.1-0.7l0,0C979.8,1117.8,979,1116.4,979.9,1115.5z" style=""/>
  <path id="path450" class="st9" d="M871.8,422.1c-1,23.8-2.4,48.7-10.5,72.8c-4.8,14.1-11.2,27.3-20.8,38.8c-5.8,7-13,12.8-21.3,16.8 c-15.9,7.4-31,5.1-45.7-3.2c-14.2-8-23.8-20-31.1-34.1c-8.8-16.9-13.7-35.1-16.2-53.9c-1.7-12.9-3.3-25.8-2.9-38.9 c0.7-26,4.3-51.6,15.1-75.5c6-13.3,13.8-25.4,25.2-34.8c9.7-8.1,21.7-12.9,34.3-13.8c17.3-1.2,30.7,7.1,41.8,19.7 c13.2,14.9,20.6,32.7,25.6,51.6C869.8,384.9,871.6,402.8,871.8,422.1z" style=""/>
  <path id="path452" class="st9" d="M215.1,436.6c-0.1-17.7,2.4-35.2,7.3-52.3c2.9-9.4,4.8-18.9,8.3-28.1 c5.4-13.9,12.4-26.8,22.6-37.8c8.5-9.1,18.6-15.9,31.2-17.8c14.1-2.1,26.5,2.2,37.3,11.1c11.5,9.3,19.3,21.4,25.4,34.6 c7.6,16.8,11.9,34.7,13.8,53c0.9,9.2,1.9,18.4,1.6,27.6c-0.9,26.4-4.8,52.3-15.4,76.7c-5.9,13.5-13.1,26.1-23.8,36.4 c-9.1,8.6-19.5,15.1-32.4,16.5c-9.4,1-19-1-27.3-5.7c-11.6-6.4-20-16-26.9-27.1c-9.6-15.8-15.1-33-18.4-51 C216.2,460.9,215,448.7,215.1,436.6z" style=""/>
  <path id="path454" class="st10" d="M 579.4 1317.6 C 579.2 1297.4 582.8 1277.8 591.8 1259.6 C 598.9 1245.1 608.9 1232.6 622.8 1223.9 C 630.3 1219.1 639 1216.2 648 1215.6 C 658.4 1215 668.1 1216.4 677.5 1220.8 C 684 1224 689.9 1228.3 694.9 1233.4 C 703 1241.6 708.8 1251.1 713.2 1261.7 C 723 1285 724.6 1309.2 723.4 1334 C 722.7 1346.7 720.4 1359.3 716.5 1371.3 C 712.2 1384.7 706.1 1397.4 694.9 1406.8 C 686.2 1414.2 675.1 1418.3 663.6 1418.4 C 639.5 1419 619.5 1409.5 603.9 1391 C 597.6 1383.5 592.6 1374.9 589 1365.9 C 582.7 1350.8 579.5 1334.2 579.4 1317.6 Z M 680.7 1279.6 C 678 1272.6 674.2 1266.4 668.5 1261.4 C 657.4 1251.6 642.4 1254.4 634.1 1263 C 628.3 1269 624.1 1276.2 621.7 1284.2 C 616.4 1301.1 615.2 1319 618.1 1336.5 C 620 1347.8 623.3 1358.4 629.8 1368 C 633.5 1373.6 638.7 1378.1 644.8 1380.9 C 654.3 1385.1 664.5 1383.8 672 1376.5 C 677.7 1371 681.1 1364 683.1 1356.5 C 686.2 1345 688.2 1333.3 687.9 1325.7 C 687.8 1306.9 686 1292.8 680.7 1279.6 Z" style=""/>
  <path id="path458" class="st10" d="M453.7,1357c7.3,6.7,14.4,12.4,22.8,16.2c8.9,4.1,18.3,5.9,28,3.3c8.7-2.3,13.8-8.1,14.6-17 c1-10.5-1.2-19.9-9.8-26.8c-4.9-3.9-10.8-6.2-17.1-6.5c-9.4-0.9-19,0.8-27.6,4.8c-2.9,1.4-4.9,0.9-7.4-1c-4.4-3.5-9-6.8-13.8-9.9 c-3.7-2.4-5-5.2-4.9-9.8c0.1-9.6,0-19.2,0.6-28.7c1-18.7,4-37.1,8.9-55.2c0.7-2.6,1.7-3.6,4.5-3.6c13.8,0.2,27.5-0.9,41.2-0.7 c15.9,0.2,31.6-0.2,47.5-0.3c1.2,0,2.4,0.1,3.6,0c2.1-0.1,3.1,0.5,2.9,2.9c-0.6,5.1-0.7,10.3-1.2,15.4c-0.6,4.8-0.9,9.6-1,14.3 c0,4.7,0,4.8-4.8,4.8c-18.2,0-36.5,0-54.7,0c-2.4,0-4.8,0-7.2,0c-4.3,0.1-4.5,0.1-4.8,4.2c-0.6,6.2-1.7,12.4-1.6,18.5 c0,2.3-0.2,4.5-0.3,6.7c-0.1,3.9,0.2,4.3,4,3.2c8.9-2.6,18.3-3.1,27.6-1.7c11.8,1.8,22.6,5.9,31.5,13.9c4.3,4,7.9,8.6,10.5,13.9 c4.9,9.4,7.3,19.5,8.5,30c1,9.8,0.9,19.5-1.4,29.1c-4.8,19.1-17.5,31.1-36.9,35.1c-14.5,3-29.6,2.1-43.7-2.7 c-8.6-3-16.6-7.4-23.8-13c-3.8-2.8-7.3-5.7-10.6-8.9c-0.9-0.9-2-1.4-1-2.9C442.3,1375.4,447.8,1366.3,453.7,1357z" style=""/>
  <path id="path460" class="st10" d="M380.6,1275.3c-6-5.1-12.5-9.6-19.5-13.2c-9.7-4.9-20-7.6-30.8-3.8c-7.1,2.4-10.9,8.1-11.2,15.5 c-0.4,7.9,3.5,12.3,10.2,15.6c7.8,3.7,16,6.2,24.1,8.9c12.4,4.2,24.6,8.6,35.2,16.7c10,7.4,17,18.1,20,30.3c3,12.4,4.3,24.6,0,37 c-3.9,11.4-11.6,19.3-22.5,24c-14,6.1-28.5,6.7-43.4,3.7c-17.8-3.5-33.3-11.6-46.6-23.7c-4.7-4.2-4.7-4.2-1.8-9.6 c4-7.8,8.1-15.5,12.4-23.5c3.3,2.6,6.3,4.8,9.3,7c9.2,6.7,18.9,12.4,30.3,14.7c6.6,1.4,13.4,1.3,19.9-0.3c6.8-1.8,10.7-6.8,10.4-14 c-0.4-7.4-3.7-12.8-10.4-16.5c-10.7-6.1-22.7-8.7-34.1-12.8c-12.9-4.6-25.7-9.5-35.2-20.2c-2.7-2.9-4.8-6.3-6.6-9.9 c-3.9-8.6-6-17.4-5.1-26.9c0.7-7.4,2.2-14.5,5.8-21.2c7.7-13.9,19.5-22.8,34-28.4c14.1-5.4,28.6-5.7,43.1-2.6 c11.1,2.4,20.5,8.6,28.8,16.2c5.9,5.5,5.9,5.5,1.2,12.2c-4.7,6.7-9.7,13.3-13.9,20.4C383,1272.5,381.9,1274,380.6,1275.3z" style=""/>
  <path id="path462" class="st11" d="M1013.1,1315.6c6.3,5.6,12.1,11.7,18.7,16.8c42.6,33.2,90,56.6,142.7,69.1 c22,5.2,44.4,9,66.9,11.3c20.3,2,40.8,2.6,61.2,1.8c19-0.8,38-2.6,56.8-5.7c27.6-4.4,54.8-11.4,81.1-21c32.6-12,63.2-27.9,90.7-49.1 c21.7-16.6,40.9-35.7,55.7-58.8c3.5-5.5,6.7-11.2,10-16.8c-1,7.2-4.1,13.8-7,20.2c-6.7,14.8-14.9,28.9-22.7,43.2 c-4.2,7.6-10,13.8-16.7,19.2c-4.9,4-9.8,8-14.6,12.1c-0.8,0.8-1.7,1.1-2.8,1.3c-4.8,3.8-10.8,5.1-16.1,7.9 c-18,9.4-36.1,18.5-53.2,29.5c-12.2,7.8-25.1,13.9-38.6,19.4c-21.3,8.7-43.2,13.2-65.8,15.4c-6.3,0.6-12.7,1.4-18.6,4 c-7.8,3.3-16,4.4-24.1,4.5c-11.4,0.1-22.6,1.9-33.9,1.2c-23.6-1.4-47-2.8-70.4-7.4c-23-4.5-44.7-11.9-65.9-21.2 c-4.6-1.1-8.3-3.9-12.1-6.5c-1.7-1.3-3.8-2.2-6-2.5c-10.3-3.9-20.2-8.5-29.7-14.1c-19.4-11-36.8-25.1-54-39.1 c-9.3-7.6-18.5-15.2-26.9-23.8C1014.9,1323.5,1012.5,1320.3,1013.1,1315.6z" style=""/>
  <path id="path464" class="st10" d="M152.3,1248.7c6.3-7.1,13.1-13.6,21.5-18.1c11.9-6.5,24.3-11,38.2-10.8c6.7,0.1,13.3-0.3,20,1.6 c10.7,2.8,20.1,9.2,26.5,18.3c1.8,2.5,4.7,5,4.8,7.7c0.2,2.7-3.4,4.8-5.3,7.1c-5.8,7.2-11.5,14.5-17.3,21.9c-2.8-1.5-4.3-4-6.3-6.1 c-5.7-5.7-11.8-11.1-19.8-13.5c-19.3-5.6-35,4.8-42.5,19.6c-2.2,4.3-3.9,8.7-4.3,13.6c0.2,0.2,0.3,0.5,0.2,0.7 c-0.1,0.2-0.2,0.3-0.3,0.3c-0.2,0.2-0.3,0.5-0.1,0.7c0,2.6,1,5.1,0.7,7.7c0,2.4,0,4.8,0,7.1c-0.1,1.8,0.2,3.8-1.3,5.2 c-3.9-1-2.6-4.3-2.9-6.7c0.8-5.6-0.3-11.3-2.9-16.3c-5.8-11.8-8.8-24.3-10.5-37.3C150.6,1250.3,151.3,1249.2,152.3,1248.7z" style=""/>
  <path id="path466" class="st5" d="M1456.6,1143.4c2.1-1.9,4.8-2.7,7.1-3.9c17.6-8.6,34.8-18.3,51.4-28.8c1.1-0.8,2.3-1.5,3.4-2.3 c0.4-0.4,0.7-0.7,1-1l0,0c3.6-3.1,7.3-6,11.3-8.6c5.5-3,11.2-5.7,16.9-8.6c6.9-3.4,10.5-2.4,14.2,4.4c0.4,2.3-1.4,3.4-2.8,4.6 c-13.9,12.5-28.3,24.3-44.6,33.7c-2.4,1.3-4.9,2.4-7.6,3c-3.4,1-5.3,2.9-5.6,6.4c-3.5,2.4-7.6,3.9-11.1,6.2 c-0.4,0.2-0.8,0.4-1.1,0.7c-0.6,0.3-1.1,0.6-1.7,0.8c-0.3,0.2-0.7,0.4-1,0.6c-0.6,0.2-1,0.4-1.5,0.8c-0.3,0.2-0.7,0.4-1,0.5 c-0.6,0.1-1,0.3-1.5,0.6c-0.3,0.2-0.7,0.3-1,0.5l-1.5,0.7c-0.4,0.2-0.7,0.3-1,0.5c-0.6,0.2-1,0.4-1.6,0.6c-0.4,0.2-0.8,0.3-1.1,0.5 c-0.6,0.3-1.1,0.5-1.7,0.8c-0.4,0.2-0.9,0.3-1.2,0.4c-1.1,0.2-2.2,0.5-3.2,0.9c-0.5,0.2-0.9,0.3-1.5,0.4c-2,0.4-4,0.8-6.1,1.1 c-4.4,0.9-7.4-0.6-9.3-4.5C1451.2,1150.6,1452.7,1146.4,1456.6,1143.4z" style=""/>
  <path id="path474" class="st10" d="M225.7,1372.7c0.4,0.1,0.7,0,1-0.2c0.6-0.5,1.5-0.3,2.1-0.9c7.7-2.3,12.4-8.4,17.1-14.2 c4.3-5.2,4.2-5.3,8.7-0.3c5.4,5.9,10.9,11.8,16.4,17.7c4.7,4.9,3.3,4.5,0.9,8.5c-5.5,9-13.1,16.1-21.6,22.2 c-0.3,0.4-0.7,0.7-1.1,0.8H249c-0.8,1-1.8,1-2.9,0.7c-7.3-8.4-14.8-16.6-21.2-25.7c-2.6-3.7-5.3-5.4-9.7-5.2c-4.8,0.2-4.8-0.1-6.1-3 c0.9-0.7,2-1,3-1.1c2.6-0.5,5,0.2,7.6,0C222,1371.7,223.8,1372.3,225.7,1372.7z" style=""/>
  <path id="path476" class="st15" d="M1379.2,1068.1c3.9-2.9,8.3-4.7,12.8-6.2c9-3,18-6.7,26.5-10.8c3.7-1.7,7.2-3.9,10.3-6.7 c0.9-0.9,2.1-1.3,3-2.1c2.1-1.8,4.4-3.4,6.7-4.9c0.4-0.3,0.8-0.6,1.2-0.9c0.4-0.3,0.9-0.5,1.3-0.6c1.9-0.3,3.9-0.5,5,1.3 c0.9,1.4-0.4,2.6-1.1,3.6c-5,7.1-5,8.6-0.2,16.2c1.1,1.8,2.9,3.4,1.4,5.9c-8.4,10.5-18.6,18-31.8,21.1c-3.1,0.8-6.4,1.3-9.4-0.4 c1.5-2.3,4.1-2.3,6.5-2.7c5.7-0.9,10.3-3.9,14.5-7.3c1.5-1,2.4-2.7,2.6-4.5c-2.8-0.5-4.9,1-6.9,1.9c-5.3,2.5-10.9,4.1-16.7,4.9 c-5,0.8-10.5,1.2-10.9,8.2c-2.8,0-5.5,0-8.2,0c-3.9,0-7.1-1.5-8.6-5.3C1375.8,1075.1,1375.6,1071.2,1379.2,1068.1z" style=""/>
  <path id="path478" class="st2" d="M994.4,1171.5c0-0.4,0-0.7,0-1c-0.1-5.9-0.1-6-5.7-7.4c-3.5-1-5.9-3.2-7.8-6.2 c-0.8-1.3-1.4-2.7-2.1-4.1c-3.2-4.3-0.9-8.6,0.3-12.6c1.3-4.1,3.1-7.9,5.4-11.5c0.7-1.4,1.6-2.8,2.3-4.3c0.3-0.6,0.6-1,1-1.6 c0.2-0.4,0.4-0.7,0.6-1c0.3-0.5,0.6-0.9,0.8-1.4c0.3-0.5,0.3-0.7,0.5-0.9c0.2-0.5,0.5-0.9,0.7-1.4c0.2-0.5,0.3-0.7,0.5-1 c0.2-0.6,0.5-1,0.8-1.6c0.5-0.9,1-1.8,1.6-2.8c0.3-0.6,0.7-1,1-1.5c0.2-0.4,0.4-0.7,0.6-1l0.9-1.7c0.5-1,1-2,1.7-2.9 c0.3-0.5,0.7-1,1-1.6c0.2-0.4,0.4-0.7,0.6-1c0.3-0.6,0.6-1,0.9-1.6c0.6-1.1,1.1-2.2,1.8-3.1c0.3-0.5,0.7-1,1-1.5 c0.5-0.7,1-1.3,1.3-2c0.4-0.7,0.6-1.1,1-1.7c0.5-1,1-2.1,1.6-3c5.3-7.2,8.9-15.4,12.9-23.3c1.7-3.7,4.1-7.1,7-10.1 c3-2.8,6.5-4.3,10.6-2.6c-4.8,8.3-10.4,16.1-15,24.5c-13.3,24.2-22,50.6-25.8,78C995.5,1161.4,996,1166.7,994.4,1171.5z" style=""/>
  <path id="path482" class="st3" d="M986.1,1128.1c-0.4,2.7-1.8,4.8-3,7c-3.1,5.3-4.6,11.5-4.2,17.8c-2.8-0.3-3.3-2.2-3-4.5 c0.2-2.6,0.7-5.1,1.4-7.6c4.8-13.4,8.4-27.2,14-40.4c3.6-8.5,8-16.7,11.5-25.2c0.4-0.8,0.9-1.5,1.4-2.1 c8.3-10.1,15.1-21.2,22.5-31.8c6.5-9.2,14.7-16.7,22.8-24.4c4.4-4.3,9.3-8,14.7-11c0.8-0.4,1.5-0.8,2.3-1.1c0.8-0.4,1.7-0.7,2.4,0 c0.9,0.9,0.5,1.9-0.1,2.8c-1,1.4-1.9,2.8-3,4.1c-10.2,10.6-20,21.5-28.5,33.5c-1,1.2-2,2.4-3.1,3.4c-0.8,0.9-1.8,1.8-1.1,3.1 c0.6,1.1,1.7,1,2.7,1c0.7,0,1.3,0,2.1,0c0,0.5-0.3,0.9-0.9,1c-5.8-0.9-9.4,2.7-12.3,6.7c-4,5.4-6.5,11.7-9.3,17.7 c-2.2,4.7-5,8.9-8.5,12.6c-4.3-3.1-5-3.1-6.7,1.8c-3.3,10-8.6,18.9-12.8,28.4C986.2,1123.3,985.2,1125.5,986.1,1128.1z" style=""/>
  <path id="path484" class="st17" d="M1146,1410.8c6.1,1.4,11.4,4.8,17,7.1c15.4,6.7,31.6,11.2,48.3,13.7c5.2,0.8,10.4,2.4,15.6,3.2 c7.9,1.3,16,2,23.8,3c9,1.2,18.1,0.3,27.2,1.5c6.8,1,13.8,0.9,20.5-0.4c1.7-0.3,3.4-0.4,5.1-0.3c8.3,0.6,16.4-0.9,24.6-1.1 c3.1-0.1,6-1.5,8.8-2.7c8.6-3.4,17.5-4.7,26.5-5.6c10.1-1,20-2.7,29.9-4.5c8.5-1.6,16.9-4.3,24.9-7.8c8.9-3.9,18.4-6.5,26.9-11.3 c8.2-4.7,16.1-9.8,24.2-14.5c9-5.3,17.9-10.8,27.5-15.1c6.2-2.8,11.8-6.9,18.1-9.9c2.8-1.3,5.4-2.9,8.6-3c3.5-0.2,6.1-3,9.5-3.8 c-1.4,2.6-4.2,3.3-6.5,4.8c-4.4,2.8-8.6,6.1-13.3,8.6c-1,0.8-2.2,1.2-3.1,2.1l0,0c-14.5,8.8-29.4,17.2-43.7,26.2 c-13,8.2-27.4,13.4-41.7,18.6c-18.4,6.7-37,12.9-56.4,15.1c-18.5,2.1-36.7,6.4-55.6,6.9c-14.1,0.4-28.1,0.2-42.2,0.7 c-21.9-0.6-43.6-3.4-64.8-8.6c-4.8-1.2-9.7-2.2-14.5-2.8c-0.6,0-1.1-0.1-1.7-0.2c-1.2-0.5-2.6-0.9-3.9-1.2 c-12.4-2.9-24.2-7.5-35.3-13.6C1148.4,1414.7,1145.7,1414,1146,1410.8z" style=""/>
  <path id="path490" class="st19" d="M1501.1,1142.4c-1.9-4.1-1.7-5.4,2.2-6.7c14.3-4.6,25.9-13.7,37.4-22.9 c7.2-5.8,14.3-11.7,21.1-18c0-0.2,0.1-0.4,0.1-0.6c0.1-0.4,0.3-0.7,0.5-1c0.1-0.2,0.2-0.3,0.3-0.5c0.4-0.8,0.9-1.4,1.2-2.1 c1.4-1.7,2.9-3.3,4.8-4.7c0.9-0.7,2-1,3.1-1.2c0.5,0,0.9,0,1.3,0.1c0.7,0.2,1.1,0.7,1.5,1.2c0.3,0.6,0.5,1.1,0.8,1.7 c0.3,2,0,4.1-1,6c-3.9,8.3-9.6,15.6-16.6,21.3c-8.6,6.7-16.9,13.8-26.7,18.9c-7.7,4.1-15.2,8.5-24.2,9c-1.2-0.2-2.4-0.2-3.6-0.2 C1502.3,1143,1501.5,1143.1,1501.1,1142.4z" style=""/>
  <path id="path492" class="st12" d="M1351.3,1439.7c-4.4,1.6-8.9,1.8-13.5,2c-6.2,0.2-12.3,1-18.3,1.8c-4.2,0.6-8.6,0.8-12.7,1.2 c-8.9,1.1-18,1.6-26.9,3.6c-4.5,0.9-9.1,1.2-13.7,1.7c-9.4,1-18.8,0.8-28.2,1c-7.8,0.2-15.3-1.2-22.9-2.3 c-10.5-1.4-20.8-3.9-30.9-7.3c-6.5-2.2-13.3-3.7-18.7-8c1.5-1.4,3.1-1,4.8-0.4c16,5.2,32.6,8.2,49.4,8.7c5.7,0.3,11.3-1,16.9-0.6 c18,1.3,36,1,54,1c2.2,0.2,4.5,0,6.7-0.4c4.6-0.6,9.3,0.5,13.8-0.9c0.6-0.2,1.1-0.3,1.7-0.3c5.1-0.4,10.3,0.7,15.3-0.9 c0.6-0.1,1.1-0.2,1.8-0.2c4.1,0,8.2-0.4,12.3-1.1C1345.3,1438.1,1348.5,1437.2,1351.3,1439.7z" style=""/>
  <path id="path500" class="st22" d="M1270.9,1440.7c7.9,0,15.9-0.3,23.8,0.1c9.5,0.4,18.8-1,28.2-1.3c10.1-0.3,20-2.5,29.9-4.2 c6.4-1,12.8-1.9,19.3-2.8c8.4-1,16.5-2.9,24.5-5.5c5.2-1.8,10.5-3.3,15.8-4.6c2.3-0.6,4.6-1.4,6.7-2.4c10.9-4.6,22.5-7.3,33-12.9 c6-3.2,12.1-6.5,17.8-10.3c5.3-3.5,11-6.3,16.4-9.4c5-2.9,10.3-5.6,15.1-8.6c2.8-1.7,5.5-3.4,8.8-4.1c-0.5,0.9-1.2,1.6-2.2,2.1 c-10.1,6.5-19.9,13.3-29.9,19.8c-10,6.7-20.7,12.1-31.9,16.2c-12.5,6.3-25.8,11.2-39.4,14.7c-19.2,5-38.8,8.8-58.4,11.3 c-6.6,0.9-13.2,1.2-19.8,1.8c-5.4,1.5-11.1-0.5-16.5,1c-12.7,1-25.6,1.1-38.4,0.9C1272.5,1442.7,1270.9,1442.7,1270.9,1440.7z" style=""/>
  <path id="path502" class="st23" d="M1297.8,1442.8c-0.8,0.8-1.8,1.1-2.8,1c-13.9,0-27.7,0.1-41.6-0.1c-3.5-0.1-7-1.1-10.6-1 c-5.1,0.2-10.2,0-15.4,0.9c-3.9,0.8-7.9,0.6-11.7-0.5c-1.5-0.5-3-0.5-4.6-0.1c-0.9,0.2-1.8,0.8-2.5,0.6c-6.9-2.2-14.2-2-21.3-3.9 c-7.2-2-14.2-4.6-21.6-6.2c-2.8-1.8-6.3-2.2-8.3-5.1c2.1-1.8,4.2-0.7,6.3-0.1c14.3,3.9,29.1,5.9,43.9,5.9c9.7,0.9,19.1,3.8,28.8,4.8 c9,1,18.1,1.1,27.1,2.4C1274.9,1443,1286.4,1441.4,1297.8,1442.8z" style=""/>
  <path id="path510" class="st0" d="M102,577.1c-1-2.8-1.6-5.5-0.4-8.6c0.4-1.1,0.5-2.4,0.2-3.5c-0.7-3.3-1.8-6.7,0.9-9.8 c-1.3-4.6,1.2-8.5,2-12.7c0.6-3.3,2-7,0.4-10.5c-0.2-0.7-0.1-1.3,0.2-2c3.3-6.5,2-14.1,4.8-20.7c3.1-7.4,3.1-15.7,6.7-23 c1.3-2.9,3-5.9,3.7-8.6c1-4.5,3.1-8.6,4-12.9c1.5-8.6,5-16.6,7.3-25.1c1.6-6.2,5.3-10.9,9.6-15.4c-2.6,8-6.5,15.5-9,23.5 c-7,21.9-14.8,43.4-20.3,65.7c-5,20.3-8.7,40.8-9.3,61.8C102.5,575.8,102.3,576.5,102,577.1z" style=""/>
  <path id="path514" class="st27" d="M1206.9,1435.6c-5.9-0.1-11.8-0.2-17.7-0.8c-8.4-0.8-16.3-2.9-24.5-4.4c-2.6-0.5-4.6-2.5-7.3-2.1 c-0.9-0.8-2.1-1.2-3.1-2.1c-2.9-0.6-5.1-2.7-7.4-4.4c-5.4-4.1-9.6-9.5-13.2-15.3c2.4-1.1,4.2,0.5,5.3,1.8 c7.4,8.8,18.1,11.3,28.3,14.7c5.5,1.9,11.1,3.4,16.7,4.8c1.6,1,3.6,0.6,5.3,1.4l0,0c5,0.8,10,2.1,14.9,3.2 C1205.8,1432.8,1208.2,1432.7,1206.9,1435.6z" style=""/>
  <path id="path520" class="st30" d="M1394.9,1083.4c-3.8-2.8-3.8-4.4,0-6.5c2.5-1.2,5.1-2,7.9-2.3c7.1-1,14.1-2.9,20.6-6.1 c1-0.6,2.2-0.9,3.3-1.3c1.4-0.4,3-1.5,4.2,0.4c1,1.7-0.2,2.9-1.1,4.1c-4.7,5.9-10.9,9.2-18.1,10.7c-2.2,0.5-4.4,0.7-6.6,1 c-3.1-0.4-6.3-0.4-9.4,0C1395.3,1084.1,1395,1084.1,1394.9,1083.4z" style=""/>
  <path id="path528" class="st34" d="M1575.2,1087.9l-1-1.1c-0.4-0.5-0.9-0.8-1.4-0.9l-0.3,0.1l-0.3-0.1c-0.1-0.1-0.3-0.3-0.3-0.4 c-1.4-8.2-3.6-9.4-11-5c-8.5,4.9-16.7,10.5-24.9,16c-1.6,1.4-3.3,2.7-5,3.9c-4,2.1-7,5.6-11.4,7.2c3.2-4.9,8.4-7.9,12.5-11.7 c2.6-2.4,4.9-5.1,8.1-6.9c7-5.4,13.6-11.5,21.3-16.1c2.9-1.8,6.1-3.2,9.3-4.4c3-1,6.2-1,8.6,1.6s2.1,5.7,0.9,8.7 c-0.8,1.7-1.7,3.4-2.8,4.9C1576.6,1085,1575.2,1086.2,1575.2,1087.9z" style=""/>
  <path id="path532" class="st36" d="M1462.8,1044.5c-2.9,4.2-7,6.9-11.4,9.3c-0.6-1-0.1-2,0.4-2.8c6.5-6.7,11.1-14.7,13.6-23.7 c1.6-5.9,0.9-6.8-5.1-6c-1,0.2-2,0.2-2.8-0.8c2.3-4.6,6.5-6.8,10.7-8.6c3.2-1.3,8.1,2.6,9,6.7c0.8,3.1-0.1,6.1-1.6,8.9 C1472.5,1033.7,1467.3,1038.9,1462.8,1044.5z" style=""/>
  <path id="path534" class="st37" d="M1328.6,1440.7c0.8-0.8,1.8-1.1,2.9-1c12.1-0.1,23.7-2.9,35.5-4.5c12.7-1.5,25.1-5,37.5-8.4 c10.7-2.8,21.3-6.6,31.4-11c3.3-1.4,6.7-2.8,10.3-3.1c-1,2.2-3.1,3.1-5.1,4.1c-13,6.1-26.8,10.6-40.9,13.4 c-13.3,2.8-26.5,5.2-39.8,7.9c-3,0.6-6.2,0.4-9.1,1.4C1343.7,1439.2,1336.3,1441.4,1328.6,1440.7z" style=""/>
  <path id="path538" class="st18" d="M1577.3,1083.6c0.5-2.8,2.1-5.2,2.2-8.4c0.1-4.1-2.1-7.6-7.7-5.7c-3.8,1.1-7.3,2.8-10.6,4.8 c-5.2,3.5-10.5,6.8-15.3,11.1c-1.6,1.4-3.3,2.9-5.7,3.2c3-4.8,8-7.4,12.1-11.1c6.2-5.5,13.6-9.1,20.4-13.6c3.1-2.1,6.5-3.1,10-0.4 c2.8,2.2,4.2,6.2,2.5,9.1C1582.8,1076.7,1580.7,1080.7,1577.3,1083.6z" style=""/>
  <path id="path542" class="st39" d="M1446.2,1063c-0.2-0.9-0.1-2-0.6-2.4c-3.6-2.6-4.1-6.9-6.1-10.4c-1.3-2.3-0.9-5.2,1.1-7 c1.7-1.6,3.2-3.3,5.2-5.3c-2.3-1.1-4.2-0.5-5.9-0.7c-0.4-2.3,1.5-2.8,2.9-3.7c3.2-1.5,5.5-4.5,8.6-6c2.5-1.2,4.9-2,5.5,2 c-0.1,0.5-0.3,1-0.7,1.3c-1.9,1.7-3.6,3.5-5.3,5.4c-2.7,3.2-4,6.7-2.3,10.8c1.8,4.4,0.1,8.6-0.7,12.8 C1447.8,1061,1447.4,1062.2,1446.2,1063z" style=""/>
  <path id="path544" class="st40" d="M1462.8,1044.5c1-4,4.8-6,6.8-9.3c2.4-3.8,5-7.3,6.2-11.7c1.2-4.8-0.4-8-4.8-10 c-1.3-0.8-3-0.8-4.4,0.1c-3.4,1.9-6.7,4-9.1,7.1c0,0.2-0.1,0.4-0.1,0.6c-0.2,0.3-0.4,0.6-0.7,0.9c-0.3,0.2-0.7,0.3-1,0.4 c-0.6,0-1-0.2-1.3-0.7c2.4-4,6.7-5.8,9.8-8.9c0.9-1,2.3-1.5,3.2-2.6c2.9-3.2,6.2-3,9.8-1.3c3.3,1.5,4.1,4.3,4.1,7.6 c0.2,2.3-0.3,4.5-1.3,6.5C1475.2,1030.8,1470.1,1038.5,1462.8,1044.5z" style=""/>
  <path id="path550" class="st43" d="M1473.1,1154.9h1c0.6-0.7,1.5-0.4,2.1-1c0.9-1,2.3-0.1,3.1-1l0,0c0.6-0.6,1.5-0.4,2.1-1l0,0 c0.9-1,2.3-0.1,3-1l0,0c0.6-0.6,1.5-0.4,2.1-1l0,0c0.6-0.6,1.5-0.4,2.1-1l0,0c0.9-0.8,2.2-0.8,3,0c-11,6.8-22.6,11.8-35.8,12.4 c-1.5,0.1-3,0.4-4.6,0.9c-1.8,0.5-3.8-0.1-5.2-1.3c-6-5.1-5.7-8.9,1.1-12.9c1.3-0.8,2.4-2,4.1-2c0.7,1.2-0.1,2.3-0.5,3.4 c-2,6.4,1.5,10.6,8.2,9.5c3.6-0.7,7.4-1.1,10.8-2.6C1470.8,1155,1472.3,1155.8,1473.1,1154.9z" style=""/>
  <path id="path552" class="st32" d="M1448.3,1060c0-1.5-0.9-2.8-0.5-4.5c0.9-2.8,0.7-5.9-0.7-8.6c-1.6-3.7-0.9-6.8,1.6-10 c2.2-2.9,4-6,7.8-7c2.6,6.7-0.3,12.5-2.3,18.6c-0.5,1-1.1,2.1-1.8,3l-1,2.1L1448.3,1060z" style=""/>
  <path id="path556" class="st0" d="M105.7,647.1c-1.6-0.1-2.9-1.4-2.9-3l0,0c-0.1-6.3-1-12.4-2.9-18.4c-0.2-0.7-0.2-1.3-0.1-2 c1.7-7.4,0.5-15,0.8-22.5c0-1.2-0.2-2.4-0.5-3.5c-0.8-3.8-1.9-7.5,0.2-11.4c0.8-1.3,0.3-3.3,0.3-5c0.1-1.5-0.3-3.1,1.2-4.2 c0,13.6-1,27.1,0,40.7C102.6,627.5,103.3,637.4,105.7,647.1z" style=""/>
  <path id="path558" class="st45" d="M1470,1155.9c-4.2,2.7-9,2.8-13.6,4.1c-3.5,1-5.5-1.2-7.1-3.8c-1.5-2.4-1.5-5.4,0-7.8 c0.7-0.9,1.4-1.9,2.2-2.8c1.6-1,3-2.4,5.1-2.2c-1.2,1.8-2.1,3.9-2.5,6.1c-1,4.8,2,8.3,6.8,7.6C1464,1156.7,1467,1156.3,1470,1155.9z " style=""/>
  <path id="path562" class="st46" d="M1394.9,1083.4c0.3-0.1,0.6,0,0.8,0.2c-5.3,1.8-11.1,1.8-16.5,0c-3.5-1.1-6.1-3.6-6.1-7.5 c-0.2-3.8,2.4-7.1,6.1-8c-1.6,2.7-1,5.7-1.3,8.6c-0.2,3.1,4.1,6.7,7.8,6.9C1388.8,1083.7,1391.8,1083.5,1394.9,1083.4z" style=""/>
  <path id="path570" class="st0" d="M208.1,827.7c-4-0.8-5.8-4.3-7.8-6.9c-2-2.9-4.4-5.7-6.8-8.2c-1.4-1.3-2-2.7-0.9-4.5 c3.3,2.5,5.9,5.7,8.4,9c0.8,1.6,1.9,3,3.2,4.3l-0.1-0.1c0.2,0.6,0.6,1,1.1,1.1l-0.1-0.1c0.2,0.5,0.6,1,0.9,1.2l0,0 C206.5,825,208.7,825.7,208.1,827.7z" style=""/>
  <path id="path572" class="st0" d="M119.6,694.5c-2.7-1-4.4-3.7-4.3-6.6c0-3.1-0.8-6.2-2.4-8.8c-1-1.7-1.3-3.5,0.2-5.2 C115.7,680.7,117.8,687.6,119.6,694.5z" style=""/>
  <path id="path574" class="st0" d="M181.6,794.6c-3.2-1.1-5.8-3.6-6.9-6.8c-0.7-1.6-1.6-3-2.9-4.1c-1.3-1-2-2.8-1.8-4.5 C174.4,783.9,178.3,789,181.6,794.6z" style=""/>
  <path id="path578" class="st0" d="M128.3,716.3c-1.4-0.1-2.6-1.2-2.8-2.6c-1-4.3-5-7.3-4.4-12.2c0.1-0.3,0.3-0.7,0.5-0.9 C124.2,705.7,126.4,710.9,128.3,716.3z" style=""/>
  <path id="path580" class="st49" d="M234.9,269.4c0.4-0.4,0.7-0.7,1-1c1.4-0.7,2.9-1.8,4.3,0.2c-1.9,2.6-4,4.9-6.3,7.1 c-1-0.8-0.8-1.6-0.4-2.6C234.1,271.9,234.5,270.7,234.9,269.4z" style=""/>
  <path id="path582" class="st45" d="M1491.6,1148.7h-3c4-2.5,7.7-5.3,12.4-6.3l2.1,0.4v0.6C1499.1,1144.6,1495.5,1147,1491.6,1148.7z " style=""/>
  <path id="path584" class="st36" d="M1454.6,1021.8h2.1c0.3,0.4,0.4,0.9,0.3,1.3c-3.4,3.9-7.5,7.1-12.2,9.5l-0.6-0.5 C1447.2,1028.1,1450.9,1024.9,1454.6,1021.8z" style=""/>
  <path id="path586" class="st36" d="M1443.2,1034.1c-1.3,0.7-2.5,1.7-3.1,3c-0.4,0.3-0.7,0.7-1,1c-2.8,0.8-4.3,3.7-7.2,4.2 c3.1-3.8,7-7,11.4-9.3c0.1,0.2,0.3,0.4,0.4,0.5L1443.2,1034.1z" style=""/>
  <path id="path590" class="st0" d="M189.2,804c-2.6-1.3-6-1.9-4.9-6.1C186.2,799.7,187.9,801.8,189.2,804z" style=""/>
  <path id="path592" class="st0" d="M147.6,749.2c-2.2-0.6-3.4-2.5-4.8-4c-0.7-0.8-0.4-1.5,0.4-2.1C145,744.8,146.5,746.8,147.6,749.2 z" style=""/>
  <path id="path596" class="st0" d="M108.7,659.4c-2-2-3.9-4.1-1.9-7.1C107.9,654.6,108.5,657,108.7,659.4z" style=""/>
  <path id="path598" class="st0" d="M111.8,669.8c-2.4-2.3-2.9-5.2-2.7-8.4C110.4,664.1,111.4,666.9,111.8,669.8z" style=""/>
  <path id="path600" class="st0" d="M137.1,733.7c-1.3-1-4.2-1.2-2.3-4.1C136,730.8,136.8,732.2,137.1,733.7z" style=""/>
  <path id="path602" class="st0" d="M154.5,758.3c-0.1,0.6-0.1,1.4-0.9,1.5c-0.6,0-1-0.5-1-1c0-0.1,0-0.2,0.1-0.3 c0.2-0.7,0.4-1.2,0.7-1.8C154,756.9,154.5,757.6,154.5,758.3z" style=""/>
  <path id="path604" class="st1" d="M208.1,827.7c-0.7-1.4-2.2-2.4-2-4.2c1.5,1,2.7,2.4,3.2,4L208.1,827.7z" style=""/>
  <path id="path606" class="st1" d="M210.1,830.8c0-0.8,0.1-1.5,0.1-2.2c1.4,1,2.6,2.5,3.1,4.1l-0.6,0.5 C211.2,833.2,210.9,831.8,210.1,830.8z" style=""/>
  <path id="path608" class="st1" d="M204.2,821.4c-2-0.8-3.2-2-3.2-4.3C202.2,818.5,203.7,819.5,204.2,821.4z" style=""/>
  <path id="path610" class="st0" d="M106.6,651.2c-1-0.9-2.3-1.5-0.8-3C106.4,649.1,106.7,650.1,106.6,651.2z" style=""/>
  <path id="path612" class="st1" d="M224.8,848.2c1,0.7,1.8,1.8,2.1,3l-0.4,0.3c-0.3,0.3-0.7,0.2-0.9-0.1l0,0c-0.8-0.6-1.6-1-1.6-2.2 C224.1,848.9,224.3,848.4,224.8,848.2z" style=""/>
  <path id="path614" class="st1" d="M214.4,833.8c1.1,0.7,1.9,1.7,2.2,2.9l-0.7,0.5c-1.4-0.4-2.4-1.2-2.1-2.9L214.4,833.8z" style=""/>
  <path id="path616" class="st36" d="M1431.9,1042.4c-0.5,1.2-1.7,2.1-3,2.1C1429.2,1043.2,1430.5,1042.3,1431.9,1042.4z" style=""/>
  <path id="path618" class="st5" d="M1503,1143.4c0-0.2,0-0.4,0-0.6c1.2-0.2,2.5-0.1,3.6,0.3C1505.5,1143.9,1504.3,1143.5,1503,1143.4 z" style=""/>
  <path id="path620" class="st0" d="M150.6,753.3c-1.5-0.3-2.6-1.7-2.4-3.2C149.5,750.8,150.2,752,150.6,753.3z" style=""/>
  <path id="path622" class="st22" d="M1510.3,1374.7c0.5-1.3,1.7-2.1,3.1-2.1C1512.8,1373.8,1511.6,1374.7,1510.3,1374.7z" style=""/>
  <path id="path624" class="st0" d="M142.4,742c-1.8-0.4-2.4-1.6-2.3-3.3C141.1,739.5,142,740.7,142.4,742z" style=""/>
  <path id="path626" class="st23" d="M1154.3,1426.3c1.3,0,2.6,0.8,3.1,2.1C1156,1428.4,1154.8,1427.5,1154.3,1426.3z" style=""/>
  <path id="path628" class="st0" d="M132.6,725.6c-2-0.3-1.9-1.8-1.8-3.2C131.8,723.1,132.5,724.3,132.6,725.6z" style=""/>
  <path id="path630" class="st0" d="M129.9,720.3c-1.1-0.7-2.2-1.5-1.2-3C129.7,718.1,129.8,719.2,129.9,720.3z" style=""/>
  <path id="path632" class="st1" d="M222.6,845.1c1,0.8,1.8,1.8,2.1,3l-0.3,0.2c-1.8,0.3-2.2-1-2.5-2.3 C222,845.6,222.3,845.3,222.6,845.1z" style=""/>
  <path id="path634" class="st1" d="M217.5,838c1,0.8,1.8,1.8,2.1,3l-0.7,0.5c-1.3-0.3-2.3-1.5-2-2.9l0,0L217.5,838z" style=""/>
  <path id="path638" class="st0" d="M162.4,768.9c-1-0.1-1.8-1-1.7-2.1c0-0.1,0-0.1,0-0.2C161.5,767.2,162.1,767.9,162.4,768.9z" style=""/>
  <path id="path644" class="st3" d="M514.6,69.3c0.8-1.2,2-1.1,3.1-1C516.8,69.3,515.7,69.3,514.6,69.3z" style=""/>
  <path id="path646" class="st0" d="M138.3,735.7c-1-0.3-1.4-1.2-1.2-2.1C137.7,734.1,138.2,734.9,138.3,735.7z" style=""/>
  <path id="path648" class="st0" d="M139.8,738c-0.5-0.2-1.6,0.1-0.8-1C139.5,737.1,139.8,737.4,139.8,738z" style=""/>
  <path id="path650" class="st0" d="M134.2,728.5c-1.1-0.4-1.3-1.2-1.3-2.3C133.6,726.8,134,727.7,134.2,728.5z" style=""/>
  <path id="path652" class="st0" d="M130.9,722.4c-0.9-0.4-1.3-1.2-1.1-2.2C130.6,720.7,131,721.5,130.9,722.4z" style=""/>
  <path id="path654" class="st0" d="M159.9,765.7c-0.9-0.3-1.4-1.1-1.3-2C159.4,764.1,159.8,764.9,159.9,765.7z" style=""/>
  <path id="path656" class="st0" d="M164.5,772c-0.5-0.2-1.6,0.1-0.8-1C164.3,771.1,164.6,771.5,164.5,772z" style=""/>
  <path id="path726" class="st1" d="M220.5,842.1c0.7,0.4,1.1,1,1.2,1.9c-0.1,0.2-0.1,0.4-0.2,0.6c-0.4,0.1-0.9-0.1-1.1-0.4 c-0.5-0.5-0.7-1.1-0.4-1.7L220.5,842.1z" style=""/>
  <path id="path728" class="st11" d="M1596.9,1263.2c-0.1-0.9,0.3-1.6,0.9-2.1C1598,1261.9,1597.7,1262.8,1596.9,1263.2z" style=""/>
  <path id="path730" class="st23" d="M228.8,1371.6c-0.5,0.7-1.3,1-2.1,0.9C227.2,1371.9,228,1371.5,228.8,1371.6z" style=""/>
  <path id="path732" class="st0" d="M183.3,796.7c-0.5-0.2-1.9,0.2-0.8-1.1C183,795.8,183.3,796.2,183.3,796.7z" style=""/>
  <path id="path740" class="st0" d="M168.2,777.1c-0.9-0.2-1.4-1-1.4-1.9C167.7,775.4,167.9,776.2,168.2,777.1z" style=""/>
  <path id="path874" class="st36" d="M1443.2,1033.1l1-1l0,0C1444.4,1033,1444.2,1033.4,1443.2,1033.1z" style=""/>
  <path id="path950" class="st0" d="M109.2,661.5c-0.2-0.2-0.4-0.4-0.6-0.6c0,0,0.2-0.2,0.3-0.3C109.2,660.8,109.3,661.2,109.2,661.5z " style=""/>
  <path id="path952" class="st0" d="M112.3,671.8c-0.2-0.2-0.4-0.4-0.6-0.6c0,0,0.2-0.2,0.3-0.4C112.3,671.1,112.4,671.5,112.3,671.8z " style=""/>
  <path id="path954" class="st0" d="M112.8,672.8c-0.2-0.4-0.4-0.8-0.6-1.1C112.7,671.9,113,672.4,112.8,672.8z" style=""/>
  <path id="path956" class="st0" d="M120,695.5l-0.7-1.1C119.9,694.6,120.2,695.1,120,695.5z" style=""/>
  <path id="path958" class="st0" d="M120.6,697.6c-0.2-0.2-0.4-0.4-0.6-0.6c0,0,0.2-0.2,0.3-0.3C120.6,697,120.7,697.3,120.6,697.6z" style=""/>
  <path id="path960" class="st0" d="M121.1,698.7l-0.7-1.1C121,697.6,121.2,698.2,121.1,698.7z" style=""/>
  <path id="path962" class="st34" d="M1519.6,1107.4l-1,1L1519.6,1107.4z" style=""/>
  <path id="path964" class="st0" d="M121.6,700.7c-0.2-0.2-0.4-0.4-0.6-0.6c0,0,0.2-0.2,0.3-0.4C121.6,700,121.7,700.4,121.6,700.7z" style=""/>
  <path id="path966" class="st0" d="M152.3,755.5l-1-1.3C152,754.4,152.3,754.9,152.3,755.5z" style=""/>
  <path id="path968" class="st0" d="M153.3,756.5l-0.9-1C152.9,755.6,153.3,756,153.3,756.5z" style=""/>
  <path id="path970" class="st0" d="M156.4,760.7l-0.9-1.1C156,759.8,156.3,760.1,156.4,760.7z" style=""/>
  <path id="path972" class="st0" d="M157.2,761.7c-0.2-0.3-0.5-0.6-0.7-0.9C156.9,760.9,157.2,761.1,157.2,761.7z" style=""/>
  <path id="path974" class="st0" d="M166.8,775.1l-1-1.3C166.4,774,166.7,774.5,166.8,775.1z" style=""/>
  <path id="path976" class="st0" d="M184.3,797.8l-0.9-1C183.8,796.8,184.3,797.3,184.3,797.8z" style=""/>
  <path id="path978" class="st1" d="M221.8,844c0.5,0.2,0.9,0.6,0.9,1.1l-0.3,0.3c-0.4,0.4-0.7,0.4-0.9-0.1l0,0 c-0.2-0.1-0.3-0.4-0.3-0.7c0.1-0.2,0.1-0.3,0.2-0.3L221.8,844z" style=""/>
  <path id="path980" class="st0" d="M192.5,808.1l-0.9-1.3C192.1,807.1,192.5,807.6,192.5,808.1z" style=""/>
  <path id="path982" class="st1" d="M219.6,841c0.5,0.2,0.9,0.7,0.9,1.1l-0.1,0.1c-0.9,0.2-1.2-0.2-1-1L219.6,841z" style=""/>
  <path id="path984" class="st28" d="M167.8,1291.1c0-0.4,0-0.7,0.1-1c0.1,0.3,0.2,0.5,0.3,0.8C168.2,1290.9,167.9,1291,167.8,1291.1z " style=""/>
  <path id="path986" class="st1" d="M216.6,836.8c0.5,0.2,0.9,0.6,1,1.1l-0.2,0.2c-0.9,0.2-1.2-0.2-1-1L216.6,836.8z" style=""/>
  <path id="path988" class="st1" d="M213.4,832.7c0.5,0.1,0.9,0.6,0.9,1.1l-0.2,0.2c-0.9,0.1-1.1-0.2-1-1L213.4,832.7z" style=""/>
  <path id="path990" class="st27" d="M1130.5,1404.6l1,0.9L1130.5,1404.6z" style=""/>
  <path id="path994" class="st27" d="M1132.6,1405.7l1,1L1132.6,1405.7z" style=""/>
  <path id="path996" class="st1" d="M210.3,828.6l-1-1.1C209.8,827.6,210.3,828.1,210.3,828.6z" style=""/>
  <path id="path998" class="st1" d="M206.1,823.6l-0.9-1.2C205.6,822.5,206.1,822.9,206.1,823.6z" style=""/>
  <path id="path1000" class="st1" d="M205.2,822.5c-0.6-0.2-1-0.6-1.1-1.1C204.7,821.4,205.1,821.9,205.2,822.5z" style=""/>
  <path id="path1004" class="st0" d="M213.2,832.9c0.3,0.4,0.7,0.7,1,1c0.1,1.3,0.9,2.6,2.1,3c0.3,0.4,0.7,0.7,1,1 c0.1,1.3,0.9,2.6,2.1,3l0.9,1c0,0.7,0.1,1.3,0.1,2c-4.1-2.7-6.1-7.3-9.7-10.5c-0.8-0.7-0.6-1.9-0.7-2.9L213.2,832.9z" style=""/>
  <path id="path1006" class="st0" d="M221.5,845.3c0.3,0,0.7,0,0.9,0.1c0.1,1.3,1,2.5,2.1,3c0.4,1,0.8,2,1.1,3 C222.1,850.9,221.7,848.1,221.5,845.3z" style=""/>
  <path id="path1008" class="st0" d="M225.7,851.4c0.3,0,0.6,0,1,0.1C226.1,852.1,225.9,851.9,225.7,851.4z" style=""/>
  <path id="path1010" class="st0" d="M221.4,844.3c0,0.3,0.1,0.7,0.1,1l-1-1C220.7,844.2,221.1,844.3,221.4,844.3z" style=""/>
  <path id="path1012" class="st50" d="M165.7,1304.5c0.4,2.4-0.7,5,1,7.2c1.5,0.9,2,2.5,2.4,4c1.9,12.6,6.7,24.8,13.8,35.3 c3.5,6.8,9.9,11.3,14.9,16.7c2,4.4,4.8,8.4,8.4,11.7c8.4,8.1,16.2,16.8,25.2,24.4c2.4,2,6.2,4.2,2.9,8.5c-0.9,0.9-2.4,1.1-3.6,0.7 l-1,0.1c-6.3,0.7-12.6,0.7-18.9,0c-11.4-1.2-20.9-6.2-29.5-13.1c-14.2-11.4-23.8-26.2-31.2-42.8c-9.2-20.7-14.1-42.2-13.1-64.9 c0.4-10.3,2.8-20.4,7-29.8c0.5-1.3,1.2-2.5,2.2-3.4c0.4-0.4,0.7-0.9,0.9-1.4c-0.1-0.3,0-0.5,0.2-0.7c3.9-0.9,3.5,2.5,3.9,4.4 c2,10.3,5,20.2,9,29.8C162.1,1295.7,164.3,1299.9,165.7,1304.5z" style=""/>
  <path id="path1014" class="st51" d="M165.7,1304.5c-3.6-3.4-5.1-8.1-6.9-12.4c-4.3-10.3-7.5-21-9.4-31.9c-0.3-1.4-0.2-2.9-2-3 c0.6-1.4,1.2-2.8,1.8-4.2l0.1-0.1c0.4-0.2,0.7-0.6,0.8-0.9l0.5,0.1c0.2-0.4,0.6-0.7,0.9-1l0,0c2.1,3.2,2.2,7.1,2.9,10.7 c1.7,10,4.9,19.6,9.5,28.5c1.5,2.8,2.2,6,2,9.2C165.7,1301.1,165.7,1302.8,165.7,1304.5z" style=""/>
  <path id="path1016" class="st51" d="M147.1,1257.7l-0.9,1.4L147.1,1257.7z" style=""/>
  <path id="path1044" class="st5" d="M344.2,830.8c-0.3-0.1-0.6-0.3-0.9-0.6L344.2,830.8z" style=""/>
  <path id="path1046" class="st64" d="M836.4,424.2c4.4,9.6,7.3,19.2,5.4,30.1c-2.9,16.8-6.5,33.3-14.3,48.6 c-3.9,7.5-8.6,14.4-15.5,19.6c-8.4,6.2-16.6,6.5-25.4,0.9c-7.7-5-12.8-12.4-17.3-20.1c-7.2-12.6-11.3-26.5-14.3-40.6 c-2.3-11.1-3.7-22.3-4.1-33.6c-0.1-1.7,0-3.4,0.5-5.1c3.1-11.1,8.3-21.6,15.1-30.9c4.7-6.2,10.4-11.1,17.7-13.8 c11.3-4.1,20.9-0.2,29.5,7c3.1,2.7,6,5.7,8.6,8.9c-1.6,1.6-3.5,1-5.3,0.9c-10-0.7-18.3,6.1-20.5,16.5c-2,9.7,3.6,20.3,12.7,23.9 c8.8,3.5,18.7-0.2,23.8-8.9C833.7,426.4,833.9,424,836.4,424.2z" style=""/>
  <path id="path1048" class="st65" d="M756.1,376.8c0.1-5.6,2.4-10.6,4-15.8c3.4-10.5,8.1-20.4,15.5-28.8c5.6-6.4,12.2-11.1,21.3-10.5 c6.8,0.5,12.4,4,17.2,8.5c7.8,7,12.9,15.9,17.4,25.3c3.7,8.1,6.7,16.5,9,25.1c1.6,5.7,1.6,11.5,2.3,17.4c-2.2-0.1-2.3-2.1-2.9-3.2 c-5.7-10.2-12.9-18.9-22.5-25.7c-19.3-13.4-40.4-10.8-57.4,4.6C758.6,374.6,757.8,376.2,756.1,376.8L756.1,376.8z" style=""/>
  <path id="path1050" class="st66" d="M836.4,424.2c-0.9,1.7-1.6,3.4-2.6,5c-5.7,10-18.4,13.5-28.4,7.9c-2.8-1.5-5-3.7-6.8-6.3 c-6.6-9.5-5.9-21.9,1.7-29.7c5.2-5.4,11.6-7.7,19.1-6c0.9,0.2,1.7,0.3,2.6,0.4c8.6,3.8,13.6,10.3,15,19.7 C837.6,418.2,836.2,421.2,836.4,424.2z" style=""/>
  <path id="path1052" class="st67" d="M756,376.7c-0.1,0.3-0.2,0.5-0.3,0.8c-0.1-0.2-0.4-0.4-0.4-0.5 C755.4,376.6,755.7,376.6,756,376.7L756,376.7z" style=""/>
  <path id="path1054" class="st64" d="M329.9,414.8c4.1,6.8,5.8,14.8,4.8,22.6c-1.1,8.8-1.8,17.8-3.7,26.5 c-3.8,17.6-8.9,34.6-19.6,49.4c-3.3,4.8-7.5,9-12.4,12.3c-8.6,5.4-16.8,5.1-24.9-1c-9-6.7-14.3-16.1-18.7-26 c-6.1-13.8-9.1-28.3-11.4-43.1c-1-7.3-0.3-14.7,2.3-21.7c4.4-12.7,9.3-25.2,17.5-36c3.3-4.7,7.3-8.6,12-12c12.6-8.7,25.1-8,36.8,2.2 c-1.5,1.9-3.7,1.5-5.7,1.7c-10.8,1.2-18,9.2-17.9,20.2c0,11.1,8.4,20.7,18.7,21.7c6.5,0.6,14.5-4.3,18-10.7 C326.8,418.7,327,415.9,329.9,414.8z" style=""/>
  <path id="path1056" class="st65" d="M329.9,378.7c-2.9-1.4-4.8-4.3-7.3-6.2c-8.2-6.1-17.1-10.1-27.5-10.2 c-10.7-0.1-20,3.7-28.5,10.2c-8.6,6.7-15.6,15-20.6,24.6c-0.4,0.8-0.9,1.5-1.3,2.2c-0.2,0.3-0.6,0.4-1.3,0.8 c0.2-5.3,0.4-10.3,1.6-15.1c3.2-13,7.8-25.6,14.5-37.1c4-6.8,8.8-13.1,15.1-18c13.1-10.3,25.3-7.3,35.1,3.6 c11.3,12.5,16.6,28.1,20.3,44.3C330,378.1,330,378.4,329.9,378.7L329.9,378.7z" style=""/>
  <path id="path1058" class="st68" d="M329.9,414.8c-0.9,2.3-1.5,4.6-2.7,6.7c-5,10.3-17.5,14.5-27.7,9.5c-3.3-1.6-6.2-4.2-8.2-7.2 c-6.8-10.2-5.2-23.4,3.8-31.2c5-4.4,11-5.1,17.3-4.6C323.9,391.4,330.9,400.6,329.9,414.8z" style=""/>
  <path id="path1060" class="st67" d="M329.8,378.8c0.4-0.2,0.7-0.2,0.8,0.2c0,0.1-0.3,0.3-0.4,0.5L329.8,378.8L329.8,378.8z" style=""/>
  <path id="path1068" class="st56" d="M1530.9,1100.2c0.9-1.7,2.4-3.1,4.2-4.1c7.2-4.8,14.9-8.9,22.2-13.6c6.1-3.8,10.2-2,12,4.4 l-5.1,5.1c-0.9,0.3-0.7,1.4-1.3,1.9l-0.1,0.1c-0.2,0.4-0.6,0.7-0.9,0.9l-0.2,0.1c-0.9-0.1-1.6-0.7-2.1-1.4c-2.9-4.3-4.2-4.9-8.8-2.8 c-5.1,2.3-10.5,4.2-15.2,7.4C1534.2,1099.2,1532.6,1099.9,1530.9,1100.2z" style=""/>
  <path id="path1070" class="st45" d="M1484.4,1150.7c-0.8,1.1-2,1-3,1C1482.1,1150.7,1483.3,1150.7,1484.4,1150.7z" style=""/>
  <path id="path1072" class="st45" d="M1479.3,1152.8c-0.8,1.1-2,1-3.1,1C1477,1152.7,1478.2,1152.8,1479.3,1152.8z" style=""/>
  <path id="path1074" class="st45" d="M1473.1,1154.9c-0.8,1-2,1-3.1,1C1470.8,1154.8,1472,1154.9,1473.1,1154.9z" style=""/>
  <path id="path1076" class="st45" d="M1488.6,1148.7c-0.5,0.7-1.2,1-2.1,1C1487,1149.1,1487.8,1148.6,1488.6,1148.7z" style=""/>
  <path id="path1078" class="st45" d="M1486.5,1149.7c-0.5,0.7-1.2,1-2.1,1C1485,1150.1,1485.8,1149.7,1486.5,1149.7z" style=""/>
  <path id="path1080" class="st45" d="M1476.3,1153.8c-0.5,0.7-1.2,1-2.1,1C1474.6,1154.2,1475.4,1153.8,1476.3,1153.8z" style=""/>
  <path id="path1082" class="st45" d="M1481.4,1151.7c-0.5,0.7-1.2,1-2.1,1C1479.8,1152.1,1480.5,1151.7,1481.4,1151.7z" style=""/>
  <path id="path1100" class="st72" d="M196.8,1368.3l4,1.6c3.6-0.5,6.3,1,8.4,3.9c2.9,1.7,6,0.9,9,0.8c3.3,0,5.4,1,6.9,4.1 c2.4,4.6,5.9,8.4,9.2,12.2c3.3,3.8,6.2,8.1,10,11.6c1.2,1.2,1.9,2.8,2.1,4.7c0,0.3-0.1,0.5-0.2,0.8c-1.9,2.3-3.9,4.1-7.2,3.1 l-5.1,0.9c1.2-1.8,0.4-3-0.9-4.5c-2.5-2.8-5.8-4.8-8.5-7.4c-7-7-14.1-14-21-21C200.6,1375.8,197.9,1372.5,196.8,1368.3z" style=""/>
  <path id="path1104" class="st39" d="M1439,1038.2l1-1L1439,1038.2z" style=""/>
  <path id="path1128" class="st37" d="M1206.9,1435.6c-0.2-1.4-1.1-1.8-2.5-2.1c-5-1.2-10.2-2.3-15.1-4.1c5.6-0.3,10.8,1.3,16.2,2.6 c11.1,2.6,22.3,5.1,33.7,6.5c5,0.6,10.2,1.6,15.3,1.4c5.5-0.2,10.8,1.6,16.3,0.9c1.5,1.6,3.5,1,5.3,1c12,0,23.9,0,36,0 c-1.7,1.6-3.9,0.9-5.8,1c-2.8,0.1-5.8,0-8.6,0c-5.8,0-11.7-0.2-17.5,0c-9.8,0.4-19.5-0.8-29.3-1.3c-10.8-0.7-21.8-1.6-32.4-4.5 C1214.9,1436.1,1210.9,1435.1,1206.9,1435.6z" style=""/>
  <path id="path1130" class="st37" d="M1184.2,1428.4h2.1c1.1,0,2.3-0.1,3,1C1187.6,1429.1,1185.7,1430,1184.2,1428.4z" style=""/>
  <path id="path1136" class="st22" d="M1569.3,1086.9c-0.2-0.1-0.3-0.2-0.4-0.3c-4.9-5.9-5.9-6.1-12.7-1.9s-13.5,8.6-21.1,11.4 c0.9-2.1,2.8-2.9,4.6-4c6.1-3.8,12.3-7.6,18.1-11.7c2.9-2,6.1-3.8,9.9-3.9c4.6-0.2,5.7,1.8,5.5,6c-0.2,1.1-0.5,2.4-1,3.4 L1569.3,1086.9z" style=""/>
  <path id="path1138" class="st5" d="M1562.8,1093.9c0-0.9,0.6-1.6,1.3-1.9C1564,1092.7,1563.6,1093.5,1562.8,1093.9z" style=""/>
  <path id="path1140" class="st22" d="M1572.9,1085.8c0.6,0.1,1.1,0.4,1.4,0.9L1572.9,1085.8z" style=""/>
  <path id="path1142" class="st5" d="M1561.9,1094.8l0.9-0.9C1562.7,1094.5,1562.3,1094.8,1561.9,1094.8z" style=""/>
  <path id="path1144" class="st37" d="M1312.2,1441.8c1.2-1.3,2.8-1,4.3-1c4.1,0,8.2,0,12.3,0c-1.2,1.3-2.8,1-4.3,1 C1320.3,1441.8,1316.2,1441.8,1312.2,1441.8z" style=""/>
  <path id="path1160" class="st10" d="M151.3,1250.9l-0.9,1C150.4,1251.4,150.8,1250.9,151.3,1250.9z" style=""/>
  <path id="path1162" class="st5" d="M150.1,1251.8c0,0.5-0.3,0.9-0.8,0.9L150.1,1251.8z" style=""/>
  <path id="path1164" class="st21" d="M1456.6,1022.7v-1l0,0c0.4-0.3,0.8-0.7,1-1l0,0c2.4-0.2,4.3-2.1,6.7-2.1c2.2,0,3.7,0.6,3.5,3.1 c0.1,1,0.1,2.1-0.1,3c-3,10.2-6.7,20-15.4,26.8c1.2-5.9,2.5-11.8,3.6-17.7c0.3-1.3,0.3-2.7,0.5-4c0.9-1.8,2-3.6,3.2-5.2 C1459.4,1022.9,1457.3,1024.1,1456.6,1022.7z" style=""/>
  <path id="path1168" class="st36" d="M1457.6,1020.7l-1,1L1457.6,1020.7z" style=""/>
  <path id="path1236" class="st80" d="M406,748.1c-8.2,1-16.2,2.9-24.4,3.6c-12.6,1.3-25.4,0.7-37.9-1.8c-9.1-1.8-18.1-4.5-26.7-7.8 c-5.8-2.2-11.1-5.6-15.4-10.1c-4.1-4.2-8.5-8.1-11.8-13c-1.8-2.6-2.9-5.4-3.4-8.6c-0.1-1.2-0.2-2.5,1-3.2c1.3-0.9,2.4,0.2,3.2,0.9 c5.9,4.5,12.3,8.6,17.4,13.8c6.8,6.9,15.3,9.7,24.1,11.9c12.7,3.1,25.6,2.7,38.4,0.6c17.3-2.9,34.2-7.7,50.4-14.4 c12.8-5.3,25.7-10.6,38.7-15.6c21.9-8.2,44.5-14.4,67.8-16.7c13-1.3,26.1-0.6,39,2.3c24.1,5.2,47.8,12.7,70.6,22.2 c1.1,0.5,2.3,0.8,3.4,1.1c3.2,1.2,7.2,0.5,9.5,4c10.1,4.4,20.3,8.4,30.7,12.1c3.8,1.2,7.7,1.9,11.6,2.2c9.9,0.9,19.8,1.7,29.7,2 c8.6,0.3,17-1.6,25.5-3.2c10.8-2.2,21-6.3,31.3-10.4c9.4-3.8,19-6.9,28.2-11.2c1.7-0.8,4-2.6,5.7-0.4c1.7,2.1-0.8,3.8-1.9,5.2 c-3.3,4-7.2,7.4-11.5,10.3c-17.5,11.4-35.5,21.4-56.1,26c-13.8,3.1-27.6,2.8-41.5,2.5c-6.2-0.1-12.4-0.6-18.4-1 c-4.1,1.7-7.8-0.1-11.5-1.3c-13.3-4.3-26.1-9.5-39-14.9c-24.7-10.5-50.2-18.9-76.6-23.8c-17-3.1-33.7-0.2-50.4,3.3 c-28.6,6-54.7,19-81.9,28.9C417.7,745.7,412.3,748.5,406,748.1z" style=""/>
</svg>