<?xml version="1.0" encoding="UTF-8" standalone="no"?>
<svg
   version="1.1"
   id="Layer_1"
   x="0px"
   y="0px"
   viewBox="0 0 1783.6 1646.2"
   style="enable-background:new 0 0 1783.6 1646.2;"
   sodipodi:docname="newddb.svg"
   inkscape:version="1.1 (c68e22c387, 2021-05-23)"
   xmlns:inkscape="http://www.inkscape.org/namespaces/inkscape"
   xmlns:sodipodi="http://sodipodi.sourceforge.net/DTD/sodipodi-0.dtd"
   xmlns="http://www.w3.org/2000/svg"
   xmlns:svg="http://www.w3.org/2000/svg">
  <defs
     id="defs294">
    <inkscape:path-effect
       effect="bspline"
       id="path-effect33552"
       is_visible="true"
       lpeversion="1"
       weight="33.333333"
       steps="2"
       helper_size="0"
       apply_no_weight="true"
       apply_with_weight="true"
       only_selected="false" />
    <inkscape:path-effect
       effect="bspline"
       id="path-effect32473"
       is_visible="true"
       lpeversion="1"
       weight="33.333333"
       steps="2"
       helper_size="0"
       apply_no_weight="true"
       apply_with_weight="true"
       only_selected="false" />
    <rect
       x="244.29608"
       y="1193.1657"
       width="566.29279"
       height="237.0528"
       id="rect20650" />
  </defs>
  <sodipodi:namedview
     id="namedview292"
     pagecolor="#ffffff"
     bordercolor="#666666"
     borderopacity="1.0"
     inkscape:pageshadow="2"
     inkscape:pageopacity="0.0"
     inkscape:pagecheckerboard="0"
     showgrid="false"
     inkscape:zoom="0.32"
     inkscape:cx="-165.625"
     inkscape:cy="1018.75"
     inkscape:window-width="3840"
     inkscape:window-height="2066"
     inkscape:window-x="2869"
     inkscape:window-y="-11"
     inkscape:window-maximized="1"
     inkscape:current-layer="Layer_1" />
  <style
     type="text/css"
     id="style2">
	.st0{fill:#4B3B14;}
	.st1{fill:#4C3C14;}
	.st2{fill:#4F3E15;}
	.st3{fill:#4D3C14;}
	.st4{fill:#FED46F;}
	.st5{fill:#ECA23B;}
	.st6{fill:#EDA43D;}
	.st7{fill:#4D3D15;}
	.st8{fill:#5F2B10;}
	.st9{fill:#21120E;}
	.st10{fill:#50401A;}
	.st11{fill:#ECA33C;}
	.st12{fill:#FCCE69;}
	.st13{fill:#FAC661;}
	.st14{fill:#EEA942;}
	.st15{fill:#EDA53E;}
	.st16{fill:#FDCE69;}
	.st17{fill:#EEA842;}
	.st18{fill:#FBCB66;}
	.st19{fill:#4D3C13;}
	.st20{fill:#F7C05B;}
	.st21{fill:#F5BB55;}
	.st22{fill:#F2B34D;}
	.st23{fill:#FAC863;}
	.st24{fill:#F9C660;}
	.st25{fill:#FCCC67;}
	.st26{fill:#F3B650;}
	.st27{fill:#F8C45E;}
	.st28{fill:#FCCD68;}
	.st29{fill:#FCCE68;}
	.st30{fill:#4D3D14;}
	.st31{fill:#FBCB65;}
	.st32{fill:#F3B54E;}
	.st33{fill:#F1B049;}
	.st34{fill:#F7C05A;}
	.st35{fill:#F5BA54;}
	.st36{fill:#F8C15B;}
	.st37{fill:#F6C15B;}
	.st38{fill:#F6BD57;}
	.st39{fill:#F0AC46;}
	.st40{fill:#FBCA65;}
	.st41{fill:#F7BE58;}
	.st42{fill:#F4B852;}
	.st43{fill:#F4B751;}
	.st44{fill:#F9C964;}
	.st45{fill:#EFAB44;}
	.st46{fill:#F2B44D;}
	.st47{fill:#ECA943;}
	.st48{fill:#F9C661;}
	.st49{fill:#322517;}
	.st50{fill:#4A310E;}
	.st51{fill:#4D3813;}
	.st52{fill:#EEA740;}
	.st53{fill:#F7BF59;}
	.st54{fill:#EEA741;}
	.st55{fill:#F2B24C;}
	.st56{fill:#EFAA44;}
	.st57{fill:#FAC964;}
	.st58{fill:#F7C15B;}
	.st59{fill:#EEA841;}
	.st60{fill:#F3B54F;}
	.st61{fill:#F3B751;}
	.st62{fill:#FF9050;}
	.st63{fill:#C46F3B;}
	.st64{fill:#225E82;}
	.st65{fill:#F6FBFF;}
	.st66{fill:#F4FAFE;}
	.st67{fill:#9BA5A6;}
	.st68{fill:#F3F9FE;}
	.st69{fill:#FFD570;}
	.st70{fill:#F0AE47;}
	.st71{fill:#F9C761;}
	.st72{fill:#4C3612;}
	.st73{fill:#F2B44E;}
	.st74{fill:#F1AF48;}
	.st75{fill:#F3B44E;}
	.st76{fill:#F0AD47;}
	.st77{fill:#EAA13C;}
	.st78{fill:#EFAB45;}
	.st79{fill:#F1AF49;}
	.st80{fill:#5F2A10;}
	.st81{fill:#EB6D2A;}
	.st82{fill:#F57E3D;}
	.st83{fill:#FC8A4A;}
	.st84{fill:#F17735;}
	.st85{fill:#FB8948;}
	.st86{fill:#FB8848;}
	.st87{fill:#FA8646;}
	.st88{fill:#F78241;}
	.st89{fill:#F88443;}
	.st90{fill:#F27937;}
	.st91{fill:#F98746;}
	.st92{fill:#ED7537;}
	.st93{fill:#F78341;}
	.st94{fill:#EF7532;}
	.st95{fill:#F37C3A;}
	.st96{fill:#EE7230;}
</style>
  <path
     id="path8"
     style="opacity:0.258883"
     class="st0"
     d="m 3247.7158,-12.420681 c 0.033,0.0721 0.07,0.133765 0.1054,0.201172 h -10.3046 c -0.094,0.02967 -0.1909,0.02637 -0.2852,0.05469 0.059,-0.06269 0.1282,-0.08742 0.1855,-0.154297 h -46.4003 c -1.4,1.4 -3.2997,1.599219 -5.0997,2.199219 -5.3,1.8000002 -10.5007,4.2992192 -15.3007,7.1992192 -5,3.1 -9.5008,6.901562 -14.3008,10.101562 -12.8,8.2999998 -25.8,16.2999998 -39,23.9999998 -8.9,5.1 -17.4992,10.899217 -26.1992,16.199217 -9.7,5.9 -19.5,11.49922 -29,17.69922 -13.9,9 -27.7,18.20156 -41.5,27.60156 -8.7,6 -17.3004,12.299999 -25.9004,18.499999 -11.7,8.4 -22.7,17.69961 -34,26.59961 -15.2,12.1 -30.0004,24.5 -42.9004,39 -6.7,7.5 -13.6985,14.80039 -20.3985,22.40039 -8.7,9.6 -17.2,19.4 -25.5,29.5 -10,12.2 -19.7,24.59922 -28.5,37.69922 -11.9,17.7 -22.4015,36.29922 -31.1015,55.69922 -1.7765,4.04643 -3.358,8.1893 -5.0332,12.23828 -0.061,0.0504 -0.1045,0.11209 -0.166,0.16211 -0.035,0.0347 -0.029,0.0845 -0.059,0.12109 -0.5554,0.45285 -0.8805,1.05155 -0.8535,1.79492 -0.041,0.0567 -0.035,0.13108 -0.088,0.1836 v 0.90039 c -0.6,0.5 -1,1.29961 -1,2.09961 0.025,-0.0181 0.05,-0.0361 0.074,-0.0547 -0.042,0.0477 -0.022,0.11166 -0.074,0.15625 0,0.002 -4e-4,0.004 0,0.006 0,-0.0353 0,-0.0715 0,-0.10742 -0.7,0.5 -1.1,1.20156 -1,2.10156 0.028,-0.0236 0.055,-0.0498 0.082,-0.0742 -0.045,0.0534 -0.024,0.12424 -0.082,0.17383 v 1 c -0.3,0.3 -0.6,0.7 -1,1 -0.096,0.28666 -0.1916,0.66876 -0.2871,1.05078 -0.4961,0.45153 -0.7457,1.11846 -0.8008,1.70313 -0.065,0.12575 -0.065,0.26581 -0.1797,0.37695 -0.5435,0.45859 -0.8657,1.10899 -0.8477,1.77734 -0.073,0.12847 -0.055,0.27906 -0.1855,0.39063 v 1 l -1,1 v 1 c -0.3,0.2 -0.6,0.7 -1,1 v 0.99023 c -0.5151,0.47652 -0.8617,1.17844 -0.8965,1.89258 -0.043,0.0554 -0.028,0.12609 -0.084,0.17774 -0.6238,0.48232 -0.9846,1.20977 -0.9277,1.94726 -0.049,0.0598 -0.027,0.13814 -0.092,0.19336 v 1 l -1,1 v 1 c -0.3689,0.21079 -0.6532,0.53282 -0.8262,0.92188 -0.1242,0.074 -0.1934,0.23328 -0.4726,0.0781 -0.6,0.6 -0.3,1.49961 -1,2.09961 v 0.90039 l -1,1 v 1 l -1,1 -0.1,1 c -0.6,0.6 -0.3,1.49961 -1,2.09961 v 0.90039 c -0.3,0.2 -0.6,0.7 -1,1 v 1 c 0.094,0.59979 0.015,1.16803 0.064,1.75977 -2.7776,4.69213 -3.6211,9.99769 -5.3652,14.93945 -7.2,20.7 -14.2996,41.60039 -19.5996,62.90039 -3.6,14 -6.2997,28.40078 -8.0997,42.80078 -1.7,13.1 -2.9003,26.19844 -2.9003,39.39844 0.1,12.7 -0.4012,25.40156 0.7988,38.10156 0.8,9 2.1,18.09844 4,26.89844 4.7,20.1 11.2015,39.70156 18.1015,59.10156 5.6,15.7 12.6985,30.8 22.3985,44.5 7.9,11.3 15.9008,22.29922 24.3008,33.19922 9.3,12.2 17.9996,24.69961 28.0996,36.09961 4.5,4.9 8.5011,10.29961 13.7011,14.59961 0.09,-0.51977 0.063,-1.01499 0.049,-1.51367 0.3909,0.50204 0.6344,1.00272 1.0508,1.51367 0.2,1.5 0.6003,3 0.9003,4.5 2.5,14.2 1.9997,28.7 3.0997,43 0.4,5.8 -0.6008,11.7 -0.8008,17.5 -0.5,10.3 -1.7989,20.50156 -3.7989,30.60156 -3.4,17.7 -8.5015,34.99884 -15.1015,51.79884 -6.7,17.39999 -14.8992,34.39959 -24.1992,50.59959 -9.8,17.29996 -21.0004,33.80036 -33.4004,49.40036 -3.6,4.4 -5.1,10.1004 -8,14.9004 -5.1,8.9 -9.6989,18.1996 -13.7989,27.5996 -7.7,17.4 -13.8,35.5 -18.5,54 -3.8,15.3 -6.7015,30.8 -8.6015,46.5 -1.4,10.5 -2.1992,21.2012 -2.6992,31.7012 -0.4,10.6 -0.3004,21.2984 0.5996,31.8984 0.9,10.8 1.8011,21.5012 3.2011,32.2012 2.5,17.8 6.4997,35.4 12.0997,52.5 5.6,17.7 12.9988,34.7996 21.7988,51.0996 9.2,17 20.5004,32.9008 33.4004,47.3008 9.4,10.4 19.9004,19.8 31.4004,28 5.3,3.7 10.7996,7.0988 15.5996,11.7988 3.3,3.1 7.1004,5.5 11.4004,7 13,4.8 25.8,9.5 39,13.5 19.8,5.9 39.8,11.4012 60,16.2012 30,6.9 60.1992,12.6988 90.6992,17.2988 15.3,2.3 30.5008,4.5996 45.8008,6.0996 12.3,1.1 24.3992,2.9004 36.6992,3.9004 10.3,1 20.5008,1.2996 30.8008,2.0996 9.2,0.6 18.3992,4e-4 27.6992,0.9004 10.4,0.9 20.9004,-0.2 31.4004,1 7.8,0.9 15.8011,0.1 23.7011,1 9.1,0.9 18.1989,0 27.2989,1 9.8,1 19.8008,0.1 29.8008,1 11.7,1 23.6,0 35.5,1 14.3,1.1 28.7992,0.2004 43.1992,0.9004 23.8,1.1 47.7996,0.8 71.5996,1 47.9,0.3 95.9008,1.3008 143.8008,-0.6992 21.1,-0.9 42.3004,0.5996 63.4004,-0.9004 14.3,-0.9 28.7992,0.2 43.1992,-1 9.9,-0.9 19.8008,-4e-4 29.8008,-0.9004 11.2,-0.9 22.5004,-0.6 33.9004,-1 11.5,-0.3 23,-1.8992 34.5,-1.1992 0.3,0 0.6,0 1,-0.1016 8.7,-2 17.7996,-0.9992 26.5996,-1.6992 9.3,-0.7 18.6992,-2.0004 28.1992,-1.4004 0.3,0 0.6,4e-4 1,-0.1 8.5,-1.2 16.9996,-1.2004 25.5996,-1.9004 6.1,-0.4 12.3004,-0.5988 18.4004,-1.2988 10.4,-1.2 20.8012,-1.5008 31.2012,-2.8008 9.2,-1.2 18.4996,-1.3004 27.5996,-2.4004 3.7,-0.4 7.3992,-0.5 11.1992,-1 7.9,-0.9 15.9004,-1.8988 23.9004,-2.7988 7.1,-0.9 14.3004,-1.5004 21.4004,-2.4004 13.4,-1.9 26.7996,-3.9 40.0996,-6 14.1,-2.1 28.0004,-5.0008 41.9004,-7.8008 16.6,-3.4 32.3,-9.4004 48,-15.4004 13.8,-5.2 26.6,-12.5992 39,-20.6992 13.5,-8.9 25.8992,-19.2992 37.6992,-30.1992 13.6,-12.6 26.4012,-26.1004 38.2012,-40.4004 13,-15.8 25,-32.3 36,-49.5 9.7,-15 18.4992,-30.5004 26.6992,-46.4004 6.8,-13.3 12.7,-27.0008 18.5,-40.8008 9.4,-22.1 17.0008,-44.8988 22.8008,-68.2988 5.1,-21.2 11,-42.1996 15,-63.5996 1.8,-9.6 4.4,-19.0012 6,-28.7012 1.5,-9.2 3.1992,-18.2004 4.1992,-27.4004 1.1,-8.9 2.6008,-17.9984 3.8008,-26.8984 1,-7.3 1.7984,-14.6004 2.3984,-21.9004 0.6,-7.2 1.4012,-14.3 1.7012,-21.5 0.2,-5.99996 0.8988,-11.99996 1.2988,-17.99996 0.3,-4.6 0.1004,-9.2008 0.9004,-13.8008 1.7,-9.7 1.1996,-19.4992 1.5996,-29.19919 0.9,-24.4 0.3008,-48.8012 0.3008,-73.2012 0,-1.2 4e-4,-2.39961 -0.1,-3.59961 -1.6,-11.1 -2.4008,-22.19922 -3.8008,-33.19922 -1.6,-12.5 -3.7996,-25.00039 -6.0996,-37.40039 -2.5,-13.9 -6.1992,-27.7 -9.6992,-41.5 -6.7,-25.6 -16.7012,-49.8 -31.2012,-72 -8.7,-13.2 -17.8004,-26.10039 -28.9004,-37.40039 -15.4,-15.6 -30.9996,-31.19922 -46.5996,-46.69922 -3.7,-3.6 -7.3988,-7.1 -11.2988,-10.5 -4.6,-4 -9.4012,-8.00039 -12.7012,-13.40039 -2.2,-3.6 -5.1996,-3.70078 -8.0996,-0.80078 -3.4,3.1 -5.5996,7.1 -6.5996,11.5 -0.5,2.3 -1.3012,4.60078 -2.2012,6.80078 -5.2,10.5 -10.8996,20.70078 -17.5996,30.30078 -14.3,20.3 -29.1988,40.19883 -43.7988,60.29883 -9.2,12.4 -19.0004,24.30117 -29.4004,35.70117 -6,6.4 -12.6,12.29961 -19.5,17.59961 -12.8,10 -25.9004,19.2 -40.4004,26.5 -11.7,5.9 -23.5992,11.19961 -35.6992,16.09961 -13.5,5.6 -27.0012,11.19961 -41.2012,14.59961 -7.6,1.8 -15.0988,3.60117 -21.7988,7.70117 -2.1,1.2 -4.2,0.89922 -6.5,0.19922 -16.9,-5.1 -33.9012,-9.90078 -50.7012,-15.30078 -13.6,-4.3 -27.0004,-9.29961 -40.4004,-14.09961 -15.7,-5.6 -31.1992,-12.30039 -46.6992,-18.90039 -8.6,-3.6 -16.7996,-7.89883 -25.5996,-10.79883 -0.2694,0.15393 -0.3346,0.53245 -0.5391,0.76953 0.013,-0.2195 0.033,-0.43431 0.039,-0.6582 0.065,-9.5e-4 0.1316,-0.004 0.1992,-0.0117 -0.5,-0.6 -1.2996,-1 -2.0996,-1 0.1235,0.14822 0.2583,0.29145 0.4062,0.41992 -0.2174,-0.0912 -0.4257,-0.21021 -0.6054,-0.41992 -1.1,-1.2 -2.4004,-2.00039 -3.9004,-2.40039 -8.7,-3.2 -16.6008,-8.2 -24.8008,-12.5 -16.4,-8.6 -32.7004,-17.6 -48.9004,-26.5 -9.3,-5 -18.4984,-10.40039 -27.8984,-15.40039 -4.4,-2.3 -8.2,-5.69961 -13,-7.09961 l -0.01,0.006 c -3.1662,-2.7685 -6.4292,-5.53395 -9.791,-8.00586 -2.6,-1.9 -2.9004,-3.89922 -1.9004,-6.69922 4.1,-12.1 7.4,-24.60117 10,-37.20117 2,-9.5 3.6004,-19.09883 4.9004,-28.79883 1,-6.9 1.5008,-14.00039 2.3008,-20.90039 0.8,-7.9 1.1,-16 1.5,-24 0.5,-13.6 0.2988,-27.39961 -0.7012,-41.09961 -0.4,-6 -0.7004,-12.1 -1.4004,-18 -1.2,-10.8 -2.7992,-21.7 -4.6992,-32.5 -3,-18.1 -7.3,-35.9 -12.5,-53.5 -8.3,-27.7 -19.3,-54.40039 -33,-79.90039 -3.3,-6.1 -6.2004,-12.40078 -10.4004,-17.80078 -1.1,-2.6 -2.5004,-5.09961 -4.4004,-7.59961 -0.028,-0.001 -0.051,-0.01 -0.078,-0.0117 -1.1561,-2.2943 -2.3923,-4.58823 -3.9219,-6.78711 -8.2,-11.7 -16.1992,-23.4 -25.1992,-34.5 -10.8,-13.3 -22.4,-25.90156 -34,-38.60156 -6,-6.6 -12.5004,-12.7 -18.9004,-19 -9.1,-9 -17.7989,-18.49922 -27.7989,-26.69922 -11.7,-9.7 -23.4015,-19.39961 -35.6015,-28.59961 -13.5,-10.3 -27.1,-20.30078 -40.5,-30.80078 -17.1,-13.299999 -35.0988,-25.699999 -52.2988,-38.999999 -17.2,-13.3 -34.6,-26.39961 -51.5,-40.099607 -15.6,-12.4 -32.7004,-22.70039 -50.9004,-30.9003918 -2.1,-1 -4.3008,-2 -6.8008,-2 l -0.8438,-0.841797 c -0.01,-0.0097 -0.018,-0.01973 -0.027,-0.0293 l -0.1289,-0.128907 h -1 c -0.2,-0.3 -0.7,-0.6 -1,-1 h -1 c -0.3,-0.2 -0.7,-0.6 -1,-1 l -1,-1 c -0.1013,-0.04075 -0.2072,-0.06299 -0.3086,-0.103515 -1.8791,-1.846038 -4.1416,-3.214053 -6.791,-4.195313 -3.1,-1 -5.8996,-2.3015622 -8.5996,-4.1015622 z m -52.3926,25.480472 c 1.2312,0.0828 2.493,0.36992 3.793,0.91992 1.2,0.3 2.6007,0.40117 3.8007,0.20117 0.5,0 1,-0.10078 1.5,-0.30078 1.0318,-0.18519 2.079,-0.18017 3.1211,-0.26367 -1.4004,0.17637 -2.7842,0.49654 -4.1211,0.96289 4.4,-0.6 8.7989,0 13.2989,0 -0.9602,-0.34293 -1.9512,-0.60489 -2.961,-0.79102 0.8202,0.11122 1.6477,0.10334 2.461,0.29102 l 1.5,0.30078 c 1.2543,0.196 2.55,0.14944 3.8418,0.13867 -1.6195,0.0819 -3.2485,0.22827 -4.8418,0.0606 3.8,1.1 7.6004,1.1 11.4004,1 -0.3094,-0.17188 -0.6226,-0.31645 -0.9375,-0.44141 0.1107,0.0335 0.2275,0.005 0.3379,0.043 l 1.5,0.29883 c 0.6626,0.11424 1.3544,0.0741 2.0332,0.0977 -0.982,0.0706 -1.9654,0.11261 -2.9336,0.002 3.4,1.2 6.9007,1.00156 10.3007,1.10156 -0.2127,-0.15783 -0.4303,-0.29692 -0.6484,-0.41992 0.049,0.0157 0.1001,0.003 0.1484,0.0195 l 1.5,0.29883 c 0.7324,0.11443 1.4937,0.0635 2.2422,0.0801 -1.0844,0.0603 -2.1669,0.10637 -3.2422,0.0215 3.7,1.1 7.5985,1.1 11.3985,1 -0.206,-0.11134 -0.412,-0.211 -0.6192,-0.30273 0.01,0.002 0.013,-2.4e-4 0.02,0.002 l 1.5,0.30078 h -0.9004 c 4.1,1.1 8.3004,0.9 12.4004,1 -0.061,-0.0735 -0.1234,-0.1417 -0.1875,-0.20508 0.17,0.0349 0.314,0.0687 0.4883,0.10352 0.3384,0.0796 0.6903,0.1019 1.0351,0.13867 -0.4859,0.0245 -0.9683,0.0296 -1.4355,-0.0371 2,1 4.0992,0.9 6.1992,1 -0.1225,-0.12965 -0.2476,-0.24454 -0.377,-0.3457 0.2964,0.0815 0.6526,0.16266 0.9785,0.24414 0.2021,0.0449 0.4395,0.11218 0.6504,0.1582 -0.3889,0.0152 -0.7766,0.043 -1.1504,0.043 1.2,1 2.6997,1 4.0997,1 -0.1121,-0.14259 -0.2299,-0.26548 -0.3516,-0.37305 0.2412,0.10008 0.4789,0.20517 0.7519,0.27344 0.099,0.0372 0.1886,0.0651 0.2852,0.0996 -0.2294,-0.003 -0.4594,0 -0.6855,0 0.7,0.8 1.9,1.2 3,1 -0.062,-0.098 -0.1294,-0.18576 -0.1993,-0.26562 0.3421,0.15712 0.6853,0.25597 1.0274,0.34179 -0.212,0.0134 -0.4231,0.0234 -0.6289,0.0234 1.2,0.7 2.6,1.19961 4,1.09961 -0.073,-0.11638 -0.1478,-0.22125 -0.2266,-0.31641 0.1495,0.0388 0.2724,0.0784 0.4277,0.11719 0.1231,0.0352 0.2631,0.0873 0.3868,0.12305 -0.1945,0.0176 -0.3912,0.0434 -0.5879,0.0762 0.7,0.8 1.9996,1.2 3.0996,1 -0.065,-0.11079 -0.1323,-0.21162 -0.2051,-0.30274 0.1595,0.0574 0.2744,0.13777 0.457,0.1836 -0.083,0.007 -0.1676,0.0125 -0.2519,0.0195 0.8,0.8 2.0015,1.2 3.1015,1 -0.01,-0.009 -0.013,-0.0181 -0.019,-0.0273 0.051,0.0161 0.093,0.0435 0.1465,0.0586 0.6297,0.69732 1.6428,1.08028 2.627,1.01172 0.1529,0.0683 0.2919,0.14384 0.4824,0.19336 0.5288,0.51082 1.324,0.90865 2.1445,0.99219 0.1947,0.12381 0.3715,0.24727 0.6191,0.37109 0.8,0.5 1.2997,1.09961 2.0997,1.59961 16.7,7.8 32.2996,17.60078 46.5996,29.30078 20.8,17 42.0996,33.20078 63.5996,49.300779 36.6,27.3 73.8004,53.79883 108.9004,83.29883 15.7,13.2 30.1007,27.70039 44.3007,42.40039 7.9,8.3 14.9985,17.50039 23.8985,24.90039 1.3,0.6 2.3012,1.70039 3.2012,2.90039 0.3,0.3 0.4988,0.7 0.7988,1 0.2,0.2 0.5008,0.59844 0.8008,0.89844 0.1,0.2 0.3004,0.4 0.4004,0.5 0.2,0.3 0.4988,0.60039 0.7988,0.90039 0.2,0.3 0.5008,0.60039 0.8008,0.90039 0.7,0.7 1.3007,1.40078 1.8007,2.30078 0.2,0.4 0.3993,0.7 0.6993,1 0.2,0.4 0.5007,0.7 0.8007,1 l 0.8985,0.89844 c 0.7,0.7 1.3008,1.40078 1.8008,2.30078 0.2,0.3 0.3992,0.7 0.6992,1 0.2,0.3 0.5008,0.60039 0.8008,0.90039 0.1,0.2 0.3004,0.4 0.4004,0.5 0.2,0.3 0.4988,0.60039 0.7988,0.90039 0.2,0.3 0.5008,0.59844 0.8008,0.89844 0.7,0.8 1.3007,1.50039 1.8007,2.40039 0.3,0.3 0.4989,0.7 0.7989,1 0.3,0.4 0.6004,0.7 0.9004,1 l 0.5,0.5 c 0.1609,0.16094 0.3867,0.28419 0.5898,0.42969 -0.61,1.42183 0.1914,2.68036 1.0098,3.77148 6.7,9.5 12.7996,19.39922 19.0996,29.19922 0.9,1.4 1.7004,3.09922 3.9004,2.69922 0.3,-1 -0.6992,-2.09844 0.3008,-2.89844 0.8,-0.4 1.5988,0.0992 2.2988,0.69922 0.7,0.6 1.2004,1.19922 1.9004,1.69922 0.1525,0.1144 0.3108,0.22147 0.4648,0.33398 0.1576,0.23423 0.3051,0.46084 0.5352,0.76758 0.4,0.7 0.9008,1.3 1.3008,2 0.2,0.2 0.3996,0.59844 0.5996,0.89844 l 0.9004,1.5 c 0.2,0.3 0.3996,0.7 0.5996,1 0.4,0.7 0.7996,1.30156 1.0996,2.10156 0.2,0.4 0.3,0.79922 0.5,1.19922 0.2,1 0.4011,1.90039 0.7011,2.90039 3,8.1 7.7985,15.29961 11.3985,23.09961 24.7,52.7 36.9004,108.1 39.4004,166 1,22.3 -0.7992,44.70078 -3.6992,66.80078 -2.4,18.3 -6.7012,36.1 -11.2012,54 -0.3,1.2 0,2.49961 -0.3985,3.59961 -0.1,0.3 -0.3003,0.69922 -0.4003,1.19922 -0.2,0.6 -0.5012,1.20078 -0.7012,1.80078 -0.2,0.3 -0.2985,0.79922 -0.3985,1.19922 -0.3,0.9 -0.3015,2 -0.6015,3 -0.1,0.3 -0.1988,0.69961 -0.2988,1.09961 -0.2,0.8 -0.4012,1.40117 -0.7012,2.20117 -0.2,0.3 -0.4,0.6 -0.5,1 -0.3,0.5 -0.5988,1 -0.7988,1.5 -0.1,0.2 -0.3004,0.6 -0.4004,1 -0.2,0.5 -0.3996,0.99961 -0.5996,1.59961 -0.2,0.3 -0.3004,0.69961 -0.4004,1.09961 -0.2,0.6 -0.3996,1.10117 -0.5996,1.70117 -0.1,0.2 -0.3004,0.6 -0.4004,1 -0.2,0.5 -0.4993,0.9 -0.6993,1.5 -0.1,0.3 -0.3003,0.6 -0.4003,1 -0.2,0.6 -0.3997,0.99961 -0.5997,1.59961 -0.1,0.3 -0.3003,0.6 -0.4003,1 -0.2,0.5 -0.5012,1 -0.7012,1.5 -0.1,0.3 -0.2985,0.6 -0.3985,1 -0.2,0.6 -0.4015,0.99961 -0.6015,1.59961 -0.1,0.3 -0.2985,0.6 -0.3985,1 -0.2,0.5 -0.5011,1 -0.7011,1.5 -0.1,0.3 -0.3004,0.6 -0.4004,1 l -0.5996,1.5 c -0.1,0.3 -0.3004,0.6 -0.4004,1 -0.2,0.4 -0.4992,0.90039 -0.6992,1.40039 -0.2,0.3 -0.3,0.7 -0.5,1 -0.2,0.3 -0.3,0.7 -0.5,1 -0.2,0.2 -0.3,0.50039 -0.5,0.90039 -0.2,0.3 -0.3,0.7 -0.5,1 -0.2,0.3 -0.3,0.7 -0.5,1 -0.2,0.3 -0.4,0.6 -0.5,1 -0.1,0.3 -0.3,0.6 -0.5,1 -0.2,0.3 -0.3,0.6 -0.5,1 -0.2,0.3 -0.3,0.6 -0.5,1 -0.2,0.3 -0.3,0.7 -0.5,1 -0.2,0.3 -0.3,0.7 -0.5,1 -0.2,0.3 -0.3,0.6 -0.5,1 -0.2,0.3 -0.3996,0.7 -0.5996,1 -0.2,0.4 -0.3997,0.7 -0.5997,1 -0.2,0.3 -0.5011,0.59844 -0.7011,0.89844 -0.2,0.3 -0.6,0.70156 -1,1.10156 l -0.4004,0.39844 c -0.2,0.3 -0.4992,0.60039 -0.6992,0.90039 l -0.5996,0.90039 c -0.2,0.4 -0.5008,0.80078 -0.8008,1.30078 -0.1,0.1 -0.1989,0.29844 -0.2989,0.39844 -0.3,0.3 -0.5011,0.60039 -0.7011,0.90039 l -0.5996,0.90039 c -0.2,0.3 -0.3,0.7 -0.5,1 -0.2,0.3 -0.3,0.7 -0.5,1 -0.2,0.3 -0.3,0.7 -0.5,1 -0.2,0.3 -0.4,0.6 -0.5,1 -0.2,0.5 -0.4993,1 -0.6993,1.5 -0.1,0.3 -0.3003,0.6 -0.4003,1 -0.1,0.5 -0.3,1 -0.5,1.5 -0.1,0.3 -0.3004,0.7 -0.4004,1 -0.2,0.4 -0.5008,0.80078 -0.8008,1.30078 l -0.2988,0.39844 c -0.3,0.3 -0.5012,0.60039 -0.7012,0.90039 -0.2,0.3 -0.3996,0.7 -0.5996,1 -0.3,0.5 -0.4992,0.99961 -0.6992,1.59961 -0.1,0.3 -0.2012,0.80117 -0.2012,1.20117 0,1.2 -0.5996,2.19922 -1.5996,2.69922 -0.4,0.3 -0.7,0.60039 -1,0.90039 -0.026,0.0341 -0.059,0.0836 -0.086,0.11914 -0.092,-0.58865 -0.3029,-1.31168 -0.6132,-2.21875 -1.5,1.4 -2.5,3.19922 -3,5.19922 0.758,-0.15549 1.3818,-0.30341 1.8886,-0.46875 -0.056,0.0829 -0.1355,0.18861 -0.1894,0.26953 l -0.5996,0.90039 c -0.2,0.4 -0.3996,0.7 -0.5996,1 -0.1,0.2 -0.1008,0.2 -0.3008,0.5 l -0.5996,0.89844 -0.5996,0.90039 c -0.3,0.4 -0.6004,0.90078 -0.9004,1.30078 -0.1,0.1 -0.2008,0.30039 -0.3008,0.40039 -0.2,0.3 -0.4992,0.59844 -0.6992,0.89844 -0.3,0.3 -0.4993,0.7 -0.6993,1 -0.4,0.7 -0.9003,1.20039 -1.4003,1.90039 -0.3,0.3 -0.5012,0.6 -0.7012,1 -0.8,1.2 -1.7988,2.30078 -2.7988,3.30078 -0.011,0.0217 -0.03,0.0351 -0.043,0.0547 0.1572,-0.466 0.2422,-0.98084 0.2422,-1.55469 -1.6867,1.48828 -3.3721,2.97644 -4.1797,5.14844 -0.4344,0.15041 -0.832,0.52334 -0.9199,1.05078 0.4995,-0.1998 0.8994,-0.49884 1.0996,-1.09766 0.4681,-0.23009 0.9184,-0.47355 1.3359,-0.74023 -0.013,0.0131 -0.022,0.026 -0.035,0.0391 l -0.4004,0.39844 c -0.2,0.3 -0.5008,0.60039 -0.8008,0.90039 l -0.3985,0.40039 -0.9003,0.90039 -0.4004,0.40039 c -0.3,0.3 -0.5008,0.7 -0.8008,1 -0.2,0.3 -0.4992,0.6 -0.6992,1 -0.8702,0.98621 -1.7499,1.8643 -2.6114,2.7832 0.2858,-0.54618 0.5262,-1.13664 0.711,-1.7832 -2.3806,2.18218 -5.1534,4.06923 -6.4668,7.02734 -0.4682,0.20829 -0.8382,0.59921 -0.9336,1.17188 0.3875,-0.19375 0.8696,-0.66825 0.9902,-1.15234 0.7162,-0.42184 1.4142,-0.85683 2.0723,-1.32618 -0.034,0.0341 -0.016,0.0313 -0.062,0.0781 -0.3,0.3 -0.4988,0.60039 -0.7988,0.90039 l -0.4004,0.40039 c -0.3,0.3 -0.6008,0.49883 -0.8008,0.79883 l -0.3985,0.40039 c -0.2,0.3 -0.5011,0.50078 -0.7011,0.80078 l -0.4004,0.40039 c -0.2,0.2 -0.4992,0.39922 -0.6992,0.69922 0,0.1 -0.4004,0.40039 -0.4004,0.40039 -0.2,0.2 -0.4992,0.39922 -0.6992,0.69922 0,0.1 -0.4004,0.40039 -0.4004,0.40039 -0.2,0.2 -0.4993,0.39922 -0.6993,0.69922 0,0.1 -0.4003,0.40039 -0.4003,0.40039 -0.2,0.2 -0.5012,0.40117 -0.7012,0.70117 0,0.1 -0.3985,0.39844 -0.3985,0.39844 -0.2,0.2 -0.5011,0.40117 -0.7011,0.70117 0,0.1 -0.4004,0.40039 -0.4004,0.40039 -0.2,0.2 -0.4992,0.39922 -0.6992,0.69922 0,0.1 -0.4004,0.40039 -0.4004,0.40039 -0.2,0.2 -0.4992,0.39922 -0.6992,0.69922 0,0.1 -0.4004,0.40039 -0.4004,0.40039 -0.2,0.2 -0.4993,0.39922 -0.6993,0.69922 0,0.1 -0.4003,0.40039 -0.4003,0.40039 -0.2,0.2 -0.5012,0.40117 -0.7012,0.70117 0,0.1 -0.3985,0.39844 -0.3985,0.39844 -0.2,0.2 -0.5011,0.40117 -0.7011,0.70117 l -0.4004,0.40039 c -0.2,0.2 -0.4992,0.39922 -0.6992,0.69922 l -0.4004,0.40039 c -0.2,0.2 -0.4992,0.39922 -0.6992,0.69922 0,0.1 -0.4004,0.40039 -0.4004,0.40039 -0.2,0.2 -0.4993,0.39922 -0.6993,0.69922 0,0.1 -0.4003,0.40039 -0.4003,0.40039 -0.2,0.2 -0.5012,0.40117 -0.7012,0.70117 l -0.3985,0.39844 c -0.3,0.2 -0.7007,0.60117 -0.8007,0.70117 -0.1,0.2 -0.3004,0.30039 -0.4004,0.40039 l -0.7989,0.79883 -0.4003,0.40039 -0.8008,0.80078 -0.4004,0.39844 c -0.3,0.3 -0.4988,0.6 -0.7988,1 -0.2,0.2 -0.5012,0.6 -0.7012,1 -2.3,2.8 -4.9,5.20078 -7.5,7.80078 -0.2,0.2 -0.4,0.3 -0.5,0.5 -0.3,0.3 -0.5985,0.7 -0.8985,1 -0.1,0.2 -0.1003,0.2 -0.4003,0.5 -0.3,0.3 -0.5008,0.60039 -0.8008,0.90039 l -0.4004,0.40039 c -0.3,0.2 -0.5988,0.49883 -0.7988,0.79883 l -0.4004,0.40039 -0.8008,0.80078 c -0.1,0.2 -0.099,0.0984 -0.3985,0.39844 l -0.8007,0.80078 -0.4004,0.40039 c -0.3,0.2 -0.6004,0.49883 -0.9004,0.79883 l -0.3985,0.40039 c -0.3,0.3 -0.5007,0.6 -0.8007,1 -0.2,0.2 -0.4993,0.6 -0.6993,1 -2.3,2.8 -4.9,5.20078 -7.5,7.80078 l -0.5,0.5 c -0.3,0.3 -0.6003,0.7 -0.9003,1 -0.1,0.2 -0.1004,0.2 -0.4004,0.5 -0.3,0.3 -0.5008,0.60039 -0.8008,0.90039 l -0.3985,0.39844 c -0.3,0.2 -0.7007,0.70078 -0.8007,0.80078 l -0.4004,0.40039 c -0.3,0.2 -0.4989,0.49883 -0.7989,0.79883 l -0.4003,0.40039 c -0.3,0.2 -0.6004,0.50078 -0.9004,0.80078 l -0.4004,0.40039 c -0.3,0.3 -0.4989,0.59844 -0.7989,0.89844 -0.2,0.3 -0.5011,0.6 -0.7011,1 -1.4,1.7 -2.9,3.30078 -4.5,4.80078 l -0.5,0.5 c -0.3,0.3 -0.6004,0.7 -0.9004,1 -0.1,0.2 -0.099,0.2 -0.3985,0.5 -0.2,0.3 -0.5007,0.60039 -0.8007,0.90039 l -0.4004,0.40039 c -0.3,0.3 -0.4989,0.59844 -0.7989,0.89844 l -0.4003,0.40039 c -0.3,0.2 -0.5008,0.50078 -0.8008,0.80078 l -0.4004,0.40039 c -0.3,0.3 -0.4988,0.59844 -0.7988,0.89844 -0.2,0.3 -0.5012,0.7 -0.7012,1 -0.8,1.1 -1.8985,2.20117 -2.8985,3.20117 l -0.5,0.5 c -0.3,0.3 -0.6003,0.6 -0.9003,1 -0.3,0.2 -0.6008,0.6 -0.8008,1 -0.6,0.9 -1.2,1.7 -2,2.5 -0.1,0.2 -0.3004,0.3 -0.4004,0.5 -0.3,0.3 -0.4988,0.6 -0.7988,1 -0.3,0.3 -0.6008,0.6 -0.8008,1 -0.4,0.7 -0.9004,1.30039 -1.4004,1.90039 -0.1,0.2 -0.2985,0.3 -0.3985,0.5 -0.3,0.3 -0.6007,0.7 -0.8007,1 -0.2,0.3 -0.4993,0.7 -0.6993,1 -0.4,0.8 -0.9003,1.3 -1.4003,2 -0.2,0.3 -0.5012,0.6 -0.7012,1 -0.7,1 -1.3988,1.99844 -2.2988,2.89844 -0.3,0.3 -0.6008,0.6 -0.8008,1 -0.7,1.1 -1.3989,2 -2.2989,3 -0.3,0.3 -0.6007,0.6 -0.8007,1 -0.7,1.1 -1.4008,2 -2.3008,3 -0.3,0.3 -0.5988,0.6 -0.7988,1 -0.3,0.8 -0.8008,1.40156 -1.3008,2.10156 -0.3,0.3 -0.4992,0.6 -0.6992,1 -0.3,0.7 -0.7012,1.3 -1.2012,2 -0.2,0.3 -0.3996,0.7 -0.5996,1 -0.3,0.4 -0.6004,0.89844 -0.9004,1.39844 -0.1,0.2 -0.099,0.2 -0.2988,0.5 -0.3,0.3 -0.5012,0.60039 -0.7012,0.90039 -0.2,0.3 -0.3996,0.7 -0.5996,1 -0.2,0.2 -0.3,0.60039 -0.5,0.90039 -0.2,0.3 -0.3,0.7 -0.5,1 -0.2,0.3 -0.3996,0.7 -0.5996,1 -0.1,0.2 -0.1008,0.2 -0.3008,0.5 l -0.5996,0.90039 c -0.2,0.3 -0.3996,0.7 -0.5996,1 -0.3,0.4 -0.6004,0.90039 -0.9004,1.40039 -0.2,0.2 -0.3996,0.59844 -0.5996,0.89844 -0.3,0.4 -0.7,0.90039 -1,1.40039 -0.2,0.3 -0.3996,0.7 -0.5996,1 -0.3,0.5 -0.5008,1 -0.8008,1.5 -0.1,0.3 -0.3,0.7 -0.5,1 -0.2,0.4 -0.3996,0.7 -0.5996,1 -0.1,0.2 -0.2008,0.3 -0.3008,0.5 -0.3,0.3 -0.4992,0.60039 -0.6992,0.90039 -0.2,0.3 -0.3996,0.7 -0.5996,1 -0.2,0.3 -0.3,0.7 -0.5,1 -0.2,0.2 -0.2,0.40039 -0.5,0.90039 -0.3,0.4 -0.6004,0.79883 -0.9004,1.29883 -0.1,0.2 -0.2008,0.3 -0.3008,0.5 -0.3,0.3 -0.4992,0.7 -0.6992,1 -0.2,0.3 -0.3,0.6 -0.5,1 -0.2,0.8 -0.5,1.40156 -1,2.10156 -0.2,0.3 -0.3996,0.6 -0.5996,1 -0.3,0.5 -0.5008,0.9 -0.8008,1.5 -0.1,0.3 -0.3,0.7 -0.5,1 -0.2,0.3 -0.3,0.6 -0.5,1 -0.2,0.3 -0.3,0.7 -0.5,1 -0.2,0.3 -0.3,0.7 -0.5,1 -0.2,0.3 -0.3,0.7 -0.5,1 -0.2,0.3 -0.3,0.7 -0.5,1 -0.2,0.3 -0.4,0.6 -0.5,1 -0.3,0.5 -0.5989,1 -0.7989,1.5 -0.2,0.2 -0.4,0.6 -0.5,1 -0.2,0.5 -0.5011,0.99961 -0.7011,1.59961 -0.2,0.3 -0.4,0.69961 -0.5,1.09961 -0.3,0.6 -0.4,1.20039 -0.5,1.90039 0,0.0746 0.062,0.16203 0.074,0.24223 -4.8709,10.1913 -6.6018,21.2731 -7.3731,32.457 -0.9,11.90003 2.1993,23.40083 5.1993,34.80083 2.2,8 5.1992,15.6992 11.1992,21.6992 5.1,0.4 6.5,-0.4996 6.5,-5.0996 -0.2,-6 -0.5988,-12 -1.2988,-18 -2.6,-21.8 1.0003,-42.20003 12.4003,-61.00003 12.3,-20.40002 26.4993,-39.50002 41.6993,-58.00002 20.7,-25.5 43.7,-48.99961 67,-72.09961 22.3,-22 39.5007,-47.50039 53.3007,-75.40039 0.8962,-1.89187 2.3836,-3.78533 1.5079,-6.26953 0.075,-0.16553 0.1406,-0.34122 0.209,-0.51367 0.8327,-0.24813 0.8717,-0.98543 0.7324,-1.80078 0.084,-0.20424 0.1539,-0.42295 0.25,-0.61524 0.1256,-0.33491 0.272,-0.70462 0.418,-1.04687 0.028,-0.0544 0.052,-0.11199 0.068,-0.17188 0.1794,-0.4223 0.3599,-0.81985 0.5137,-1.28125 0.01,-0.0415 0.03,-0.0815 0.041,-0.12305 1.5561,-0.82272 2.1903,-2.01522 1.9492,-3.57812 0.3063,-0.16448 0.6161,-0.26484 1.0098,-0.19922 0.4352,0.14508 0.8261,0.25637 1.2324,0.36328 0.1419,0.2713 0.2866,0.47964 0.5176,0.50391 -0.031,0.0998 -0.051,0.20836 -0.051,0.33203 0.3,2.4 2.3,3.69961 4,5.09961 14.6,11.6 30.4,21.20156 46.5,30.60156 20.8,11.8 41.8008,23.4 63.3008,34 1.9,0.9 3.7992,2.5 6.1992,1 0.127,-0.15873 0.268,-0.29954 0.4004,-0.45117 0.012,0.15039 -0.03,0.30078 0,0.45117 0.051,0.10121 0.1651,0.21736 0.2285,0.32813 l -0.3281,-0.22852 c 0,0.38386 0.2951,0.64943 0.6582,0.70703 0.1229,0.16952 0.1901,0.34052 0.3418,0.49219 0.3,0.3 0.6992,0.7 1.1992,1 0.7,0.4 1.3,0.90078 2,1.30078 22.1,10.8 44.8012,20.19922 67.7012,29.19922 29.7,11.8 60.2004,21.30039 90.9004,30.40039 39.1,11.6 78.1984,23.09961 118.8984,27.59961 15.2,1.7 30.2004,3.00039 44.9004,-2.09961 2.4,-0.8 4.9004,-1.60078 6.9004,-3.30078 2.4,-2.2 2.3,-4.59844 -0.5,-6.39844 -1.4,-0.7 -2.9004,-1.20039 -4.4004,-1.40039 -30.1,-4.9 -58.7996,-15.00078 -87.5996,-24.80078 0.4,-0.9 1.0992,-0.89961 1.6992,-1.09961 19,-7.6 37.9008,-15.40078 56.3008,-24.30078 38.1,-18.5 68.8,-45.59844 94.5,-78.89844 8,-10.6 15.6008,-21.80039 23.8008,-32.40039 16.6,-21.4 30.5992,-44.00039 36.6992,-70.90039 1.6,0.9 2.1996,2.39961 3.0996,3.59961 12.9,19.2 29,35.70078 45,52.30078 24.7,25.7 42.1996,55.39961 52.0996,89.59961 5.4,18.4 9.7,37.00078 13,55.80078 4.9,28 8.4012,56.09961 8.2012,84.59961 -0.2,34.90003 -1.3,69.70006 -4,104.50006 -2.5,32.79996 -7.0004,65.29876 -11.9004,97.79876 -0.5,4 -1.9008,7.7004 -4.3008,10.9004 -2.4,3 -3.3988,6.6 -3.7988,10.5 -3.8,35.8 -11.8012,71.1 -23.7012,105 -12.4,36.2 -28.9992,70.9996 -49.1992,103.5996 -28.2,45 -62.3008,84.7008 -105.3008,116.3008 -16.1,11.8 -32.7992,21.2992 -52.1992,26.1992 -25.4,6.5 -51.3008,11.7016 -77.3008,15.6016 -68.2,10.1 -136.8992,14.9984 -205.6992,19.3984 -28.8,1.8 -57.7,2.9012 -86.5,4.2012 -20.9,1 -41.9008,1.6 -62.8008,2 -32.1,0.5 -64.1985,1.8992 -96.3985,1.1992 -3.5,-0.2 -6.9007,-4e-4 -10.3007,0.5996 -2.3,0.6 -4.6996,0.8012 -7.0996,0.7012 -15.8,-0.2 -31.5004,0.1 -47.4004,-0.4004 -25.7,-0.8 -51.6008,0.1 -77.3008,-0.9004 -29.8,-1 -59.7992,-0.099 -89.6992,-1.2988 -8,-0.3 -15.9996,0 -24.0996,-0.2012 -15.8,-0.3 -31.5008,-1.1992 -47.3008,-1.1992 -11,-0.1 -21.9004,-1.5008 -32.9004,-1.3008 -6.1,0 -12.2988,-0.7992 -18.2988,-2.1992 -4.5,-1.1 -9.1008,-1.5 -13.8008,-1 -8.4,1.1 -16.6992,0.9004 -25.1992,0.4004 -1.6,0 -3.0997,0.9992 -4.5997,0.6992 -11.2,-2 -22.6003,-1.1008 -33.9003,-1.8008 -21.8,-1.3 -43.5012,-3.1988 -65.2012,-5.7988 -63.3,-7.6 -125.7992,-19.3008 -186.6992,-38.3008 -19.8,-6 -38.4008,-15.0996 -55.3008,-27.0996 -26.3,-18.7 -45.3985,-43.4008 -59.8985,-71.8008 -20.5,-40.2 -29.5015,-83.4988 -30.6015,-128.2988 -0.5,-27 2.2004,-54.0008 8.4004,-80.3008 8.1,-35.9 21.3011,-69.7992 42.2011,-100.1992 17.9,-25.8 34.8989,-51.89956 47.7989,-80.59956 14.2,-31.50003 24.5996,-64.10163 28.5996,-98.60163 1.2,-10.1 1.3008,-20.19883 2.3008,-30.29883 -0.1542,-1.23361 -0.3685,-2.46756 -0.5196,-3.70117 0.2677,1.17033 0.5218,2.34159 0.92,3.5 -0.8,3.2 0.9988,5.5 2.2988,8 4.2,7.6 8.7,15.1 12.5,23 7.8,16.2 13.7004,32.9 14.9004,51 0.3,3.5 0.9996,6.8012 1.5996,10.2012 0.3,1.9 0.5004,3.7988 2.4004,4.7988 3.4,3.5 5.4011,3.3008 7.2011,-0.6992 0.5,-1.2 0.8989,-2.6004 1.2989,-3.9004 1.8,-5.6 2.0996,-11.4988 2.0996,-17.2988 0,-8 0.3008,-16.0016 -0.6992,-24.1016 -1.4,-10.4 -4.4008,-20.3 -6.8008,-30.5 -2.4,-10.1 -5.5985,-19.99961 -9.8985,-29.59961 -4.9,-11.3 -11.4,-21.50039 -18.5,-31.40039 l -0.5,-0.19922 c -0.7,0.6 -0.6003,-0.40039 -0.9003,-0.40039 -0.3,-0.3 -0.6004,-0.59883 -0.9004,-0.79883 -1.2,-1.1 -1.6008,-2.60039 -2.3008,-3.90039 -0.3,-0.3 -0.4988,-0.69961 -0.7988,-1.09961 -0.3,-0.2 -0.6004,-0.6 -0.9004,-1 -0.3,-0.3 -0.6004,-0.6 -0.9004,-1 -0.9988,-1.59058 -2.2474,-3.0137 -3.5059,-4.42773 -0.1031,-0.46149 -0.4612,-0.83599 -0.916,-1.04102 -0.034,-0.0384 -0.068,-0.0768 -0.1016,-0.11523 l 0.024,-0.0176 c -0.3,-1.2 -1.0992,-2.19844 -2.1992,-2.89844 l -0.088,0.0742 c -0.012,-0.0166 -0.025,-0.0322 -0.037,-0.0488 l 0.025,-0.0254 c 0,-0.42621 -0.292,-0.85279 -0.6875,-1.03125 -0.5426,-0.87734 -1.0663,-1.76723 -1.414,-2.76953 -0.3,-0.6 -0.5985,-1.20039 -0.8985,-1.90039 v 0.0996 c -0.4,-0.1 -0.8,-0.49961 -1,-1.09961 h 0.1 c -0.3,-0.2 -0.6997,-0.49883 -1.0997,-0.79883 -0.6517,-0.52956 -1.2178,-1.13427 -1.8359,-1.69336 -0.1412,-0.13911 -0.286,-0.27582 -0.4375,-0.40625 -0.3176,-0.29426 -0.6457,-0.57946 -0.9551,-0.88086 -0.1112,-0.52792 -0.5297,-0.83408 -0.873,-0.91992 l 0.2812,0.375 c -0.09,-0.09 -0.1922,-0.16914 -0.2812,-0.25977 0,-0.006 -0.01,-0.0131 -0.01,-0.0195 0,10e-4 0.01,0.003 0.01,0.004 -0.01,-0.0354 -0.012,-0.0708 -0.019,-0.10547 0.01,0.001 0.013,0.005 0.019,0.006 l -0.025,-0.0254 c -0.1281,-0.52774 -0.4945,-0.94952 -1.0274,-0.97266 0,-0.005 -0.01,-0.0106 -0.014,-0.0156 0,-0.005 0,-0.0104 -0.01,-0.0156 0.024,0.01 0.048,0.0195 0.072,0.0293 -0.5,-1.9 -1.9992,-2.90078 -3.1992,-4.30078 -1.521,-2.00769 -3.0805,-3.97684 -4.8106,-5.77539 -0.8372,-1.20483 -1.675,-2.41125 -2.4902,-3.625 -0.3,-0.3 -0.6985,-0.79883 -0.8985,-1.29883 -0.5,-1.2 -1.6,-1.90078 -2.5,-2.80078 -1.9,-1.8 -4.5003,-3.19961 -4.9003,-6.09961 l -0.1,-0.0996 c -0.3,-0.3 -0.6,-0.7 -1,-1 -0.3,-0.3 -1.1007,-0.29961 -0.8007,-1.09961 0,-0.4 -0.4004,-0.9 -0.9004,-1 -1.1932,-1.05003 -2.2724,-2.18302 -3.2891,-3.35937 -1.4639,-2.21234 -3.0236,-4.34449 -4.6758,-6.40235 -1.2536,-1.91129 -2.4984,-3.83135 -3.7343,-5.73828 -0.2,-1 -0.8012,-1.70156 -1.7012,-2.10156 -1,-0.3 -0.7985,-1.29844 -1.3985,-1.89844 -0.3,-0.3 -0.7003,-0.80078 -0.9003,-1.30078 l -1.3008,-1.80078 c -0.2,-0.3 -0.9989,-0.3 -0.7989,-1 -0.2,-0.8 -0.7003,-1.5 -1.4003,-2 -0.7,-0.6 -1.3012,-1.39883 -1.7012,-2.29883 0,-0.5 -0.2988,-0.9 -0.7988,-1 -0.9,-0.3 -0.7008,-1.4 -1.3008,-2 -0.2,-0.9 -0.7004,-1.59961 -1.4004,-2.09961 -0.1,-0.4 -0.3992,-0.70039 -0.6992,-0.90039 l -0.1,-0.0996 -0.9004,-1.10156 c 0,-0.5 -0.3004,-0.99922 -0.9004,-1.19922 -1.2,0 -0.7992,-1.09922 -1.1992,-1.69922 l -0.1,-0.10156 c -0.2,-0.3 -0.5003,-0.7 -0.9003,-1 -0.4,-0.3 -0.8,-0.79883 -1,-1.29883 0,-0.5 -0.3008,-0.90039 -0.8008,-0.90039 -1.4,-0.7 -1.8004,-1.99922 -2.4004,-3.19922 0,-0.4 -0.2988,-0.80039 -0.7988,-0.90039 -0.7182,-0.71818 -1.4569,-1.42699 -2.1563,-2.16406 -0.5154,-0.7939 -1.0814,-1.53701 -1.6934,-2.23438 -0.2771,-0.52305 -0.5115,-1.07643 -0.6503,-1.70117 0,-0.5 -0.3008,-0.90156 -0.8008,-1.10156 -1.2,-0.8 -1.8989,-1.99883 -2.2989,-3.29883 0,-0.3 -0.1003,-0.60117 -0.4003,-0.70117 -0.2,-0.3 -1.0008,-0.3 -0.8008,-1 0,-0.5 -0.2989,-0.89961 -0.7989,-1.09961 -0.3591,-0.10775 -0.5408,-0.3217 -0.6738,-0.56836 -0.052,-0.13394 -0.1124,-0.26521 -0.1816,-0.39258 -0.1053,-0.36496 -0.1618,-0.77077 -0.3457,-1.13867 l 0.1,0.0996 c -0.3687,-0.3403 -0.6233,-0.69269 -0.9278,-1.03516 -0.2878,-0.75383 -0.7074,-1.4737 -1.2402,-2.14453 -0.065,-0.29272 -0.1308,-0.58352 -0.1308,-0.91992 0.1,-0.4 -0.2012,-0.89961 -0.7012,-1.09961 -0.4386,-0.15949 -0.6434,-0.44499 -0.7891,-0.76367 -0.045,-0.10427 -0.092,-0.20841 -0.1445,-0.31055 -0.121,-0.40579 -0.1766,-0.84933 -0.3652,-1.22656 0.1,-0.2 -8e-4,-0.59922 -0.3008,-0.69922 -0.2535,-0.11699 -0.4302,-0.28467 -0.6035,-0.45508 -0.16,-0.67697 -0.4777,-1.30631 -0.9102,-1.82226 -0.086,-0.30839 -0.1821,-0.61067 -0.2812,-0.91016 -0.1701,-0.11645 -0.3181,-0.2439 -0.4122,-0.39453 -0.045,-0.32473 -0.1597,-0.62759 -0.3398,-0.89844 -0.066,-0.28322 -0.1124,-0.57614 -0.252,-0.82031 l 0.1,0.0996 c -0.2649,-0.16855 -0.4424,-0.37406 -0.5743,-0.59961 -0.068,-0.5217 -0.1796,-1.02933 -0.4355,-1.48828 -0.049,-0.31033 -0.078,-0.6294 -0.1914,-0.91211 l -0.3985,-1 c -0.4854,-0.79295 -0.9424,-1.58996 -1.4062,-2.38672 -1.4255,-3.81569 -3.009,-7.53937 -4.793,-11.20312 -0.1661,-0.67039 -0.3822,-1.31511 -0.5019,-2.00977 -0.5,-0.1 -0.5989,-0.50039 -0.2989,-0.90039 l -0.3007,-1.09961 c -0.2958,-0.29576 -0.4923,-0.68966 -0.6895,-1.08399 -0.081,-0.0459 -0.1224,-0.10616 -0.1738,-0.16406 0,-0.13181 -0.047,-0.26467 -0.1289,-0.39648 0.016,-0.11745 -7e-4,-0.23216 0.092,-0.35547 l -0.2989,-1.09961 c -0.1096,-0.10968 -0.168,-0.27081 -0.2558,-0.40234 -0.037,-0.15537 -0.133,-0.30562 -0.2774,-0.4336 -0.049,-0.0945 -0.12,-0.16778 -0.1679,-0.26367 l 0.1,0.0996 c -0.084,-0.12962 -0.1261,-0.27372 -0.207,-0.4043 -1.7323,-6.59693 -3.7425,-13.19129 -6.2051,-19.69726 -0.03,-0.13232 -0.058,-0.26633 -0.088,-0.39844 l -0.2988,-1.09961 -0.08,-0.14648 c 0.1438,-0.35962 -0.093,-0.78572 -0.5059,-1.00196 0.066,-0.2574 -0.01,-0.57739 -0.2168,-0.84375 0,-0.003 -10e-5,-0.005 0,-0.008 l -0.2989,-1.09961 c -0.4,-2.9 -1.4011,-5.70039 -2.7011,-8.40039 l 0.1,0.0996 c 0.093,-0.27892 0.012,-0.64282 -0.2403,-0.85352 0.025,-0.0506 0,-0.0955 0.041,-0.14648 l -0.3008,-1.09961 c -0.1524,-1.82803 -0.5366,-3.65561 -1.1973,-5.43945 0.159,-0.65025 0.4266,-1.32911 0.8985,-2.06055 l -0.2012,-1.09961 c -0.1,-1 -1.4988,-1.8 -0.7988,-3 l -0.2012,-1 c -0.6,-0.9 -1.4996,-1.60156 -1.5996,-2.60156 -0.6,-7.4 -2.3992,-14.59844 -2.6992,-21.89844 -0.4,-10.3 0,-20.50078 -0.7012,-30.80078 -0.5,-5 -0.099,-10.2 1.2012,-15 l -0.1,0.0996 c -0.221,-3.51432 -0.1901,-7.01175 -0.025,-10.5 0.1137,-1.6142 0.2476,-3.22511 0.3945,-4.83399 0.1181,-1.36814 0.2592,-2.73433 0.414,-4.0996 0.2131,-1.96714 0.4316,-3.93263 0.6895,-5.89258 0.6681,-4.68312 1.4371,-9.34745 2.2051,-14.01367 1.4442,-7.96139 3.1793,-15.87628 5.1211,-23.75977 2.8547,-11.57467 6.3355,-22.93272 9.9961,-34.24414 1.6724,-4.679 3.3173,-9.37076 4.705,-14.15625 0.1766,-0.57902 0.3401,-1.16556 0.5137,-1.74609 1.7117,-5.17357 3.423,-10.35012 5.086,-15.55274 2.0703,-6.62513 5.0916,-12.9107 7.5488,-19.41797 0.8478,-1.53669 1.746,-3.05179 2.7226,-4.53711 -0.1546,-0.55466 -0.3652,-0.89088 -0.5839,-1.19531 5.3649,-6.15848 8.2482,-13.74683 11.1113,-21.25 1.4201,-3.40837 3.2136,-6.83137 2.8144,-10.66406 1.1835,-1.41869 1.6761,-3.12536 2.4864,-4.83594 2.8,-5.9 5.3007,-12.00117 8.3007,-17.70117 13.3,-24.6 29.0993,-47.79961 47.1993,-69.09961 l 19.8515,-23.44141 c 0.017,0.0139 0.031,0.0271 0.049,0.041 2.2699,-2.17127 4.3442,-4.4397 6.2246,-6.99805 0.024,0.003 0.05,-0.006 0.074,-0.002 4.1,-4.4 8.4012,-8.59922 12.2012,-13.19922 9,-10.6 18.8996,-20.40078 29.5996,-29.30078 22.5,-19.1 45.9,-37.19922 70,-54.19922 28.7,-20.099999 58.7004,-38.299219 88.4004,-56.699219 16.2,-10 32.5992,-19.50078 48.6992,-29.80078 8.5,-5.5 15.9,-12.49922 25.5,-16.19922 0.9778,0 1.9556,-7e-4 2.7929,-0.70312 0.1366,-0.0307 0.2824,-0.0347 0.4082,-0.0977 0.011,-0.0417 0.072,-0.0714 0.094,-0.10938 1.7346,-0.0842 3.4604,-0.0296 4.9062,-1.08984 l -4.2011,-0.10156 -0.02,0.0254 c -1.7698,-1.40934 -3.7316,-1.51816 -6.08,-1.22461 -2.64,0.32999 -4.9615,1.24967 -7.1641,2.36719 2.982,-1.61463 6.0584,-2.91031 9.3711,-2.6875 z M 2823.288,371.2258 c 0.01,0.0255 0.02,0.0286 0.027,0.0547 v -0.0996 c -0.01,0.0148 -0.018,0.0302 -0.027,0.0449 z m -21.8613,273.66992 c 0.042,0.0236 0.04,0.0641 0.09,0.084 l -0.1,-0.0996 c 0,0.006 0.01,0.01 0.01,0.0156 z m 10.4942,24.69727 c 0.038,0.0263 0.052,0.0638 0.096,0.0879 l -0.1,-0.10156 c 0,0.004 0,0.009 0,0.0137 z m 807.1953,72.38672 c -0.4457,0.0891 -0.8923,0.41712 -1.0547,0.91211 -0.4813,0.1173 -0.9486,0.50976 -1.0449,1.08789 0.4453,-0.0891 0.8113,-0.41581 1.0273,-0.91016 0.5844,-0.206 0.9738,-0.69609 1.0723,-1.08984 z m -2.0996,2 c -0.5,0.1 -0.9997,0.49961 -1.0997,1.09961 0.6,-0.1 0.9997,-0.59961 1.0997,-1.09961 z m 7.1992,-8.19922 c 1.4,-0.3 2.4011,-1.69961 2.2011,-3.09961 -1.2,0.7 -1.9011,1.89961 -2.2011,3.09961 z M 3210.3154,13.380101 c 0.3,0.004 0.5965,0.0923 0.8965,0.10547 -0.6719,-0.0365 -1.3471,-0.0398 -2.0215,-0.01 0.3765,-0.01 0.7483,-0.10047 1.125,-0.0957 z m -31.4258,6.67773 c -2.9694,2.1371 -5.8223,4.47765 -8.873,6.32227 -6.8,4.2 -13.3012,8.99961 -20.2012,13.09961 -12.3,7.2 -24.1996,15 -36.5996,22 -0.3728,0.20901 -0.7393,0.4302 -1.1114,0.64062 16.3172,-9.92219 32.9123,-19.49611 48.8125,-29.93945 5.9588,-3.99767 11.8254,-8.23005 17.9727,-12.12305 z m -82.2988,51.2168 c -4.9973,3.03855 -9.9752,6.1058 -14.9746,9.10547 -4.0362,2.38133 -8.0076,4.88483 -11.9395,7.45508 8.6798,-5.8959 17.7803,-11.25988 26.9141,-16.56055 z m -34.0938,21.39844 c -3.3337,2.31365 -6.64,4.6681 -9.8808,7.10742 -3.5,2.699999 -7.4,4.899999 -11,7.499999 -3.6011,2.49754 -7.3612,4.77062 -11.0645,7.10938 10.6477,-7.23967 21.4036,-14.34288 31.9453,-21.716799 z m -45.5273,31.267579 c -2.508,1.8544 -5.0003,3.7254 -7.5156,5.59375 2.4918,-1.8816 4.9784,-3.76951 7.5156,-5.59375 z m -32.3711,25.38476 c -1.7917,1.52241 -3.5845,3.04731 -5.3828,4.55469 -3,2.5 -5.8996,5.10039 -9.0996,7.40039 -1.2502,0.90571 -2.4578,1.84974 -3.6856,2.77539 6.0494,-4.91547 12.086,-9.85219 18.168,-14.73047 z m -67.9297,65.75977 c -0.053,0.2227 -0.1032,0.44653 -0.1309,0.68359 -0.01,0.004 -0.014,0.008 -0.021,0.0117 l -1,1 c -0.3284,-0.0274 -0.6331,-0.0151 -0.9239,0.0195 0.399,-0.24428 0.7116,-0.59269 1.1231,-0.82031 0.3576,-0.23843 0.6453,-0.58503 0.9531,-0.89453 z m 565.0449,28.48047 c -1.0512,0.002 -2.116,0.0402 -3.1972,0.11523 -12.6,0.9 -24.6008,5.69883 -34.3008,13.79883 -11.4,9.4 -19.1992,21.50078 -25.1992,34.80078 -10.8,23.9 -14.3997,49.5 -15.0997,75.5 -0.4,13.1 1.1985,26.00039 2.8985,38.90039 2.5,18.8 7.4012,36.99844 16.2012,53.89844 7.3,14.1 16.8996,26.10156 31.0996,34.10156 14.7,8.3 29.7992,10.59922 45.6992,3.19922 8.3,-4 15.5008,-9.80078 21.3008,-16.80078 9.6,-11.5 16.0007,-24.69883 20.8007,-38.79883 8.1,-24.1 9.5,-49.00078 10.5,-72.80078 -0.2,-19.3 -2,-37.2 -6.5,-54.5 -5,-18.9 -12.4015,-36.69961 -25.6015,-51.59961 -10.4063,-11.8125 -22.834,-19.84521 -38.6016,-19.81445 z m -511.3906,3.92383 c -1.7096,0.066 -3.4445,0.22773 -5.207,0.49023 -12.6,1.9 -22.6993,8.70078 -31.1993,17.80078 -10.2,11 -17.2015,23.89883 -22.6015,37.79883 -3.5,9.2 -5.3988,18.70156 -8.2988,28.10156 -4.9,17.1 -7.4008,34.59883 -7.3008,52.29883 -0.1,12.1 1.1008,24.29961 3.3008,36.09961 3.3,18 8.8003,35.2 18.4003,51 6.9,11.1 15.2985,20.70156 26.8985,27.10156 8.3,4.7 17.9008,6.69922 27.3008,5.69922 12.9,-1.4 23.3004,-7.9 32.4004,-16.5 10.7,-10.3 17.8988,-22.90039 23.7988,-36.40039 10.6,-24.4 14.5004,-50.29922 15.4004,-76.69922 0.3,-9.2 -0.6996,-18.39961 -1.5996,-27.59961 -1.9,-18.3 -6.2008,-36.2 -13.8008,-53 -6.1,-13.2 -13.8985,-25.30156 -25.3985,-34.60156 -9.45,-7.7875 -20.1267,-12.05195 -32.0937,-11.58984 z m 680.373,62.23242 c 0.8621,0.64978 2.0136,1.18381 3.42,1.45898 0.057,4.02286 -0.9143,6.47519 -2.9903,7.47852 0.1396,-0.73547 0.1769,-1.55645 0.09,-2.47852 -0.1927,-2.21579 0.2514,-4.3394 -0.5196,-6.45898 z m -24.2793,8.1582 c 0,0.9 0.3997,1.6 1.0997,2 0,-0.7 -0.4997,-1.5 -1.0997,-2 z m 1.1993,2.19922 c 0.2,1.3 0.9004,2.40117 1.9004,3.20117 0,-0.0208 9e-4,-0.0417 0,-0.0625 0.03,0.84303 0.3389,1.58353 1.0977,1.96289 0,-0.89714 -0.3979,-1.59602 -1.0938,-2.0957 0.022,-1.4167 -0.7585,-2.62329 -1.9062,-3.00586 z m 3,5.10156 c 0.1942,1.26252 0.8602,2.33545 1.8144,3.2207 0.1122,0.93519 0.4186,1.59876 1.1856,2.07813 0.1902,-0.85589 -0.3432,-1.71085 -1.084,-2.13672 0.1369,-1.35941 -0.5617,-2.77516 -1.916,-3.16211 z m -812.0645,45.22461 c -0.5803,0.52265 -1.1562,1.02969 -1.7519,1.55859 0.2233,-0.42574 0.4203,-0.86695 0.5898,-1.31836 0.3795,-0.19785 0.7742,-0.17479 1.1621,-0.24023 z m -9.7441,10.41992 c -0.1205,0.51925 -0.2308,1.04427 -0.1914,1.6543 -1.0494,3.47382 -2.0334,6.94581 -3.0118,10.42187 0.2595,-0.96918 0.4385,-1.95303 0.711,-2.92187 0.6661,-2.47408 1.7766,-4.87777 1.289,-7.60156 0.3975,-0.5178 0.7954,-1.03607 1.2032,-1.55274 z m -13.3887,17.75 c 0.023,0.079 0.049,0.15366 0.08,0.22657 -0.017,0.0679 -0.068,0.10931 -0.082,0.17773 0.045,0.16346 0.067,0.32513 0.1114,0.48828 -0.5921,0.18349 -1.1352,0.41316 -1.6387,0.6875 0.5051,-0.52682 0.9589,-1.07382 1.5273,-1.57617 z m 6.9434,7.64258 c -0.3423,1.77871 -0.6923,3.55348 -0.9454,5.36133 -0.1,1.5 -0.9,3 -2,4 -0.7586,0.57804 -1.2459,1.24342 -1.6152,1.94726 0.072,-0.50744 0.1152,-1.02442 0.1152,-1.54687 0,-0.43219 0.046,-0.83983 0.1055,-1.24805 2.8744,-0.74179 3.1012,-3.18528 3.5938,-5.45117 0.2221,-1.0314 0.5181,-2.03573 0.7461,-3.0625 z m -5.2207,13.74414 c -0.011,0.57967 0.047,1.18586 0.1738,1.81836 0,1.4 -0.4,2.8 -1,4 -2.3,5.2 -4.2985,10.69922 -5.8985,16.19922 -2.9,10.4 -4.4015,21.10039 -7.6015,31.40039 -0.8762,0.6456 -1.3676,1.4496 -1.707,2.31445 0.07,-0.67069 0.1204,-1.34547 0.207,-2.01367 -0.3756,-0.32191 -0.6262,-0.8195 -0.7715,-1.36328 0.3136,0.0567 0.5857,0.14639 1.0723,0.0625 2.5,-2.2 2.8,-5.50039 3.5,-8.40039 2.8,-13 5.3004,-26.1 10.9004,-38.5 0.6909,-1.20912 0.6783,-2.61658 0.2402,-3.88672 0.351,-0.50982 0.6452,-1.05749 0.8848,-1.63086 z m 432.6035,59.87109 c -12.361,0.0469 -24.6782,0.79766 -36.8282,3.34766 -16.8,3.5 -32.6011,9.79961 -46.7011,19.59961 -8.5,6 -16.2989,13.10039 -24.2989,19.90039 -2.1,1.9 -4.4015,3.19844 -7.1015,3.89844 -10.7,2.8 -21.4996,4.5 -32.5996,4 -12.2,-0.6 -24.3996,-0.0984 -36.5996,0.10156 -9.8,0 -19.5,1.19922 -29,3.69922 -23.2,6.3 -42.4993,19.40039 -60.1993,35.40039 -0.5,0.5 -1.0003,0.9 -1.4003,1.5 -6.5,8.3 -12,17.19922 -16.5,26.69922 -6.8,14.7 -10.2,30.09961 -12,46.09961 -2.5,22.5 2.3996,43.2 14.0996,62.5 11.6,19 27.1004,34.30156 44.9004,47.60156 10,7.4 20.8003,13.59883 31.4003,19.79883 1.7,1.9 3.8,3.5 6.5,5 0.7,0.3 1.3,0.7 2,1 0.4,0.2 0.8985,0.40117 1.3985,0.70117 20.2,10.4 41.4012,17.79922 63.2012,23.69922 46,12.3 92.6988,17.40039 140.2988,16.40039 29.2,-0.4 58.3015,-3.39961 87.1015,-8.59961 39.4,-7.4 77.3985,-18.90039 113.3985,-36.90039 2.5,-1.2 5.4012,-2.30117 6.7012,-5.20117 0.3,-0.4 0.7992,-0.7 1.1992,-1 30.3,-15.7 55.9,-37.19961 78.5,-62.59961 2.9,-3.3 5.8996,-6.2 8.0996,-10 4.2,-7.7 7.6015,-15.79961 8.6015,-24.59961 0.4,-4.1 1.0985,-8.20078 1.3985,-12.30078 0.9,-9.7 0.9,-19.49883 0,-29.29883 -1.2,-11.2 -4.9985,-21.60039 -9.3985,-31.90039 -6.2,-14.8 -16.2003,-27.5 -28.9003,-37 -20.4,-15.2 -43.8,-24.1 -68.5,-29.5 -13.4,-2.9 -27.1004,-2.99922 -40.9004,-3.19922 -10.5,-0.2 -20.6993,-1.60156 -28.6993,-10.10156 -6.3,-6.6 -14.8007,-10.39883 -22.8007,-14.79883 -17.2,-9.5 -35.7996,-16.20078 -55.0996,-19.80078 -12.9,-2.4 -25.9004,-3.7 -38.9004,-4 -4.125,-0.1 -8.2508,-0.16211 -12.3711,-0.14649 z m -452.8223,21.25977 c -0.3498,3.33601 -0.7256,6.67046 -0.9629,10.01758 -0.089,-3.38737 0.019,-6.74712 0.9629,-10.01758 z m 452.8477,7.68164 c 3.6453,-0.0187 7.2953,0.0305 10.9453,0.10547 12.2,0.2 24.3008,1.40078 36.3008,3.80078 18.6,3.7 36,10.9 52.5,20.5 15.8,9.1 31,19.09883 45,30.79883 5.9,4.9 11.1988,10.60078 17.7988,14.80078 1.1,0.9 2.3,1.49961 3.5,2.09961 7.8,2.6 16.0012,3.99922 24.2012,4.19922 0.7,0 1.3,-0.0984 2,-0.39844 1.5,-0.5 2.9988,-0.90078 3.2988,-2.80078 0.2,-1.6 -0.9,-2.50078 -2,-3.30078 -2.8,-2 -5.6992,-3.9 -8.6992,-5.5 -9.3,-5.2 -15.7,-13.59961 -23.5,-21.59961 5.5,-0.4 9.8992,0.6 14.1992,1 24.5,2.9 47.4015,10.79961 69.1015,22.59961 15.3,8.3 25.6,20.60156 32.5,36.60156 6.3,14.4 6.5,29.4 6,44.5 -0.3,8.1 -1.8003,16.09922 -4.4003,23.69922 -2.1,6.4 -5.8997,11.5 -10.0997,16.5 -12.7,15.5 -29.2007,26.60078 -44.3007,39.30078 -11.7,9.9 -25.6008,16.09922 -39.3008,22.19922 -26.9,11.9 -54.8992,20.90039 -83.6992,26.90039 -19.3,4.2 -38.8004,7.1 -58.4004,9 -10.6,1 -21.1989,1.49922 -31.7989,2.19922 -12.1,0.8 -24,0.9 -36,0.5 -40.9,-1.4 -81.3011,-6.7 -120.7011,-18.5 -28.4,-8.6 -55.7004,-19.79961 -80.4004,-36.59961 -16.1,-10.9 -30.4996,-23.40039 -41.5996,-39.40039 -3.4,-4.9 -6.6996,-9.99922 -9.5996,-15.19922 -2.8,-5.2 -4.3,-10.90078 -4.5,-16.80078 -0.6,-8.7 -0.1993,-17.49961 1.3007,-26.09961 2.4,-12.7 5.5997,-25.10039 11.0997,-36.90039 3.2,-6.7 6.9996,-12.99883 11.5996,-18.79883 0.7,-1 1.5,-1.90117 2.5,-2.70117 12.9,-10.5 26,-20.89922 42,-26.69922 7.2,-2.7 14.8996,-4.19961 22.5996,-4.59961 7.9,-0.3 15.8011,-0.50039 23.7011,-0.90039 9.6,-0.6 19.0993,-1.3 28.6993,-2 1.5,-0.4 3.2,-1.59961 3.5,0.90039 -3.4,5 -7.8996,9.09922 -13.0996,12.19922 -5.4,3.3 -10.5012,7.3 -16.2012,10 -1.6,0.8 -2.8985,1.99961 -2.3985,4.09961 0.5,1.6 1.6985,2.50117 3.3985,2.70117 5.9,1 12.0004,0.99883 17.9004,-0.20117 14.6,-2.9 26.5996,-10.49961 37.5996,-20.09961 12.1,-10.7 24.0012,-21.59961 36.7012,-31.59961 11.3,-8.9 24.2992,-14.00078 38.1992,-17.30078 10.725,-2.475 21.6187,-3.14883 32.5547,-3.20508 z m -454.1133,54.55469 c -0.011,0.39464 -0.024,0.78926 -0.045,1.18359 0.011,-0.39424 0.025,-0.78887 0.045,-1.18359 z m 1.1094,21.06445 c 0.7633,5.72343 1.7726,11.41333 3.0605,17.06641 -0.7141,-2.45714 -1.4404,-4.91079 -2.1113,-7.38086 -0.4,-1.1 -0.5992,-2.3 -0.6992,-3.5 0,-2.06561 -0.1096,-4.12565 -0.25,-6.18555 z m 15.8046,34.44141 0.2442,0.24414 c 0.01,0.0101 0.015,0.0209 0.021,0.0312 -0.1083,-0.0864 -0.2382,-0.16308 -0.2657,-0.27539 z m -7.5273,1.83984 c 0.7268,2.28837 1.4458,4.57957 2.2109,6.85742 -0.8165,-2.25371 -1.5784,-4.52836 -2.2109,-6.85742 z m 432.7363,13.8086 c -3.2578,0.0719 -6.5136,0.2707 -9.7636,0.5957 -23.3,2.3 -45.9008,8.50117 -67.8008,16.70117 -13,5 -25.8992,10.29961 -38.6992,15.59961 -16.2,6.7 -33.1004,11.50039 -50.4004,14.40039 -12.8,2.1 -25.7004,2.50039 -38.4004,-0.59961 -8.8,-2.2 -17.2996,-5.00039 -24.0996,-11.90039 -5.1,-5.2 -11.5004,-9.30078 -17.4004,-13.80078 -0.8,-0.7 -1.8992,-1.80039 -3.1992,-0.90039 -1.2,0.7 -1.1,2.00117 -1,3.20117 0.5,3.2 1.6003,5.99961 3.4003,8.59961 3.3,4.9 7.6989,8.8 11.7989,13 4.3,4.5 9.6004,7.89961 15.4004,10.09961 8.6,3.3 17.5992,6.00078 26.6992,7.80078 12.5,2.5 25.3004,3.09883 37.9004,1.79883 8.2,-0.7 16.2004,-2.59961 24.4004,-3.59961 6.3,0.4 11.7007,-2.4 17.8007,-4.5 27.2,-9.9 53.2985,-22.90039 81.8985,-28.90039 16.7,-3.5 33.4004,-6.39883 50.4004,-3.29883 26.4,4.9 51.8996,13.29883 76.5996,23.79883 12.9,5.4 25.7,10.60039 39,14.90039 3.7,1.2 7.4,3.00078 11.5,1.30078 6,0.4 12.2004,0.9 18.4004,1 13.9,0.3 27.7,0.6 41.5,-2.5 20.6,-4.6 38.5996,-14.6 56.0996,-26 4.3,-2.9 8.2,-6.30078 11.5,-10.30078 1.1,-1.4 3.6004,-3.09922 1.9004,-5.19922 -1.7,-2.2 -3.9992,-0.39961 -5.6992,0.40039 -9.2,4.3 -18.8012,7.39922 -28.2012,11.19922 -10.3,4.1 -20.4988,8.20039 -31.2988,10.40039 -8.5,1.6 -16.9,3.49922 -25.5,3.19922 -9.9,-0.3 -19.8012,-1.1 -29.7012,-2 -3.9,-0.3 -7.7996,-0.99922 -11.5996,-2.19922 -10.4,-3.7 -20.5992,-7.69961 -30.6992,-12.09961 -2.3,-3.5 -6.3,-2.8 -9.5,-4 -1.1,-0.3 -2.3004,-0.60156 -3.4004,-1.10156 -22.8,-9.5 -46.4996,-16.99922 -70.5996,-22.19922 -9.675,-2.175 -19.4629,-3.11211 -29.2364,-2.89648 z m 451.836,9.49609 c -0.9,0.8 -0.8,1.99961 -1,3.09961 1.3,-0.7 1.2,-1.99961 1,-3.09961 z m -0.9004,3.09961 c -0.6766,0.48329 -1.1658,1.15472 -1.1074,2.01172 -1.1785,1.48476 -0.7997,3.3595 -1.084,5.14062 0,-0.017 -0.01,-0.0337 -0.01,-0.0508 -0.8,0.8 -1.2997,2.09922 -1.0997,3.19922 1.3676,-0.68375 1.3034,-1.84429 1.1133,-3.10938 1.9544,-1.38038 1.0144,-3.34069 1.084,-5.11718 9e-4,0.009 9e-4,0.0182 0,0.0273 0.8,-0.4 1.1996,-1.20156 1.0996,-2.10156 z m -873.4707,3.49023 c 0.3437,0.70789 0.832,1.33421 1.4824,1.86328 -0.324,-0.0653 -0.7198,-0.0373 -1.1484,0.0332 -0.042,-0.65321 -0.1502,-1.28597 -0.334,-1.89649 z m -7.9746,0.0156 c 0.1519,0.0641 0.2916,0.13028 0.4453,0.19531 -0.1335,0.0871 -0.2438,0.17855 -0.3672,0.26758 -0.023,-0.15529 -0.053,-0.30823 -0.078,-0.46289 z m 878.3457,6.79492 c -0.7,0.5 -1.1,1.29922 -1,2.19922 0.7,-0.5 1.1,-1.49922 1,-2.19922 z m -1.0996,2.19922 c -0.8948,0.79532 -0.8998,1.98732 -0.9981,3.08203 -8e-4,-0.0605 0,-0.12151 0,-0.18164 -0.9,0.8 -0.9997,1.99961 -1.0997,3.09961 1.2286,-0.56703 1.1175,-1.75824 1.1016,-2.90039 1.2976,-0.89971 1.1979,-2.00026 0.9981,-3.09961 z m -2,6 c -0.7,0.5 -1.1,1.30117 -1,2.20117 0.8,-0.5 1.2,-1.40117 1,-2.20117 z m -1,2.30078 c -0.6802,0.68018 -1.1719,1.83236 -1.1075,2.90625 -0.6951,0.50036 -1.0918,1.29674 -0.9922,2.19336 0.7686,-0.48036 1.0755,-1.33009 1.0098,-2.10547 1.1893,-0.70083 1.0899,-1.89724 1.0899,-2.99414 z m -2.0997,5.09961 c -0.7,0.7 -1.2015,1.9 -1.1015,3 1.2,-0.7 1.1015,-1.9 1.1015,-3 z m -1.2011,2.90039 c -0.6,0.5 -1.0004,1.29922 -0.9004,2.19922 0.8,-0.5 1.2004,-1.29922 0.9004,-2.19922 z m -0.9004,2.19922 c -0.7972,0.69754 -1.2947,1.89146 -1.1992,2.98828 -0.5543,0.50313 -0.9948,1.26379 -0.9004,2.11328 0.6868,-0.39247 1.1803,-1.26751 1.0097,-2.15039 1.2799,-0.61987 1.0899,-1.88076 1.0899,-2.95117 z m -2.1992,5 c -0.5926,0.49381 -1.0881,1.28159 -1.0039,2.16797 -0.7222,0.50288 -0.9921,1.27281 -0.8965,2.13281 0.6873,-0.49093 1.0843,-1.27035 1.0039,-2.15039 0.8187,-0.42147 1.0885,-1.28609 0.8965,-2.15039 z m -1.9004,4.30078 c -0.5795,0.48289 -1.0653,1.15183 -1.0078,2.00781 -0.5953,0.49952 -0.9922,1.1961 -0.9922,2.0918 0.6756,-0.38605 1.0709,-1.14432 1.0078,-2.00586 0.6958,-0.50037 1.1914,-1.29681 0.9922,-2.09375 z m -2.0996,4.09961 c -0.6,0.5 -1.1,1.19961 -1,2.09961 0.8,-0.5 1.2,-1.29961 1,-2.09961 z m -1,2.09961 c -0.6,0.5 -1,1.20156 -1,2.10156 0.7,-0.5 1.1,-1.30156 1,-2.10156 z m -830.0899,1.09375 c 0.3854,0.82916 0.7231,1.68607 0.8906,2.60742 1.0977,2.39044 2.371,4.64739 3.754,6.82422 -1.0061,-1.43133 -1.9685,-2.89819 -2.8555,-4.42383 -0.5,-0.9 -1.4988,-1.3 -2.2988,-2 -0.5284,-0.21564 -1.0131,-0.4787 -1.4727,-0.76758 0.5307,0.0163 1.0817,-0.0906 1.6719,-0.5332 0.2414,-0.60355 0.3239,-1.1692 0.3105,-1.70703 z m 828.9903,0.90625 c -0.5795,0.48286 -1.0648,1.06063 -1.1875,1.91016 -1.0402,0.14058 -1.8845,1.08393 -2.0079,2.13085 -0.443,0.20055 -0.8616,0.55907 -0.9023,1.07618 0,-0.005 -8e-4,-0.0104 0,-0.0156 -0.6,0.5 -1.1015,1.19961 -1.1015,2.09961 0.775,-0.29062 1.2689,-1.14627 1.1172,-2.01758 l 0.9023,-1.08593 c 1.1651,-0.20237 1.9495,-1.06698 2.0742,-2.13086 0.841,-0.32285 1.3004,-1.09837 1.1075,-1.9668 z m -5.2012,7.10156 c -0.4777,0.0955 -0.8629,0.55504 -0.8965,1.11914 -7e-4,-0.007 0,-0.013 0,-0.0195 -0.6,0.5 -1,1.19961 -1,2.09961 0.6766,-0.28997 1.0724,-1.1405 1.0079,-2.00977 z m -2,3.19922 c -0.6,0.5 -1.1,1.19961 -1,2.09961 0.8,-0.5 1.2,-1.19961 1,-2.09961 z m -0.8985,2.09961 c -0.7,0.5 -1.1,1.19961 -1,2.09961 0.7,-0.5 1.1,-1.19961 1,-2.09961 z m -1.1015,2.20117 c -0.6443,0.73633 -1.118,1.72563 -1.1895,2.73633 0,-0.0123 -0.01,-0.0248 -0.01,-0.0371 -0.6,0.5 -1.0996,1.29922 -1.0996,2.19922 0.8191,-0.18203 1.3072,-1.02543 1.1621,-1.92969 0,0 0,-0.002 0,-0.002 1.3324,-0.7043 1.2332,-1.88399 1.1348,-2.9668 z m -2.0996,4.89844 c -0.6,0.1 -1,0.60117 -1,1.20117 z m -1,1.20117 c -0.6,0.4 -1.0996,1.1 -1.0996,2 0.7,-0.3 1.1996,-1.2 1.0996,-2 z m -801.3653,1.61328 c 1.2288,1.43904 2.4156,2.90736 3.6368,4.35352 -0.099,0.0281 -0.1686,-0.002 -0.2715,0.0332 -0.077,0.13494 -0.045,0.24906 -0.1055,0.38086 -1.0156,-1.63773 -2.1121,-3.21964 -3.2598,-4.76758 z m 797.2657,5.58594 c -0.6944,0.3968 -1.1913,1.08889 -1.1993,1.97851 -0.4874,0.21777 -0.8007,0.59043 -0.8007,1.1211 l 0.9843,-1.18164 c 0.6912,-0.34684 1.1077,-1.08922 1.0157,-1.91797 z m -2.0996,3.09961 c -0.6938,0.39642 -1.0929,1.08818 -1.1973,1.97656 -0.4888,0.21761 -0.8027,0.59346 -0.8027,1.125 l 0.9707,-1.16601 c 0.7794,-0.34009 1.1227,-1.09473 1.0293,-1.93555 z m -2.0997,3.10156 c -0.6582,0.37616 -1.1402,1.01624 -1.1953,1.83984 -0.4669,0.21094 -0.9062,0.59766 -0.9062,1.16016 0.4485,-0.17942 0.8177,-0.52014 0.9609,-1.02148 0.8622,-0.31922 1.3362,-1.19644 1.1406,-1.97852 z m -12.3007,15.39844 c -0.6,0.1 -1,0.50156 -1,1.10156 z m -8.4004,9.20117 c -0.5,0.1 -0.9996,0.49961 -1.0996,1.09961 0.6,-0.1 1.0996,-0.49961 1.0996,-1.09961 z m -1,1.09961 c -0.4772,0.0954 -0.9545,0.46459 -1.084,1.01953 -0.448,0.11976 -0.8781,0.47766 -1,1 -0.4708,0.12585 -0.9212,0.51372 -1.0156,1.08008 0.4765,-0.0953 0.862,-0.55357 1.0703,-1.0293 0.454,-0.19876 0.8917,-0.55918 1.0136,-1.00586 0.4709,-0.20965 0.9213,-0.59246 1.0157,-1.06445 z m -3.0996,3 c -0.5,0.1 -0.9996,0.49961 -1.0996,1.09961 0.6,-0.1 0.9996,-0.59961 1.0996,-1.09961 z m -1,1.09961 c -0.5,0.1 -0.9996,0.49961 -1.0996,1.09961 0.6,-0.1 0.8996,-0.59961 1.0996,-1.09961 z m -1.0996,1 c -0.4777,0.0955 -0.9551,0.46552 -1.084,1.02148 -0.4708,0.12589 -0.9213,0.51182 -1.0157,1.07813 0.5726,-0.0954 0.9626,-0.46264 1.084,-1.01758 0.5527,-0.13091 0.9205,-0.60606 1.0157,-1.08203 z m -730.4727,3.29297 c 0.5325,0.59565 1.0328,1.21665 1.5723,1.80664 0.1801,0.18017 0.3906,0.39972 0.5996,0.60156 -0.3,-0.2 -0.7989,-0.40039 -1.2989,-0.40039 h -0.7011 c -0.9555,-0.23887 -1.67,-0.23134 -2.4473,-0.28906 0.6635,-0.26031 1.1591,-0.48773 2.0469,-0.81055 0.1833,-0.29332 0.2016,-0.60278 0.2285,-0.9082 z m 2.8086,2.99804 c 1.0485,0.71025 1.9339,1.57058 2.7168,2.51758 -0.7992,-0.94362 -1.6992,-1.79472 -2.7168,-2.51758 z m 4.668,4.81446 c 0.071,0.0701 0.1171,0.13672 0.1953,0.19531 0.7815,1.25594 1.5461,2.49552 2.3164,3.74023 -0.8687,-1.29062 -1.6037,-2.69434 -2.5117,-3.93554 z m -15.4356,7.48437 c 0.197,0.0434 0.3115,0.19873 0.5313,0.21094 0.088,-0.0618 0.1126,-0.13869 0.1894,-0.20312 0.014,0.40625 0.1747,0.77578 0.1113,1.20312 -0.2602,-0.41839 -0.5642,-0.79909 -0.832,-1.21094 z m 24.1309,6.31055 c 0.2434,0.23998 0.4804,0.56055 0.8008,0.80078 v 0.86719 c -0.067,-0.15244 -0.1343,-0.30141 -0.2012,-0.46875 -0.1799,-0.41973 -0.3982,-0.80828 -0.5996,-1.19922 z m 0.959,2.03711 c 1.3031,1.94683 2.6075,3.88811 3.916,5.82812 -0.9393,-1.09504 -1.9182,-2.15947 -2.9258,-3.20117 -0.2863,-0.67686 -0.4484,-1.39196 -0.7481,-2.06445 -0.08,-0.20091 -0.1618,-0.38091 -0.2421,-0.5625 z m 10.2304,15.43945 c 0.9939,1.53294 1.9807,3.07205 2.9473,4.62696 -1.1114,-1.46811 -2.1026,-3.0262 -2.9473,-4.62696 z m 9.543,16.00977 c 1.373,2.60673 2.6699,5.2765 3.8867,8.01367 -1.3994,-2.62834 -2.7755,-5.24219 -3.8867,-8.01367 z m -10.5059,0.89648 c 0.021,0.004 0.042,0.011 0.062,0.0156 0.097,0.69704 0.1531,1.38931 0.2325,2.08594 -0.1193,-0.70046 -0.1647,-1.40111 -0.295,-2.10157 z m 872.0743,107.31641 c -0.5,0.8 -1.4996,0.6016 -2.0996,1.1016 -0.3,0.5 -0.8,0.9 -1.5,1 0,-0.1 -0.1016,-0.1016 -0.1016,-0.1016 -0.2,0 -0.4,0.1008 -0.5,0.3008 -0.3,0.4 -0.6992,0.8004 -1.1992,0.9004 l 0.1,-0.1 c -0.4,0.8 -1.4,0.5996 -2,1.0996 -0.4,0.6 -0.8,0.9 -1.5,1 h -0.1 c -0.2,-0.1 -0.5,0.099 -0.5,0.2988 -0.3,0.3 -0.6996,0.6004 -1.0996,0.9004 h 0.1 c -0.3,0.5 -0.8,0.9 -1.5,1 h -0.1 c -0.2,-0.1 -0.5,0.1008 -0.5,0.3008 l -1.0996,0.9004 h 0.1 c -0.3,0.5 -0.8,0.9 -1.5,1 h -0.1 c -0.2,-0.1 -0.4,0.099 -0.5,0.2988 -0.3,0.3 -0.7016,0.6004 -1.1016,0.9004 -0.2,0.5 -0.5992,0.9 -1.1992,1 l 0.1,-0.1 c -0.3,0.99995 -1.3004,0.69875 -1.9004,1.29875 -0.2,0.5 -0.5996,0.8 -1.0996,1 l 0.1,-0.1 c -0.4,0.8 -1.3984,0.5012 -1.8984,1.2012 l -0.1016,0.1 c -0.3,0.4 -0.6996,0.7 -1.0996,1 -0.3,0.4 -0.5992,0.8 -1.1992,1 l 0.1,-0.1 c -0.4,0.9 -1.4004,0.5988 -1.9004,1.2988 l -0.1,0.1 c -0.3,0.4 -0.7,0.7 -1,1 -0.1854,0.3707 -0.5702,0.635 -1.0195,0.834 -0.2,0.4878 -0.4945,0.9688 -1.0801,1.0664 l 0.1,-0.1 c -0.3,0.8 -1.4004,0.4992 -1.9004,1.1992 l -0.1,0.1016 c -0.3,0.2 -0.7,0.5984 -1,0.8984 -0.3,0.4 -0.6996,0.7 -1.0996,1 -0.1862,0.4654 -0.5846,0.7322 -1.1172,0.9317 -0.2,0.4838 -0.4979,0.873 -1.084,1.0683 l 0.1016,-0.1 c -0.4,0.9001 -1.4004,0.6008 -1.9004,1.3008 l -0.1,0.1 c -0.3,0.3 -0.6004,0.6 -0.9004,1 l -1,1 c -0.2,0.3 -0.6004,0.7 -0.9004,1 -0.2,0.4 -0.6,0.7 -1,1 -0.1836,0.4591 -0.5663,0.7187 -1.0098,0.918 -0.102,0.4701 -0.478,0.8403 -1.0293,1.0449 -0.1897,0.4429 -0.4762,0.796 -0.9921,0.9941 -0.115,0.4499 -0.4738,0.8077 -1.0079,1.0059 -0.1897,0.4429 -0.4762,0.796 -0.9921,0.9941 -0.115,0.4499 -0.4738,0.8077 -1.0079,1.006 -0.1897,0.4429 -0.4762,0.7959 -0.9921,0.994 -0.115,0.4499 -0.4738,0.8077 -1.0079,1.006 -0.1897,0.4429 -0.4762,0.7959 -0.9921,0.994 -0.115,0.4499 -0.4738,0.8077 -1.0079,1.006 -0.1893,0.442 -0.476,0.7937 -0.9902,0.9921 -0.1137,0.4599 -0.4738,0.8929 -1.0117,1.0137 -0.1929,0.4478 -0.4809,0.8067 -1.0117,1.0019 -0.1162,0.4597 -0.377,0.8465 -0.8477,1.1289 -0.3,0.3 -0.6,0.7 -1,1 l -0.9004,0.9004 -1,0.9004 v 0.1 c -0.3,0.3 -0.5984,0.6 -0.8984,1 l -0.1016,0.1 c -0.6,0.5 -0.3988,1.6004 -1.2988,1.9004 l 0.1,-0.1 c -0.189,0.4726 -0.4869,0.8413 -1.0234,1.0508 -0.03,0.3772 -0.385,0.8143 -0.9278,1.0176 -0.1255,0.4608 -0.4723,0.8478 -0.8496,1.1308 l -1,1 h -0.1 c -0.3,0.2 -0.6004,0.5004 -0.9004,0.9004 -0.3,0.1 -0.3988,0.3992 -0.2988,0.6992 -0.097,0.5823 -0.4859,1.1505 -1.0566,1.3672 -0.1997,0.4615 -0.4714,0.8496 -0.9434,1.1328 v -0.1 c -0.3,0.4 -0.6,0.7996 -1,1.0996 -0.4,0.3 -0.6004,0.6 -0.9004,1 -0.3,0.1 -0.4008,0.4012 -0.3008,0.7012 -0.097,0.5819 -0.4846,1.0627 -1.0547,1.3652 -0.2092,0.3876 -0.5673,0.8513 -0.9453,1.1348 -0.3,0.2 -0.5984,0.5004 -0.8984,0.9004 -0.3,0.1 -0.4008,0.3992 -0.3008,0.6992 0,0.5736 -0.3791,1.0462 -0.9355,1.3496 -0.1187,0.3912 -0.4813,0.8624 -0.8653,1.1504 -0.5,0.5 -0.2992,1.5004 -1.1992,1.9004 l 0.1,-0.1 c -0.2,0.5 -0.5,0.8992 -1,1.1992 -0.3,0.3 -0.6004,0.6 -0.9004,0.99996 -0.3,0.1 -0.3988,0.3992 -0.2988,0.6992 -0.1,0.5 -0.4,1.1004 -1,1.4004 v -0.1 l -0.8008,1 c -0.3,0.1 -0.3988,0.3992 -0.2988,0.6992 -0.1,0.5 -0.5,1.1004 -1,1.4004 -0.5,0.7 -0.3012,1.6996 -1.2012,2.0996 l 0.1,-0.1 c -0.2,0.5 -0.7,0.8012 -1,1.2012 -0.6,0.5 -0.2996,1.5 -1.0996,2 v -0.1016 c -0.2,0.2 -0.4988,0.6 -0.7988,1 -0.3,0.1 -0.4008,0.4012 -0.3008,0.7012 -0.1,0.5 -0.4004,1.0004 -0.9004,1.4004 -0.6,0.5 -0.2996,1.5 -1.0996,2 -0.5,0.7 -0.1992,1.6996 -1.1993,2.0996 l 0.1,-0.1 c -0.1,0.5 -0.5008,0.7992 -0.8008,1.1992 -0.3,0.1 -0.3989,0.3992 -0.2989,0.6993 -0.1,0.5 -0.4007,1.0003 -0.8007,1.4003 -0.3,0.1 -0.4008,0.4012 -0.3008,0.7012 -0.1,0.5 -0.5,1.0984 -1,1.3985 -0.5,0.5999 -0.3,1.6015 -1,2.1015 -0.5,0.6 -0.3,1.5996 -1,2.0996 -0.5,0.6 -0.3,1.5996 -1,2.0996 -0.5,0.6 -0.3,1.5996 -1,2.0996 -0.4,0.6 -0.3,1.5997 -1,2.0997 -0.6,0.5999 -0.4,1.5016 -1,2.1015 -0.3,0.2 -0.2992,0.4992 -0.1992,0.6992 -0.1,0.5 -0.4008,1.0004 -0.8008,1.4004 -0.3,0.1 -0.3988,0.3992 -0.2988,0.6992 -0.2,0.5 -0.4008,1.0004 -0.8008,1.4004 -0.2,0.2 -0.2992,0.5004 -0.1992,0.9004 -0.5,0.7 -0.2,1.5993 -1,2.1992 -0.5,0.6 -0.4004,1.4997 -0.9004,2.0997 -0.3,0.1 -0.4008,0.4011 -0.3008,0.7011 -0.4,0.8 -0.2,1.7004 -1,2.4004 -0.5,0.6 -0.3985,1.4997 -0.8985,2.0996 -0.3,0.1 -0.4007,0.3992 -0.3007,0.6992 -0.4,0.9001 -0.2004,1.8 -0.9004,2.5 -0.3,0.2 -0.2992,0.5012 -0.1992,0.7012 -0.3,0.9001 -0.2,1.8 -1,2.5 -0.5,0.6 -0.3008,1.3996 -0.8008,2.0996 -0.2,0.3 -0.2992,0.6 -0.1992,1 -0.5,0.7 -0.3008,1.4992 -0.8008,2.1992 -0.2,0.2 -0.2992,0.5004 -0.1992,0.9004 -0.9,0.9001 -0.1004,2.3 -1.4004,3 -0.2,0.2 -0.2996,0.4992 -0.1,0.6993 -0.4,0.7999 -0.3004,1.7003 -0.9004,2.4003 -0.1,0.2 -0.1996,0.6004 -0.1,0.9004 -0.5,0.7 -0.3008,1.4992 -0.8008,2.1993 -0.1,0.5999 -0.1989,1.1012 -0.2989,1.7011 -0.2,0.8 -0.5007,1.6004 -0.8007,2.4004 -0.1,0.6 -0.2008,1.0993 -0.3008,1.6992 -0.2,0.8 -0.4988,1.6004 -0.7988,2.4004 l -0.3008,1.6992 c -0.7,1 -0.1004,2.4004 -0.9004,3.4004 -3.1,11.3 -4.1985,22.9001 -4.8985,34.5 -0.9,16 -7e-4,31.8992 2.6993,47.6993 3.8,23.2999 11.5996,45.7008 23.0996,66.3007 5.6,10.1 10.5,20.4001 18.5,29 0.1289,0.4107 0.3637,0.7324 0.5234,1.1172 -0.136,4.1253 2.0038,7.1166 4.6778,9.8828 8.4,8.6 17.5984,16.2009 26.8984,23.8008 17.2,14 34.6,28.0996 54,39.0996 9.5,5.6 19.4012,10.1996 29.7012,14.0996 2.2,0.3 4.3,1.2 6,2.5 0.095,0.065 0.1937,0.1259 0.2891,0.1914 -0.3178,0.056 -0.6478,0.1516 -0.9903,0.3086 3.6,5.8 7.8012,11.2009 13.2012,15.3008 2.3,1.7 4.5004,3.7984 7.4004,4.3985 0.041,0.037 0.083,0.068 0.125,0.1034 -0.042,0 -0.083,0 -0.125,0 0.5,1.2 1.6996,2.0996 3.0996,2.0996 -0.019,-0.049 -0.038,-0.097 -0.059,-0.1445 0.019,0.016 0.04,0.028 0.059,0.045 0.056,-0.01 0.1104,-0.01 0.166,-0.016 -0.055,0.043 -0.1107,0.068 -0.166,0.1152 1.9562,2.8364 5.3418,3.2898 8.1094,4.9922 0,0 -0.01,0 -0.01,0.01 5.4,4.3 12.1992,5.8 18.6992,8 10.1,3.4 20.4004,5.8988 30.9004,7.2988 7.6,1.1 15.1004,2.5008 22.9004,2.3008 9.4,-0.2 18.7992,0 28.1992,-1 4.6,-0.5 9.2012,-0.7992 13.7012,-1.6992 8.9,-2 18.0004,-2.5016 26.9004,-3.6016 4.1,-0.4 8.4992,-0.5992 12.6992,-1.1992 6,-0.8 12.1008,-1.6008 18.3008,-1.8008 4.6,-0.2 9.1,-0.4 13.5,-2 -0.089,-0.079 -0.1818,-0.1266 -0.2715,-0.1992 0.091,0 0.1807,0 0.2715,0 2.9,-1 6.0996,-0.8004 9.0996,-1.4004 13.3,-2.7 26.4988,-5.1004 39.7988,-7.9004 14.1,-2.8 27.9004,-7.2984 40.9004,-13.3984 1.9549,-0.9775 3.9981,-1.8692 5.0234,-3.9629 0.025,-0.013 0.051,-0.024 0.076,-0.037 11.2,-4.1 21.9004,-9.5012 31.9004,-16.2012 10,-6.5 19.8004,-13.2988 29.9004,-19.7988 0.9723,-0.4862 1.6514,-1.1709 2.1484,-2.0352 0.053,-0.052 0.1226,-0.078 0.1778,-0.1269 -0.01,0.02 -0.017,0.04 -0.025,0.06 1.3,0 2.4996,-0.8996 3.0996,-2.0996 -0.01,0 -0.021,-10e-5 -0.031,0 4.6298,-2.4884 8.7853,-5.7346 13.1309,-8.5 2.3,-1.5 5.1,-2.1988 6.5,-4.7988 -0.048,0.011 -0.089,0.039 -0.1367,0.051 0.075,-0.058 0.1616,-0.093 0.2363,-0.1524 1.1,-0.2 2.0008,-0.4988 2.8008,-1.2988 4.8,-4.1 9.6996,-8.0996 14.5996,-12.0996 6.7,-5.4 12.4992,-11.6012 16.6992,-19.2012 7.8,-14.3 16.0012,-28.3992 22.7012,-43.1992 2.9,-6.4 6,-13.0012 7,-20.2012 -0.4754,0.8068 -0.969,1.6099 -1.4414,2.4199 0.3077,-0.8104 0.6564,-1.5943 0.9414,-2.4199 0.7,-0.6 0.5,-1.3996 1,-2.0996 0.3,-0.8 0.5004,-1.6004 0.9004,-2.4004 5.6,-12.4 9.6996,-25.3988 12.0996,-38.7988 0.6,-3.7 1.0988,-7.4012 1.2988,-11.2012 0.1,-4.5 -2.5992,-6.8992 -6.6992,-6.6992 -3.5,0.2 -5.5992,2.3004 -6.1992,6.9004 -1.2,8.8 -3.3012,17.5004 -6.2012,25.9004 -10.4,28.9 -28.6,52.2992 -51.5,72.1992 -20.3,17.7 -43.3004,31.5004 -67.9004,42.4004 -54.7,24 -112.0996,35.1004 -171.5996,36.4004 -24.5,0.6 -49.1004,-0.8 -73.4004,-4 -25.4,-3.2 -50.4988,-8.8012 -74.7988,-16.7012 -39.9,-13 -76.6996,-31.8988 -109.0996,-58.7988 -4.9,-4.1 -9.8012,-8.1012 -13.7012,-13.2012 -24.1,-32.1 -35.8,-68.4004 -36.5,-108.4004 -0.1,-4.5 -0.1,-8.8984 -0.1,-13.3984 0.064,-0.7309 0.2227,-1.5108 0.3672,-2.2871 0.012,0.462 0.024,0.9256 0.033,1.4863 v 1 c 1.6,-4.8 1.1,-10.1004 2,-14.9004 3.8,-27.4 12.4988,-53.8 25.7988,-78 4.6,-8.4 10.2,-16.2 15,-24.5 -0.5957,-0.247 -1.1734,-0.4077 -1.7441,-0.5254 0.499,0.01 1.0095,0.042 1.5449,0.125 0.6,-0.1 0.9004,-0.5 0.9004,-1 h -1.2969 c 0.2665,-0.12876 0.5359,-0.16136 0.7969,-0.29876 0.3,-0.2 0.6004,-0.6 0.9004,-1 l 0.1,-0.2012 c 0.7,-0.5 0.3992,-1.4984 1.1992,-1.8984 l -0.1,0.1 c 0.3,-0.3 0.6,-0.6996 1,-1.0996 0.3,-0.2 0.6008,-0.6 0.8008,-1 l 0.1992,-0.2012 c 0.7,-0.4 0.3992,-1.3988 1.1992,-1.7988 l -0.1,0.1 c 0.2,-0.3 0.5004,-0.7996 0.9004,-1.0996 0.3,-0.2 0.6008,-0.6 0.8008,-1 l 0.1992,-0.2012 c 0.3,-0.1 0.5992,-0.3988 0.6992,-0.7988 0.3,-0.2 0.5,-0.5004 0.5,-0.9004 0.1,-0.4 0.5,-0.9012 1,-1.2012 l -0.1,0.1016 c 0.2,-0.3 0.5004,-0.8016 0.9004,-1.1016 0.3,-0.2 0.6008,-0.6 0.8008,-1 l 0.1992,-0.1992 c 0.4,-0.2 0.7004,-0.5004 0.9004,-0.9004 l 0.1992,-0.1992 c 0.6,-0.4 0.4012,-1.5008 1.2012,-1.8008 l -0.1016,0.1 c 0.1,-0.4 0.5,-0.7996 1,-1.0996 l -0.1,0.1 c 0.1,-0.4 0.5,-0.7996 1,-1.0996 l -0.1,0.1 c 0.2,-0.4 0.6,-0.7996 1,-1.0996 0.3,-0.3 0.6004,-0.6996 0.9004,-1.0996 l 0.1,-0.1 c 0.4,-0.2 0.7004,-0.5004 0.9004,-0.9004 l 0.1992,-0.1992 c 0.4,-0.2 0.7004,-0.5004 0.9004,-0.9004 l 0.1992,-0.2012 c 0.4,-0.2 0.7004,-0.4984 0.9004,-0.8984 l 0.2012,-0.2012 c 0.4,-0.2 0.6984,-0.5004 0.8984,-0.9004 l 0.2012,-0.1992 c 1.8,-2.2 3.8,-4.2996 6,-6.0996 l 0.1992,-0.2012 c 0.4,-0.2 0.8004,-0.4984 0.9004,-0.8984 l 0.1992,-0.2012 c 0.4,-0.2 0.7004,-0.5004 0.9004,-0.9004 l 0.2012,-0.1992 c 0.4,-0.2 0.6984,-0.5004 0.8984,-0.9004 l 0.2012,-0.1992 c 0.4,-0.2 0.7004,-0.5004 0.9004,-0.9004 l 0.1992,-0.1992 c 0.4,-0.2 0.7004,-0.5004 0.9004,-0.9004 l 0.1992,-0.2012 c 0.4,-0.2 0.7004,-0.4984 0.9004,-0.8984 l 0.1992,-0.2012 c 0.4,-0.2 0.7004,-0.5004 0.9004,-0.9004 l 0.2012,-0.1 c 0.3,-0.3 0.6,-0.6004 1,-0.9004 0.2,-0.3 0.4984,-0.7 0.8984,-1 0.1267,-0.2544 0.4184,-0.5445 0.8008,-0.7988 0.1912,-0.2869 0.5812,-0.6622 1.0508,-0.957 0.3035,-0.47 0.7793,-0.8477 1.4492,-0.9434 0.3,0 0.5996,-0.2 0.5996,-0.5 0.4,-0.2 0.7008,-0.4008 0.8008,-0.8008 l 0.1992,-0.1992 c 0.4,-0.2 0.7004,-0.5004 0.9004,-0.9004 l 0.1992,-0.1 c 0.3,-0.3 0.6,-0.6004 1,-0.9004 0.2,-0.4 0.6016,-0.7 1.1016,-1 l -0.1016,0.1 c 0.2843,-0.4738 0.5991,-0.7475 1.1387,-0.9472 4.9674,-5.3926 6.7663,-12.17065 7.9629,-18.95115 0.3953,-2.0755 0.7585,-4.8095 -2.9004,-4.1016 z m -5.0625,23.05275 c -0.014,0.015 -0.023,0.033 -0.037,0.049 l 0.1,-0.1016 c -0.031,0.011 -0.033,0.042 -0.062,0.053 z m -7.2871,6.1914 c -0.014,0.021 -0.038,0.035 -0.051,0.057 l 0.1,-0.1 c -0.022,0.013 -0.027,0.029 -0.049,0.043 z m 520.3496,254.25576 c 0.8,-0.4 1.1004,-1.2996 0.9004,-2.0996 -0.6,0.5 -1.0004,1.1996 -0.9004,2.0996 z M 3695.1807,995.22964 c 0,-0.016 0.031,-0.033 0.035,-0.049 l -0.1,0.1 c 0.026,-0.013 0.039,-0.037 0.064,-0.051 z m 3.08,-4.084 c 0.012,-0.023 0.044,-0.044 0.055,-0.066 l -0.1,0.1016 c 0.018,-0.01 0.027,-0.026 0.045,-0.035 z m 4.1993,-5.1992 c 0.012,-0.027 0.045,-0.039 0.057,-0.066 l -0.1,0.1 c 0.018,-0.01 0.026,-0.027 0.043,-0.033 z m 4.205,-5.0976 c 0.01,-0.028 0.045,-0.04 0.051,-0.068 l -0.1,0.1 c 0.02,-0.01 0.029,-0.024 0.049,-0.031 z m 0.9278,-1.0176 c 0,-0.017 0.023,-0.034 0.023,-0.051 l -0.1,0.1 c 0.033,-0.011 0.045,-0.037 0.076,-0.049 z m 6.9707,-7.9805 c 0.01,-0.029 0.047,-0.041 0.053,-0.07 l -0.1,0.1 c 0.02,-0.01 0.027,-0.022 0.047,-0.029 z m 1.0117,-1.0019 c 0.011,-0.025 0.031,-0.043 0.041,-0.068 l -0.1,0.1 c 0.024,0 0.035,-0.026 0.059,-0.031 z m 1.0117,-1.0137 c 0,-0.02 0.025,-0.035 0.029,-0.055 l -0.1,0.1 c 0.03,-0.01 0.041,-0.034 0.07,-0.045 z m 0.9902,-0.9922 c 0.01,-0.023 0.03,-0.039 0.039,-0.062 l -0.1,0.1 c 0.025,-0.01 0.036,-0.028 0.061,-0.037 z m 1.0079,-1.0059 c 0.01,-0.021 0.027,-0.035 0.031,-0.057 l -0.1,0.1 c 0.029,-0.01 0.04,-0.032 0.068,-0.043 z m 0.9921,-0.9941 c 0.01,-0.023 0.03,-0.039 0.039,-0.062 l -0.1,0.1 c 0.025,-0.01 0.036,-0.028 0.061,-0.037 z m 1.0079,-1.0059 c 0.01,-0.021 0.027,-0.035 0.031,-0.057 l -0.1,0.1 c 0.029,-0.01 0.04,-0.032 0.068,-0.043 z m 0.9921,-0.9941 c 0.01,-0.023 0.03,-0.039 0.039,-0.062 l -0.1,0.1 c 0.025,-0.01 0.036,-0.028 0.061,-0.037 z m 1.0079,-1.0059 c 0.01,-0.021 0.027,-0.035 0.031,-0.057 l -0.1,0.1 c 0.029,-0.01 0.04,-0.032 0.068,-0.043 z m 0.9921,-0.9941 c 0.01,-0.023 0.03,-0.039 0.039,-0.062 l -0.1,0.1 c 0.025,-0.01 0.036,-0.028 0.061,-0.037 z m 1.0079,-1.0059 c 0.01,-0.021 0.027,-0.035 0.031,-0.057 l -0.1,0.1 c 0.029,-0.01 0.04,-0.032 0.068,-0.043 z m 0.9921,-0.9941 c 0.01,-0.023 0.03,-0.039 0.039,-0.062 l -0.1,0.1 c 0.025,-0.01 0.036,-0.028 0.061,-0.037 z m 1.0293,-1.0449 c 0,-0.01 0.01,-0.011 0.01,-0.018 l -0.1,0.1 c 0.041,-0.016 0.05,-0.064 0.09,-0.082 z m 7.793,-7.2871 c 0,-0.012 0.013,-0.02 0.018,-0.031 l -0.1016,0.1 c 0.042,-0.014 0.044,-0.053 0.084,-0.068 z m 6.1973,-5.0977 c 0,-0.012 0.015,-0.021 0.019,-0.033 l -0.1,0.1 c 0.037,-0.015 0.045,-0.051 0.08,-0.066 z m 412.6757,7.8555 c -1.8665,-0.013 -3.6246,0.7117 -5.2558,2.5117 -0.9,1.1 -2.3012,1.5996 -3.2012,2.5996 -3.1,3.1 -7.3988,4.9004 -9.7988,8.9004 0.01,0.015 0.02,0.028 0.029,0.043 -3.6432,3.0557 -7.2764,6.2174 -10.2305,10.1562 l 0.418,0.3477 c -0.1147,0.078 -0.2311,0.1535 -0.3477,0.2285 0.01,-0.159 -0.021,-0.3521 -0.07,-0.5762 l -0.9023,0.9024 c -4.299,2.2478 -8.1194,5.3565 -11.1836,9.0429 -0.103,0.087 -0.2105,0.1684 -0.3125,0.2559 -0.038,0.034 -0.084,0.059 -0.1231,0.092 -1.2199,0 -2.3266,0.7576 -2.705,1.8515 -0.058,0.052 -0.1165,0.1009 -0.1719,0.1563 -3.1,2.8 -6.6008,4.9992 -10.3008,6.6992 -8.5,4.09996 -17.5,7.80076 -26.5,10.80076 -4.5,1.5 -8.9008,3.2992 -12.8008,6.1992 -3.7,0.9 -6.2996,4.2 -6.0996,8 0,3.9 2.5996,6.4 6.0996,7.5 5.1728,1.7243 10.7124,1.7921 15.8281,0.2129 0.1182,0.1845 0.2938,0.1312 0.5098,-0.1621 0.054,-0.018 0.1084,-0.033 0.1621,-0.051 -0.025,-0.025 -0.055,-0.044 -0.084,-0.066 0.028,-0.043 0.055,-0.082 0.084,-0.1328 3.0831,-0.3978 6.2654,-0.3994 9.3496,-0.01 -0.05,0.068 -0.1009,0.1322 -0.1484,0.2051 3,1.7 6.3004,1.2004 9.4004,0.4004 13.2,-3.1 23.3988,-10.5996 31.7988,-21.0996 0.023,-0.039 0.039,-0.077 0.061,-0.1152 0.012,0.072 0.024,0.1449 0.039,0.2148 1.2,-0.8 1.6012,-1.9992 1.7012,-3.1992 0.067,-0.3539 0.1471,-0.7085 0.2246,-1.0625 0.097,0.4132 0.1758,0.8296 0.1758,1.2617 l 3.0508,-6.3008 c 0.018,0.034 0.028,0.068 0.049,0.1016 4.4,-2.39996 8.5004,-5.10076 11.4004,-9.30076 7.3,-6 12.3992,-13.7008 17.1992,-21.3008 1,-2 1.5008,-4.2 1.3008,-6.5 0,-3.3 -0.8016,-6.0996 -4.1016,-7.5996 -1.575,-0.7437 -3.0912,-1.2005 -4.543,-1.2109 z m -15.0703,12.7031 c 0.03,0.034 0.061,0.066 0.092,0.098 -0.026,0 -0.052,0.01 -0.078,0.01 -0.031,0.047 -0.075,0.1 -0.1152,0.1504 0.01,-0.05 0.016,-0.1004 0.016,-0.1504 0.028,-0.036 0.057,-0.071 0.086,-0.1074 z m -0.623,2.5488 c 0.8822,0.6792 2.4643,-0.01 2.6367,1.459 -1.0273,1.3697 -1.9711,2.8884 -2.7891,4.4258 -0.5057,-2.4254 -1.7948,-2.7616 -3.3496,-2.3438 1.2378,-1.1053 2.4059,-2.2872 3.502,-3.541 z m -13.5703,10.0117 c 0.021,0 0.042,0.01 0.062,0.012 -0.012,0.01 -0.023,0.015 -0.035,0.021 -0.01,-0.011 -0.019,-0.021 -0.027,-0.033 z m 134.7871,28.71096 c -1.898,0.022 -3.7367,0.8558 -5.4805,2.0371 -6.8,4.5 -14.1984,8.0996 -20.3984,13.5996 -4.1,3.7 -9.1016,6.2996 -12.1016,11.0996 0.2264,-0.028 0.4457,-0.071 0.6602,-0.1191 -0.2207,0.1721 -0.4388,0.3487 -0.6602,0.5195 -3.2,1.8 -5.4996,4.5004 -8.0996,6.9004 -3.9057,3.6199 -8.805,6.5175 -12.0273,11.0195 -0.1897,0.1618 -0.3832,0.3176 -0.5723,0.4805 l -1,1 c -1.1,0.8 -2.3004,1.4988 -3.4004,2.2988 -16.6,10.5 -33.8004,20.2008 -51.4004,28.8008 -2.3,1.2 -4.9996,2.0004 -7.0996,3.9004 -2.1,-0.2 -3.4996,1.1992 -5.0996,2.1992 -0.1163,0.1308 -0.2255,0.2679 -0.3379,0.4024 -1.6784,0.018 -2.7722,1.204 -4.0625,1.998 -6.8,4 -7.0996,7.8004 -1.0996,12.9004 1.4,1.2 3.3992,1.7988 5.1992,1.2988 1.6,-0.5 3.1016,-0.7984 4.6016,-0.8984 13.2,-0.6 24.7988,-5.6004 35.7988,-12.4004 -0.076,-0.076 -0.1614,-0.1394 -0.2461,-0.2012 h 0.2461 c 3.8929,-1.6969 7.4873,-4.0888 11.4785,-5.291 1.2698,0.1093 2.4437,0.4753 3.5215,-0.3086 -0.5704,-0.2074 -1.194,-0.3328 -1.8301,-0.3789 0.7101,0.02 1.4208,0.061 2.1309,0.1797 9,-0.5 16.4992,-4.9 24.1992,-9 9.8,-5.1 18.1012,-12.2004 26.7012,-18.9004 7,-5.7 12.6996,-13.0008 16.5996,-21.3008 1,-1.9 1.3,-4 1,-6 -0.056,-0.1116 -0.098,-0.2104 -0.1484,-0.3164 0.2446,-1.433 1.4426,-2.5203 2.248,-3.6836 0.173,-0.2358 0.3326,-0.4835 0.4961,-0.7285 2.9985,-2.8353 4.9718,-6.5593 7.2031,-10.3711 1.7,-2.9 0.3,-6.8996 -2.5,-9.0996 -1.5312,-1.1812 -3.0433,-1.6542 -4.5195,-1.6367 z m -184.0352,20.9512 c 0.2342,0.1897 0.4823,0.3843 0.7559,0.5859 -0.2791,0.01 -0.5505,0.021 -0.8281,0.031 0.023,-0.2069 0.039,-0.4227 0.072,-0.6171 z m -391.207,5.748 c 0.8204,0.017 1.932,0.6973 3.5742,1.8652 -0.5139,0.8356 -0.9682,1.7841 -1.4121,2.6719 -0.4,0.6 -0.6,1.0012 -1,1.7012 -0.3,0.7 -0.7988,1.3 -1.2988,2 -0.3,0.5 -0.7,1 -1,1.5 -0.7,0.9 -1.2008,1.9996 -1.8008,3.0996 -0.3,0.6 -0.6004,0.9996 -0.9004,1.5996 -0.2,0.3 -0.3996,0.6 -0.5996,1 -0.3,0.6 -0.7,1.0996 -1,1.5996 -0.7,0.9 -1.1993,1.9004 -1.6993,2.9004 l -0.9003,1.6992 c -0.2,0.3 -0.3997,0.6 -0.5997,1 -0.3,0.5 -0.7,0.9 -1,1.5 -0.6,1 -1.1015,1.9008 -1.6015,2.8008 -0.3,0.6 -0.5988,0.9996 -0.7988,1.5996 -0.2,0.3 -0.3,0.5 -0.5,1 -0.2,0.5 -0.5012,0.9004 -0.7012,1.4004 -0.2,0.2 -0.2,0.4004 -0.5,0.9004 -0.2,0.5 -0.4988,0.9004 -0.7988,1.4004 -0.2,0.3 -0.3997,0.6 -0.5997,1 -0.4,0.6 -0.7,0.9996 -1,1.5996 -0.3139,0.6728 -0.6728,1.3213 -1.0312,1.9629 -0.089,-1.8848 0.7068,-3.6149 1.6309,-5.4629 4.2,-9.5 9.4988,-18.4004 12.7988,-28.4004 0.9563,-2.7562 1.5962,-3.9617 2.7383,-3.9375 z m 498.1777,53.8574 c 0,0 0,0 0,0 h -0.01 c 0,-8e-4 0,0 0,0 z m 2.1856,0.2793 c 0.2,0 0.3996,0.01 0.5996,0.01 -0.2847,0.012 -0.5675,0.042 -0.8457,0.086 l -0.07,-0.014 c 0.106,-0.028 0.2051,-0.047 0.3164,-0.08 z m -851.4336,72.7715 c -1.279,0.011 -2.5672,0.054 -3.8672,0.1289 -9,0.6 -17.6993,3.5008 -25.1993,8.3008 -13.9,8.7 -23.9,21.1992 -31,35.6992 -9,18.2 -12.6003,37.8 -12.4003,58 0.1,16.6 3.2996,33.2008 9.5996,48.3008 3.6,9 8.6004,17.5996 14.9004,25.0996 15.6,18.5 35.5992,28.0004 59.6992,27.4004 11.5,-0.1 22.6008,-4.1996 31.3008,-11.5996 11.2,-9.4 17.2996,-22.1 21.5996,-35.5 3.9,-12 6.2004,-24.6008 6.9004,-37.3008 1.2,-24.8 -0.4012,-49.0008 -10.2012,-72.3008 -4.4,-10.6 -10.1988,-20.0988 -18.2988,-28.2988 -5,-5.1 -10.9004,-9.3996 -17.4004,-12.5996 -8.225,-3.85 -16.6805,-5.4039 -25.6328,-5.3301 z m -439.8672,4.3301 c -13.9,-0.2 -26.2993,4.2988 -38.1993,10.7988 -8.4,4.5 -15.2,10.9996 -21.5,18.0996 -0.9234,0.4617 -1.562,1.4387 -1.58,2.4512 -0.1964,0.1921 -0.3203,0.4715 -0.3203,0.75 l 0.3203,-0.3555 c 0.013,0.1007 0.03,0.2002 0.043,0.3008 -0.061,0.081 -0.1192,0.1643 -0.164,0.2539 l -0.5,-0.1 c -0.01,0.021 -0.022,0.045 -0.031,0.066 0.02,-0.084 0.031,-0.1725 0.031,-0.2656 l -0.7989,0.8984 c 0.1563,0 0.2922,-0.038 0.4063,-0.1074 -0.119,0.1198 -0.2516,0.2313 -0.4063,0.3086 l -0.1015,0.1 -1.7031,3.9785 c -0.072,0.014 -0.1204,0 -0.1954,0.022 -0.2,0.2 -0.3011,0.3992 -0.2011,0.6992 -0.2,0.5 -0.5004,1.0004 -0.9004,1.4004 -1,0.9 -1.6992,2.1004 -2.1992,3.4004 -4.2,9.4 -6.6,19.5008 -7,29.8008 -1,22.7 3.8996,44.1984 13.0996,64.8984 7.4,16.6 17.0011,31.4008 31.2011,42.8008 8.6,6.9 18.1,11.8996 29.5,13.0996 6.3,0.7 12.5985,0.7 18.8985,0 l 1,-0.1 c 1.2,0.4 2.7015,0.2008 3.6015,-0.6992 0.1111,-0.1447 0.1938,-0.2819 0.2891,-0.4219 l 4.4102,-0.7793 c 3.3,1 5.2992,-0.7996 7.1992,-3.0996 0.1,-0.3 0.2012,-0.5008 0.2012,-0.8008 -0.01,-0.049 -0.016,-0.096 -0.022,-0.1445 0.988,0.2216 1.8905,0.1593 2.6211,-0.7539 h 0.1992 c 0.4,-0.1 0.8015,-0.4008 1.1015,-0.8008 8.5,-6.1 16.0997,-13.1992 21.5997,-22.1992 2.4,-4 3.7996,-3.6 -0.9004,-8.5 -5.5,-5.9 -11.0004,-11.8012 -16.4004,-17.7012 -4.5,-5 -4.3992,-4.8992 -8.6992,0.3008 -4.7,5.8 -9.3997,11.8992 -17.0997,14.1992 -0.8,-0.1 -1.6015,0.3004 -2.1015,0.9004 -0.3,0.2 -0.6,0.2992 -1,0.1992 -1.9,-0.4 -3.7,-0.9992 -6,-0.6992 -2.6,0.2 -4.9996,-0.5 -7.5996,0 -1,0.1 -2.1,0.3996 -3,1.0996 0.1426,0.3182 0.2673,0.5932 0.3867,0.8516 -0.095,-0.05 -0.1921,-0.095 -0.2871,-0.1504 -2.1,-2.9 -4.7985,-4.4004 -8.3985,-3.9004 l -2.3554,-0.9414 c -0.2109,-0.4223 -0.449,-0.8296 -0.6446,-1.2598 -5,-5.4 -11.4003,-9.8992 -14.9003,-16.6992 -7.1,-10.5 -11.9008,-22.7008 -13.8008,-35.3008 -0.4,-1.5 -0.9004,-3.1 -2.4004,-4 -0.03,-0.038 -0.044,-0.078 -0.072,-0.1172 0.123,0.04 0.2378,0.082 0.3731,0.1172 1.5,-1.4 1.2007,-3.3992 1.3007,-5.1992 v -7.0996 c 0.3,-2.6 -0.7011,-5.1012 -0.7011,-7.7012 -0.2,-0.2 -0.1004,-0.4992 0.1,-0.6992 0.034,0 0.068,-0.028 0.1015,-0.051 -2e-4,0.049 0,0.098 0,0.1504 0.1,-0.1 0.3985,-0.1992 0.3985,-0.1992 -0.063,-0.1891 -0.1264,-0.3384 -0.1895,-0.4981 -0.011,-0.051 -0.03,-0.092 -0.053,-0.1425 0,0 0,0 0,0 -0.019,-0.05 -0.038,-0.1026 -0.057,-0.1582 0,0.014 -0.01,0.029 -0.014,0.043 -0.032,-0.047 -0.045,-0.1018 -0.086,-0.1426 0.4,-4.9 2.0989,-9.2996 4.2989,-13.5996 7.5,-14.8 23.2,-25.1996 42.5,-19.5996 8,2.4 14.1008,7.8 19.8008,13.5 2,2.1 3.4988,4.5996 6.2988,6.0996 5.8,-7.4 11.5008,-14.7004 17.3008,-21.9004 1.9,-2.3 5.5007,-4.3996 5.3007,-7.0996 -0.1,-2.7 -3.0007,-5.2012 -4.8007,-7.7012 -6.4,-9.1 -15.8,-15.4988 -26.5,-18.2988 -6.7,-1.9 -13.3,-1.4996 -20,-1.5996 z m 139.8086,0.3359 c -9.0274,-0.1943 -17.9961,1.1875 -26.8086,4.5625 -14.5,5.6 -26.3,14.5004 -34,28.4004 -3.6,6.7 -5.1008,13.8012 -5.8008,21.2012 -0.9,9.5 1.2015,18.2984 5.1015,26.8984 1.8,3.6 3.8997,7.0004 6.5997,9.9004 9.5,10.7 22.2992,15.6012 35.1992,20.2012 11.4,4.1 23.3996,6.6988 34.0996,12.7988 6.7,3.7 10.0004,9.1 10.4004,16.5 0.3,7.2 -3.6004,12.2 -10.4004,14 -6.5,1.6 -13.2985,1.7008 -19.8985,0.3008 -11.4,-2.3 -21.1007,-8.0012 -30.3007,-14.7012 -3,-2.2 -6.0008,-4.4 -9.3008,-7 -4.3,8 -8.3985,15.7 -12.3985,23.5 -2.9,5.4 -2.9011,5.4016 1.7989,9.6016 13.3,12.1 28.7996,20.1992 46.5996,23.6992 14.9,3 29.4004,2.4008 43.4004,-3.6992 10.9,-4.7 18.6,-12.6 22.5,-24 4.3,-12.4 3,-24.6 0,-37 -3,-12.2 -10,-22.9008 -20,-30.3008 -10.6,-8.1 -22.7992,-12.4992 -35.1992,-16.6992 -8.1,-2.7 -16.2997,-5.2004 -24.0997,-8.9004 -6.7,-3.3 -10.6011,-7.6996 -10.2011,-15.5996 0.3,-7.4 4.1011,-13.1 11.2011,-15.5 10.8,-3.8 21.0989,-1.1012 30.7989,3.7988 7,3.6 13.5,8.1012 19.5,13.2012 1.3,-1.3 2.3996,-2.8004 3.5996,-4.4004 4.2,-7.1 9.2004,-13.7004 13.9004,-20.4004 4.7,-6.7 4.7008,-6.6992 -1.1992,-12.1992 -8.3,-7.6 -17.7008,-13.8012 -28.8008,-16.2012 -5.4375,-1.1625 -10.8746,-1.8463 -16.291,-1.9629 z m 189.3906,1.6641 c -15.9,0.1 -31.6,0.4988 -47.5,0.2988 -13.7,-0.2 -27.3992,0.9012 -41.1992,0.7012 -2.8,0 -3.8,0.9996 -4.5,3.5996 -4.9,18.1 -7.9004,36.4992 -8.9004,55.1992 -0.6,9.5 -0.4996,19.1012 -0.5996,28.7012 -0.1,4.6 1.2004,7.3988 4.9004,9.7988 4.8,3.1 9.3988,6.4004 13.7988,9.9004 2.5,1.9 4.5004,2.4 7.4004,1 8.6,-4 18.1996,-5.7008 27.5996,-4.8008 6.3,0.3 12.2015,2.6 17.1015,6.5 8.6,6.9 10.7989,16.3008 9.7989,26.8008 -0.8,8.9 -5.8996,14.7 -14.5996,17 -9.7,2.6 -19.1,0.7992 -28,-3.3008 -8.4,-3.8 -15.5008,-9.4992 -22.8008,-16.1992 -5.9,9.3 -11.3985,18.3996 -16.8985,27.5996 -1,1.5 0.1,2.0004 1,2.9004 3.3,3.2 6.7997,6.1004 10.5997,8.9004 7.2,5.6 15.1988,10 23.7988,13 14.1,4.8 29.2012,5.6992 43.7012,2.6992 19.4,-4 32.1003,-15.9996 36.9003,-35.0996 2.3,-9.6 2.3985,-19.2996 1.3985,-29.0996 -1.2,-10.5 -3.6,-20.6 -8.5,-30 -2.6,-5.3 -6.2,-9.9004 -10.5,-13.9004 -8.9,-8 -19.7,-12.1004 -31.5,-13.9004 -9.3,-1.4 -18.6996,-0.8988 -27.5996,1.7012 -3.8,1.1 -4.1,0.6988 -4,-3.2012 0.1,-2.2 0.3008,-4.3992 0.3008,-6.6992 -0.1,-6.1 0.9996,-12.3 1.5996,-18.5 0.3,-4.1 0.5007,-4.1012 4.8007,-4.2012 h 7.1993 54.6992 c 4.8,0 4.8008,-0.099 4.8008,-4.7988 0.1,-4.7 0.4,-9.5008 1,-14.3008 0.5,-5.1 0.5992,-10.3004 1.1992,-15.4004 0.2,-2.4 -0.7985,-2.9984 -2.8985,-2.8984 -1.2,0.1 -2.4015,0 -3.6015,0 z m 111.3808,33.4023 c 5.4616,0.034 11.0637,1.9098 15.92,6.1973 5.7,5 9.4992,11.1992 12.1992,18.1992 5.3,13.2 7.1012,27.2996 7.2012,46.0996 0.3,7.6 -1.7008,19.3008 -4.8008,30.8008 -2,7.5 -5.3996,14.5 -11.0996,20 -7.5,7.3 -17.6993,8.6004 -27.1993,4.4004 -6.1,-2.8 -11.3,-7.3004 -15,-12.9004 -6.5,-9.6 -9.8011,-20.2 -11.7011,-31.5 -2.9,-17.5 -1.7004,-35.4008 3.5996,-52.3008 2.4,-8 6.6004,-15.1992 12.4004,-21.1992 4.6687,-4.8375 11.4584,-7.8399 18.4804,-7.7969 z m 477.92,149.3965 1,0.9004 z m 2.0996,1.0996 1,1 z m 8,4.3438 c 1.7427,0.9926 3.5705,1.8248 5.5645,2.3437 0.5841,1.8828 2.6072,2.5477 4.1367,3.5137 2.8296,1.555 5.706,3.0065 8.625,4.3633 -6.7009,-2.2651 -13.1696,-4.9887 -18.3262,-10.2207 z" />
  <path
     id="path8839"
     style="fill:none;stroke:#000000;stroke-width:100;stroke-linecap:round;stroke-linejoin:round;stroke-miterlimit:4;stroke-dasharray:none;stroke-opacity:1"
     d="m 993.1318,727.98328 c 60.1553,65.532 126.869,107.5387 220.458,116.69146 31.1496,5.61539 79.7894,1.32042 111.3188,3.8897 M 201.06882,836.89373 c 12.34879,88.41947 -33.75829,166.65567 -69.2044,250.26977 -62.358331,147.0975 -41.763758,240.2071 21.23115,343.8439 56.50269,92.956 186.76576,109.0606 265.53079,121.3821 309.02684,48.3421 626.34424,37.7923 934.26754,-14.3823 97.7433,-14.2261 197.5738,-46.6714 251.3228,-138.0002 72.8277,-120.178 106.1347,-259.6099 118.1762,-397.8313 4.5994,-126.4411 -42.684,-253.98899 -125.132,-349.27257 -57.3071,12.63912 -87.4575,123.22804 -152.9316,161.45582 -37.3659,21.81651 -75.8332,31.52074 -119.4207,34.20549 M 909.49678,1010.6999 C 894.77282,933.65378 882.17831,841.38369 948.55306,784.06014 1047.2153,679.04358 1043.4922,511.74253 971.27722,393.35397 928.56506,311.48698 847.86544,201.44176 760.85829,154.09419 686.22385,113.4796 655.75939,60.260303 569.64921,62.313221 494.42559,64.106597 461.9947,94.588283 406.84527,134.7235 279.65344,212.42863 153.20863,315.59381 114.31688,462.08278 c -39.345532,125.75271 -9.5116,283.77796 86.75194,374.81095"
     sodipodi:nodetypes="cccssssssccsssssssscc" />
  <path
     style="fill:none;stroke:#000000;stroke-width:70;stroke-linecap:round;stroke-linejoin:round;stroke-miterlimit:4;stroke-dasharray:none;stroke-opacity:1"
     d="m 1120.2446,999.966 c -150.73981,162.7254 -40.8544,400.2789 140.0528,414.7837 233.6508,18.7337 355.2243,-89.0556 424.0944,-238.046"
     id="path34404"
     sodipodi:nodetypes="csc" />
  <path
     id="path39644"
     style="fill:#000000;fill-opacity:1;stroke:#000000;stroke-width:4.766;stroke-linecap:round;stroke-linejoin:round;stroke-miterlimit:4;stroke-dasharray:none;stroke-opacity:1"
     d="m 298.56447,769.51711 c 145.21313,111.27478 384.23004,101.1046 493.65657,-7.84578 13.36554,-13.30739 44.51389,-56.05569 29.76322,-44.30229 -33.28737,26.52351 -84.05369,33.54317 -126.42324,34.25969 -56.9907,0.96378 -104.63022,-44.3659 -161.6231,-45.1917 -61.27634,-0.88787 -106.94184,47.61607 -168.12008,44.03788 -34.46143,-2.01558 -78.89233,-16.76761 -97.1942,-32.0709 -16.03841,-13.41067 -6.61785,23.0987 29.94083,51.1131 z m 20.10905,-134.40926 c -54.50581,15.18304 -107.4107,100.12308 12.53515,136.56712 40.85552,12.41345 92.23447,-8.06944 130.95929,-26.05991 47.06089,-21.86317 100.71518,-25.29294 144.81393,-0.98961 29.77183,16.40759 62.9195,30.85568 108.86776,30.08486 80.58312,-1.35184 170.64371,-81.08937 68.97056,-131.42716 -24.47903,-12.11942 -49.90275,-9.16879 -103.18087,-26.08217 -106.44677,-52.89757 -171.9247,-49.45561 -257.96011,1.31949 -30.14374,17.78978 -60.40358,4.16309 -105.00571,16.58738 z" />
  <ellipse
     style="opacity:1;fill:#000000;fill-opacity:1;stroke-width:5.41065;stroke-linecap:round;stroke-linejoin:round;stroke-miterlimit:4;stroke-dasharray:none"
     id="path40859"
     cx="372.49365"
     cy="425.10022"
     rx="76.838051"
     ry="134.27765" />
  <ellipse
     style="opacity:1;fill:#000000;fill-opacity:1;stroke-width:5.41065;stroke-linecap:round;stroke-linejoin:round;stroke-miterlimit:4;stroke-dasharray:none"
     id="ellipse40941"
     cx="756.62433"
     cy="425.10022"
     rx="76.838051"
     ry="134.27765" />
</svg>
